<svg id="Layer_1" data-name="Layer 1" xmlns="http://www.w3.org/2000/svg" viewBox="0 0 180.27 498.26"><defs><style>.cls-1{fill:#72c09e;}.cls-2{fill:#117574;}</style></defs><title>anchor</title><path class="cls-1" d="M87.09,460.39c-28.19,0-53.49-10.29-70.75-26.58a5,5,0,0,0-8,5.56c2.27,5.48,4.83,10.82,7.16,16.21,7.36,17.1,24.66,21.62,41.62,27.2,12.4,4.07,17.52,8.21,31.56,12.74a.33.33,0,0,0,.14,0V460.38Z"/><path class="cls-1" d="M33.34,436.8c5.2,3.34,3.92,4.86-1.29,5.68L18.41,446.7,4.77,450.92C1,453.61-1,453.61.49,447L3.66,433l3.16-13.93c.43-6.3,2-5.29,5.57-1.72l10.47,9.7Z"/><path class="cls-2" d="M93.18,460.39c28.19,0,53.49-10.29,70.75-26.58a5,5,0,0,1,8,5.56c-2.28,5.48-4.84,10.82-7.16,16.21-7.36,17.1-24.66,21.62-41.62,27.2-12.4,4.07-17.52,8.21-31.56,12.74a.38.38,0,0,1-.15,0V460.38Z"/><path class="cls-2" d="M146.93,436.8c-5.2,3.34-3.93,4.86,1.29,5.68l13.64,4.22,13.64,4.22c3.73,2.69,5.77,2.69,4.28-4L176.61,433l-3.16-13.93c-.43-6.3-2-5.29-5.57-1.72l-10.48,9.7Z"/><path class="cls-1" d="M82.55,492.9s.22,5.12,7,5.36V460.38h-7"/><path class="cls-2" d="M96.28,492.9s-.22,5.12-7,5.36V460.38h7"/><path class="cls-1" d="M89,470.54H69.91l6.34-17.89a38.08,38.08,0,0,0,2.19-12l1-49.6v-13a3,3,0,0,1,3-3H89Z"/><path class="cls-2" d="M89,470.54h19.12l-6.35-17.89a38.07,38.07,0,0,1-2.18-12l-1-49.6v-13a3,3,0,0,0-3-3H89Z"/><path class="cls-1" d="M85.14,380.66l-15.91,1.91a27.73,27.73,0,0,1-7.05-.05l-13.63-1.86c-2.17,0-3.95-6.1-3.95-7.81v-2.06c0-1.71,1.78-5.75,3.95-5.75L62.84,362a19,19,0,0,1,8,0L85.14,365c2.18,0,4,1.4,4,3.11v9.4C89.09,379.26,87.32,380.66,85.14,380.66Z"/><path class="cls-2" d="M93,380.66l15.91,1.91a27.73,27.73,0,0,0,7-.05l13.63-1.86c2.17,0,4-6.1,4-7.81v-2.06c0-1.71-1.78-5.75-4-5.75L115.25,362a19,19,0,0,0-8,0L93,365c-2.18,0-4,1.4-4,3.11v9.4C89,379.26,90.77,380.66,93,380.66Z"/><path class="cls-1" d="M89,378.65h0a8.25,8.25,0,0,1-8.22-8.22V360.7A8.25,8.25,0,0,1,89,352.48h0"/><path class="cls-2" d="M89,378.65h0a8.25,8.25,0,0,0,8.23-8.22V360.7A8.25,8.25,0,0,0,89,352.48h0"/><path class="cls-1" d="M89,362.55a17.48,17.48,0,1,1,0-34.95v6.65a10.82,10.82,0,1,0,0,21.64Z"/><path class="cls-2" d="M88.94,362.55v-6.66a10.82,10.82,0,1,0,0-21.64V327.6a17.48,17.48,0,1,1,0,34.95Z"/><path class="cls-1" d="M88.8,339.15a26.65,26.65,0,0,1,0-53.29v5.64a21,21,0,0,0,0,42Z"/><path class="cls-2" d="M88.52,339.15v-5.63a21,21,0,1,0,0-42v-5.64a26.65,26.65,0,0,1,0,53.29Z"/><path class="cls-1" d="M88.8,299.15a26.65,26.65,0,0,1,0-53.29v5.64a21,21,0,0,0,0,42Z"/><path class="cls-2" d="M88.52,299.15v-5.63a21,21,0,1,0,0-42v-5.64a26.65,26.65,0,0,1,0,53.29Z"/><path class="cls-1" d="M88.8,259.15a26.65,26.65,0,0,1,0-53.29v5.64a21,21,0,1,0,0,42Z"/><path class="cls-2" d="M88.52,259.15v-5.63a21,21,0,1,0,0-42v-5.64a26.65,26.65,0,0,1,0,53.29Z"/><path class="cls-1" d="M88.8,219.15a26.65,26.65,0,0,1,0-53.29v5.64a21,21,0,1,0,0,42Z"/><path class="cls-2" d="M88.52,219.15v-5.63a21,21,0,1,0,0-42v-5.64a26.65,26.65,0,0,1,0,53.29Z"/><path class="cls-1" d="M88.8,179.15a26.65,26.65,0,0,1,0-53.29v5.64a21,21,0,1,0,0,42Z"/><path class="cls-2" d="M88.52,179.15v-5.63a21,21,0,1,0,0-42v-5.64a26.65,26.65,0,0,1,0,53.29Z"/><path class="cls-1" d="M88.8,139.15a26.65,26.65,0,0,1,0-53.29V91.5a21,21,0,1,0,0,42Z"/><path class="cls-2" d="M88.52,139.15v-5.63a21,21,0,0,0,0-42V85.86a26.65,26.65,0,0,1,0,53.29Z"/><path class="cls-1" d="M88.8,99.15a26.65,26.65,0,0,1,0-53.29V51.5a21,21,0,1,0,0,42Z"/><path class="cls-2" d="M88.52,99.15V93.52a21,21,0,1,0,0-42V45.86a26.65,26.65,0,0,1,0,53.29Z"/><path class="cls-1" d="M88.8,59.15a26.65,26.65,0,0,1,0-53.29V11.5a21,21,0,1,0,0,42Z"/><path class="cls-2" d="M88.52,59.15V53.52a21,21,0,1,0,0-42V5.86a26.65,26.65,0,0,1,0,53.29Z"/></svg>