<svg id="Layer_1" data-name="Layer 1" xmlns="http://www.w3.org/2000/svg" xmlns:xlink="http://www.w3.org/1999/xlink" viewBox="0 0 1920 1080"><defs><style>.cls-1{fill:none;}.cls-2{clip-path:url(#clip-path);}.cls-3{fill:#73bf9c;}.cls-4{fill:#040404;}</style><clipPath id="clip-path"><rect class="cls-1" x="-0.03" y="-0.02" width="1920.1" height="1080.12"/></clipPath></defs><title>mapzoom</title><g class="cls-2"><path class="cls-3" d="M444.47,302.88c9-4.81,20.51-5.07,24.45-18.18,2-6.63,15.48-8.69,24.77-8.16s10.16-4.23,7.54-9.28c-7.29-14-6.55-23.91,13.65-26.49,1.77,5.61,3,11.73-2.16,17.53-.87,2.05-3,4.08-.07,6.17,2.48,5.68,5.05,9.8,13.72,8.55,16.5-2.39,34.25,3.51,49.74-6.46.83-.53,3.86.65,4.91,1.79,8,8.58,11.92-2.94,18.27-3.49,4.86-.42.86-6.45-.42-9.86-2.11-5.61-.85-10.21,4.14-14,5.38-4.12,8.27-.38,11.72,2.74,2.12,1.93,4.95,6,7.93,2.56,2.61-3,5.37-8.42.3-11.37-4.09-2.39-7.56-4.77-5.77-8.81s7.32-3.28,11.28-3.94c10.49-1.76,22.14,2.64,31.47-5.18-11.57-8.18-23.36-2.42-34.72.13-10.19,2.29-19.52,2-25.09-6.42-7.28-11.08-4.28-19.68,7.44-27.66,4.51-3.06,9-6.1,13.66-9,3.23-2,3.48-3.93-.07-5.64-8.21-4-19.92-5.33-22.62,2.12-4.23,11.71-13.44,14.87-22.88,20.08-10.82,6-9.83,16.23.73,23,8.81,5.63,3.65,10.89-2.28,13.59-5.73,2.61-10.9,5.63-9.4,11.16,3,11.21-1.76,14.82-13,15-1.64,0-3.19,2.75-4.84,4.17-3.62,3.11-7.34,4.67-11.24.35q-1.12-2.38-2.24-4.77c-.52-10.62-10.65-17.34-13.11-27.66-1.06-4.45-9.65.06-12.94,3-9,8.16-19.72,9.64-27.61,1.74-10.38-10.38-5.67-29.12,5.53-35.77,13.11-7.79,29.13-11.11,39.74-22.75,6.72-7.37,10.11-17.42,20.64-21.83,1.44-.6,1-2.59.17-4.49-3.5-8.17,3.61-9.64,8.45-7.6,6.61,2.79,9.18,2,13.43-3.22,2.45-3,6.67-5.45,13.93-4.76,10.37,1,21.45-4.44,32.23-7.13l2,2.27c10.77.07,21.73-5.94,32.07-1,5.74,2.74,10.63,5.6,17.28,7.53,19.14,5.55,39.78,5.64,58,14.07,5.39,2.49,13.68,4.19,12.81,10-1,6.45-9,8.54-16,7.83-13.51-1.35-27-3.29-40.84-4.34,6.2,3.29,12.31,5.44,14.18,13.34,1.63,6.88,8.44,7.85,15.06,3.67-.73.46-1.49.91-2.19,1.42-.1.08.1.5.16.76l2-2.18c-3.66-3.46-2.35-5.53,2.35-4.79s8.75,3.23,13.3,4.18c3.76.78,6.51,2.55,6-5.05-.38-6,10.4-11.59,19.87-11.18,2.13.1,3.83,4.81,6.59,1.2,1.55-2,1.66-4.56-.8-6.93-3.23-3.11-1-8.39-6.6-11.44,9.83-1.46,16.74.27,22.41,5.71-2.93,2.29-8.44-.86-10.34,4.05,6.75.55,6.75.55,12.34-2.2,6-7,15.23-4.5,22.37-4.5,9.16,0,18.06-14.47,28.37-.36,1.89,2.59,11.93-4,19.62-3.71,5.18.21,10.5-4.88,16.31.19,1.85,1.62,4.31-1.4,4.32-2,.2-12.86,9.42-5.86,14.86-5.48,14.72,1,29,4.07,42.49,11.4,2.73-7.51-1.94-10.39-7.23-12.36-13.43-5-15.05-8.7-8.68-20.07,2.35-4.2,4-8.73,6.28-13.8,4,1.56.73,8.86,7.85,7.87,8.1-1.13,17.06-1.65,13.88,10.72-.25,1,3.07,4,4.71,3.94,3.86,0,.94-3.26,1.74-4.77,3-5.66,8.88-6.81,13.55-2.89.71.59.66,3.24,2.26,1.36,12.13-14.27,26-3.72,39.2-2.46-.34-.76-.45-1.85-1-2.14-5.27-2.63-16.31.16-15.16-7.71s11.08-2.75,17-3.68,12.21-.79,18.35-1.12c-.48-5-8.19-1.25-7.5-5.75.46-3,4.27-3.84,7.64-4.74,16.3-4.35,31.86-11.37,49.88-5.93,7.31,2.21,15.55-2.28,19.17-7.61,4.09-6,11.22-7.1,14-5.19,8.44,5.72,19.4,1.74,27.26,7.68,3.45,2.61,7.32.63,10.85,0,5.66-1.06,11.13-1.62,16.85-.2,8.06,2,20.42.72,21.93,8.69,1.13,6-11.06,9.56-18.29,16.34,9-1.86,19.08,4.16,21.19-9.21.47-2.94,5.1-3.27,6.81-.83,5.7,8.15,14.67,7,22.27,5.85,13.49-2,24.34,5.49,36.8,6.6s23.77-3.94,36.32-4.3c13.35-.38,21.78,5.59,31.49,9.91,4.35,1.92,8.69,5.8,13.39,8.44,8,4.48,7.67,4.41,15.22-1.24,1.67-1.24,5.4-.07,8.17-.17,13.46-.45,27,2.6,41.25-.14-2.62-2.67-6.82-5.32-6.38-6.82,1.24-4.28,6.31-3.15,9.68-2.67,10.14,1.45,21.87-2.93,30,6.61.71.84,3.19,1.53,3.92,1.06,16.5-10.54,34.93-1.15,46.05,4.33,14.25,7,23.67.47,35.07.6,14.38.17,28.62,0,39,11.69,2.5,2.81,6.41,4.5,10.24,3.39,15.37-4.48,31.58-1.93,47.23-3.46,9.23-.91,19-4.08,28.16-3.29,43.77,3.74,86.3,13.43,128.55,24.35,14.24,3.68,30.17.07,43.49,8.74,4.09,2.65,4.1,1.69,3.22,7.3-1,6.2,7.32,5.21,11.31,10.69-14.28,2.81-26-2.67-36.05-7.61-9.8-4.79-20,.67-28.8-4.25-1.77,5-4.13,9.55-11.71,9.25,14,3.64,25.37,9.65,35.36,19.09-16.54-2.5-29-.2-32.26,17.07-.28,1.54-3.67,4-5.18,3.71-10.22-1.72-19.62-1.67-30.06,1.47a126.11,126.11,0,0,1-15.14,3.51c1.47,5.11,3.11,10.55,8.36,13.14,8.82,4.35,14.23,12.69,23.67,16.29,2.53,1,6.85,4.35-.91,4.69-.43-1.25-1.18-2.52-2.66-1.46-.48.34.24,2.13.41,3.25,3.27,4.75,17.9,6.65,4.59,15.55,5.51,6.31-2.28,13.14.89,19.51,3.07,6.19.66,10.82-5.71,15.82-9.58-20.41-29.8-30.73-46.61-44.32-10.74-8.68-7.7-18.7-6.55-29.5,1.23-11.51,15.34-23.57,1.75-35.85-1.54-1.4-1.77-4.05-4.85-3.44-4.86,1-1.57,3.63-1.57,5.82,0,9.58-4.84,12.16-13.85,7.56-1.66-.84-3.16-1.94-4.85-2.71-7.22-3.29-16-8.32-21.91-1.18-4.94,6-5,14.76,5.5,21-10.57,2.11-17.84,7-26.71-1.25-2.9-2.7-12.46-4.79-20.92-.77-6.13,2.91-15.76,3.11-24.36-.91-11.07-5.18-23.69,1.26-25.55,12.89-1.15,7.16-4.73,13.06-7.72,19.16-6.81,13.89-7.32,13.68,9,14.78.73.68,2,2.05,2.13,2,2.15-1.36.51-2.37-.54-3.41-.72-1.53-2.14-3.34-.19-4.59,2.76-1.77,4,.1,4.85,2.36,2.71,7,3.75,14.68,15.93,7.36,4.65-2.8,13.32,2.06,19.44,5.73,3.38,2,4.65,7,10,6.24l-.24-.32a4.54,4.54,0,0,0,4.31,4.94c3.16-.22.88-3,.93-4.64l5.66-1.08c3.47,1.9,5.2,4.93,6.39,8.32l-.9,5.29c-3.14-.34-6.07-3.95-9.2-1.52-3.88,3,1.11,5.22,1.89,7.78a32.82,32.82,0,0,0,5,9.35c15.83,22,2.84,43.2-2.38,64.39-1.28,5.18-6.71,8.77-14.74,5.81-10.28-3.79-18.63,1.81-17,11.5,1.28,7.5-.31,12.57-6.82,16.89-7.78,5.16-2.62,7.54,2.79,9.5,14,5.09,22.34,15.14,28.72,27.08,3,5.54,1,11.42-3,14.11-4.92,3.32-12,4-18.32,5.35-.62.14-3.18-3-2.8-3.86,3.86-8.85-7-13.55-6.66-22.29.35-9.44-11.17-6.78-18.17-9.06-8-2.6,2.65-16.2-7.89-17.54-5.61-.71-12.79-3.7-19.64,1.56-4.33,3.33-14.74,6.46-10.61-6.29,1.35-4.18-1-5.72-4.33-6.68-2.44-.69-4.87-1.93-7.47.9-5.42,5.93-6.53,15.87-18.58,16.11-2.58.05-1.29,6.43,1.45,7.27,6.81,2.09,14.27,2.48,18,9.51.34.64,3.47,1,3.77.52,9.34-13.36,18.17,3.63,29.06-1.77-4,7.54-11.23,5.68-15,11-6.13,8.47-15.62,12.5,2,20.43,10.34,4.66,14.39,19.1,25.78,25.55,1.16.66,2,3.65,1.38,4.8-4.27,7.77-2.77,12.71,6.92,15.21,2.48.63,1.73,3.7.64,5.77-9.13,17.31-9.6,37.67-25.17,53-10.23,10.09-23.38,10.74-34.51,16.17-10.28,5-26.7,5.24-29.55,21.65-6.81-8.42-8.7-20.17-22.3-12.65-13,7.17-18.51,21.51-11.88,31.84,4.36,6.8,9,13.28,16.78,17.35,21.18,11.05,19,30.36,19.76,48.5.15,3.27-2.43,5.52-5.57,7-9.93,4.71-20,9.12-25.37,19.17a7,7,0,0,1-8.59,2.77c-3.44-1.35-2.66-4.4-1.49-6.75,3.11-6.26-.51-8.41-6.2-7.82-7,.72-7.59-6.53-12.8-7.66,2.72-9.32-7.25-10.8-11.87-12.55-7.08-2.68-10.74-6.66-13.3-15-6.89,9.76-3.13,18.78-5.5,26.61-2.55,8.45-1.1,14.46,3.43,23,5.77,10.89,13,18,22.83,25.07,10.12,7.28,17.35,17.25,15.47,30.64-1.13,8,8.69,12.19,9.63,21.62-7.59-4.77-15.32-4.22-22.86-4.81l.39.43c.4-2.38,1-4.92-3.26-2.93l.36.33c.17-1,1.81-1.72.3-3.15s-2.31.06-3.43.19l.39.26c-8.63-13.77-11.55-29.53-17.36-44.25-2.36-6-4.22-8.73-10.32-11-7.5-2.82-9.53-8.08-8.44-16.57,1.95-15.11,4.82-31.07-4.64-45.29-5.3-8-3.22-18-9.4-25.53-3-3.72-6.21-7.58-10.49-1.55-4.47,6.32-11.69,5.52-17.12,4.25-5.66-1.32-2-7.47-1.87-11.28.58-12.11-11.81-17.77-15.72-27.78-1.46-3.75-5.07-7.85-7.82-11.66-9.87-13.71-11.38-11-30.37-8.28-23.18,3.31-28.35,22.52-42.56,33.42-9.88,7.57-15,19.82-27,26-6.64,3.38-10.12,7.09-8.47,15.89,2.92,15.67.1,31.73-2.17,47.54l-2.85,6.6c-2.89,1.18-6.07,2-8.63,3.62-11.07,7.06-18.22,6.24-20.31-5.56-2.94-16.55-14.9-29-19.44-44.69-4-13.81-15.17-24.84-18.85-39.3-3.41-13.37-7.48-26.57-9-40.92-3.39,4.43-5,10-12.16,8.13s-13.18-5.38-17.2-10.88c-3.78-5.17,5.24-4.86,5.91-9.83-12.88,1.92-20.83-6.35-27.61-13.22-12.67-12.83-27-10.56-42.51-8.66-17.25,2.11-38.32,3.13-49.25-7-10-9.25-15.89-5.36-25.38-6.21-16-1.43-32.46-6.77-40.16-22.8-3.68-7.65-8.4-14.56-19-13.29-5.5.66-11.58,2.42-6.58,9.89,3.9,5.86,5.8,12.91,13,16.66,10,5.16,5.55,16.11,10.7,23.3,5.68,0,2-9.85,8.41-7.55,4.66,1.65,2.74,6.7,1.94,10.46-.74,3.48,1.38,7.91,3.65,7.6,8-1.06,17.06,1.23,23.54-5.49,4.87-5.07,9.92-10,15.86-16C946.82,562,952,570.88,966,574.46c12.55,3.19,15,11.89,9,24.33-8.07,16.8-19.83,35.08-36.52,41-29,10.23-49.67,34.61-81.75,38.26-2.42.28-4.44,3.06-6.77,4.52-8.73,5.47-18.94,2.57-21.42-6.6-2.57-9.52-8.09-18.56-5.63-29.07.49-2.08-1.16-5.32-3-7-11.61-10.71-14.78-27.35-30.07-35.59-4.6-2.49-5.69-7.58-4.77-12.88.57-3.32,1.22-8.29-.75-10.07-16.33-14.62-24.7-34.5-39.66-49.92-4.26-4.39-10.66-.21-18.23-4.49,10.29,15.3,19.87,29.39,23.32,43.13,4.4,17.56,24,27.85,22.08,47a13.25,13.25,0,0,0,3.74,9.63c7.07,6.91,10.24,15.14,13.14,24,1.77,5.38,4.76,16.22,13.71,1.88,5.58,13.9,11.76,25.58,24.86,32.55,7.26,3.86,2.41,13,9.46,17.82,5.26,3.62,8.3,8.85,14.39,1.75,5.08-5.93,12.37-1.28,18.69-3,8.73-2.37,18.38-1.14,26.65-6.67,5.3-3.55,8.93.78,7.62,5-9,29-11.52,62.31-42.14,80.06-25.4,14.73-42.55,35.43-55.62,57.94-11.54,19.88-21.77,42.9-11.45,67.33,1,2.43.77,6.19,2.58,7.31,21.18,13.1,3.67,32.18,8.77,47.79,1.47,4.49-3.71,8.88-8.42,11.2-18.27,9-30.31,24.47-45.5,36.65-4.49,3.6-3.42,7.69-2.16,12,1.1,3.76,2.94,7.54,3,11.33.19,13.52-.42,26.48-18.16,32.08-6.27,2-9,6-8.5,15.17.47,8.82.08,24.19-15.89,29-6.63,2-9.28,8.45-13,13.38-9.93,13.17-21.85,24.1-38.06,30.58-2.17.86-4.29,2.59-6.45,2.61-15.34.19-29.72,2.9-44.53,7.5-13.89,4.31-24.83-8.93-20.07-21.87,1.51-4.1-.31-6.5-1.68-9.67-9-20.82-21.3-40.44-27.21-62.42-.22-.84-1-1.67-.89-2.47,1.82-23.6-12.83-42-22.84-61.87-11.62-23.1-5-45.6,6.12-66.71,4.57-8.65,7.05-15.63,2.8-24.46-1.26-2.62-2.05-6.23-1.13-8.8,3.06-8.5-.45-15.41-5-22.19-11.92-17.82-21.4-37-34.93-53.88-1.78-2.23-4-5.43-2.13-7,10.26-8.66,4.34-20.8,8.5-30.66,4.47-10.6-.76-16.82-11.37-19.93a44.78,44.78,0,0,0-14-1.94c-9.06.36-15.39-1.52-17.85-10.78-1.8-6.74-8-9.28-15.35-9.38-16.35-.23-32.37.93-45.66,11-5.16,3.92-9.4,3.91-15.35,1-9.32-4.58-19.86-5.34-28,1.67-11.93,10.27-21.7,4.89-32.19-1.57-26.44-16.27-47.36-36.75-59-64.49-2.47-5.9-9.74-7.94-11.58-15.47-2.75-11.23-4.29-21.17,1.87-31.81a16.82,16.82,0,0,0,.42-15.41c-5.5-11-1.42-23.42,0-32.88,2-14.06,7.65-30.09,19-42.48,9.68-10.57,14.44-24.75,32.48-28.46,8.3-1.71,12-11.75,13.84-20.13,2.61-12.09,6-22.67,19.24-30,10.73-5.94,11.81-20.46,21.8-28.5.84-.68-2.73-12.24-11-11-5.36.82-10-.44-15.31-.41.1-5.57,6-11.73-2.63-16.38-2.36-1.27-.28-5.25,1.51-6.9,9-8.27,7.21-20.43,5-28-4.73-16.23,9.52-14.25,15.35-14.53,13.37-.65,27.17,1.39,40.37,4.11,7.5,1.55,10.37.89,11.66-6.13,4.51-24.41,3-27.24-21.81-38.93-1.53-.72-2.52-2.38-4.88-4.7,7.36-1.25,11.49-5.64,19.8-1.09,7,3.82,9.46-3.3,6.7-11.15,14.1,5.83,23.86,3.07,28.62-10ZM629.05,430.74l.4.37c.15-3.24-2.81-3-4.82-3.37-20.14-3.95-25-8.52-29-28.74-1.08-5.43-5-8.89-9.46-10.66-15.88-6.36-26-20-41.43-27-3.47-1.57-3.89-10.79-10.32-4.26-4.76,4.83-2.45,10.8,3.25,14.48,9.73,6.28,12.54,19.06,26.64,22.23,3,.67,12.9,4,15.45,12.27-6.9-1-12.5,3.57-9.34,7.25,6.46,7.48.72,11.18-2.56,16.16l-3.7-2.63c3.18-11.17-4.3-21.76-20.11-27.13-13.41-4.56-22.38-12.92-28.9-24.4-3.85-6.77-9.7-9.91-18.19-4.79-9.08,5.48-17.42,12-30.39,6-5.46-2.52-15.91-1.61-14.05,10.42,1,6.22-3.9,9.41-11.24,10.68-11.22,2-18.76,10.48-18.34,19.74.47,10.32-5.24,13.86-12.07,19.32-8.24,6.6-17.85,5.58-27,7-6.05.93-10.73,3.63-10.49,8.7s5.66,7.81,11.36,7.19c13.57-1.46,27.78-1.09,39.78-8.38,10.92-6.63,21.46-12.68,35.25-6.4,2.46,1.12,7.53.56,9.5-1.12,12.49-10.59,28.59-1.12,42.07-7,5.85-2.55,9.06,6.41,8.43,7.56-4.36,7.89,7.51,18.3-4.77,24.68-2.11,1.09-2.24,3.88-.12,5.69,2.68,2.3,4.63.24,5.34-1.71,3.09-8.46,6.78-3.63,8.91,0,4.84,8.22,12.41,9.92,21.73,12,13,3,21.15,16.58,36.34,16.89.3,0,.6.63.86,1,2.93,4.11,5.85,8.35,12.36,6.52s5.6-6.92,6-11.78c1.3-14.17,13.32-18.61,27.17-13.1,11.91,4.74,22,12.69,36.75,13.5,10.94.6,21.32,2.76,31.88-1.11,4.15-1.52,7.25-.38,11.48,1.09,6.9,2.4,16.56,5.44,21.12-3.56,8.34-16.48,13.75-33.72,10.46-52.92-5.24,1.38-10.57,1.55-14.12,3.95-8.51,5.74-15.61,7.48-23.31-1.09-1.81-2-5.78-3.25-10.05-.55-10.27,6.5-24.47,1.32-31-8-4.62-6.52.34-15.42-7.62-20.06-1.76-1-4.9-.24-3.95-3.59A5.14,5.14,0,0,1,660,408c9.32-.9,20.07,1.91,25.23-9.32.92-2,5.28-1.51,8-.37,4.05,1.72,7.33.33,10.59-1.7,12.75-8,25.25-7.49,38.57-.46,11.19,5.91,24.27,4.9,36.56,4.47,3.21-.11,10.88-2.81,10.2-9-.54-4.82-.4-11-9-10.73-4.08.13-6.26-3.65-9.24-5-14.34-6.44-26.06-22.12-46-10.77-8.81,5-13.12-2.61-15.54-9-1.94-5.13-14.17-12.3-18.09-9C679.38,357,673,370.38,667,383.47c-3.21,7,8.94,9.09,9.86,12-9.78,19.84-32.91-3.35-43,15.09a7.73,7.73,0,0,1-2.54-.84c-8.9-5-6.62.27-5.6,5,.95,4.41,4.82,6.21,8,8.71,2,1.53,5.29,2.8,3.1,6C634.88,432.31,631.6,430,629.05,430.74ZM940.48,160.8c5.6,0,10.8.31,15.94-.07,7.77-.59,11.15-5.6,12.72-12,.83-3.36-5.13-7.57,1.09-10.18,5.41-2.27,8.51,2.22,12.31,4.45,2.42,1.42,3.81,4.82,7.88,4-3.9-12.11-7-14.28-20.24-11.5-8.8,1.84-14.83,1.45-16.62-8.11-1.18-6.27-7-5.36-13.61-7.86,2.74,8.25,3.7,14.56,9.1,19.21,3.43,2.94,11.69,1.73,10.22,8.66-1.32,6.2-8.29,6.28-13.48,8C943.72,156.1,941,155.83,940.48,160.8ZM726.33,524c.37-2.85-.54-4.58-2.92-5.67a1.86,1.86,0,0,0-2.86,1.54c-.08,2.6.52,5.26,3.79,6.06C724.85,526.06,725.84,524.51,726.33,524Z"/><path class="cls-3" d="M-95.29,196.78c1.81,9.76,7.52,14.45,18.37,11.45,1.82,4.86-2.21,5.83-4.58,7.44-5.48,3.72-5.22,9.34-2.77,13.23s6.64,5.25,13.84,3c11.43-3.61,17.35-14.09,30.35-17.19-1.3,13.46,14,24.23,3.67,38.64-1.73,2.42.35,10,8,9.53,14.58-.92,16.07,12.81,24,19.15,2.24,1.78-2.93,11.54-10.38,14.11-6.6,2.29-13.41,4.28-18.83,8.69-6,4.88-5.41,8.48,2.48,10.89,8.29,2.53,15.07,22.62,9,27.69-4.67,3.9-10.38,5.84-11.09-3.44l1.21-2.31-3.18.29c-9.93-3.39-20.56-1.15-30.64-3.19-7.71-1.55-5.5-6.52-2.7-9.87,3.67-4.41,8.7-7.86,13.74-12.25-13.13-6.74-25,.81-37.17,1.19-2.12.06-1.66,1-1,2.18,5.39,9.64-5.37,5.78-6.32,5.08-23.3-17.29-33.94,9.36-51.58,11,12.58-2.62,24.09-8.82,37.54-9,4.29,0,9.47-.14,10.74,4.43,1.51,5.51-3.61,6-8,6.69-1,.15-4,1.49-2.4,1.73,7.4,1.06-1.55,9.87,6.58,10.39,4.92.32,10.52-.63,9.41,8.77-.55,4.66,8.8,0,13.7-2.06,3-1.24,4.08-9.17,8.8-3.62,4.88,5.73-1.79,8.38-6.13,10.21-14.91,6.27-32.66,6.25-45.4,17.5-2,1.79-4.74.92-6.23-.94-2.19-2.75.33-5,2-6.93,4.37-5,13.33-4.13,17.13-10.79a17,17,0,0,0-17.74.52c-13.74,9.45-30.8,12.11-45,20.26-4.79,2.74-10.8,6.47-7.17,12.34,5.64,9.13-.67,8-6.46,7.49-14.76-1.2-26.82,2.88-37.32,13-8.84,8.5-14.74,19.25-26.05,26.12-4.41,2.67-4.47,11.2-6.87,16.94-4.74,11.36-17.89,12.35-27.24,17.8-13.26,7.74-26.21,15.83-36.94,26.21-9.51,9.2-7.13,21.23-4.3,32.33,3.22,12.66,1.33,24-8.92,37.3-3.51-14.22-17-22.23-12.74-37,2.54-8.78-4.23-14.27-11.87-14.7-12-.68-22.83-5-34.33-6.81-8.49-1.34-17.83-3-16.14,10.41.94,7.51-6,6.17-9.76,4.48-20.69-9.35-39.77-3.62-58.62,4.54-12.37,5.35-19.39,13.05-18.62,27.29.55,10.37-10.12,18.9-10.64,30.12-.52,10.93-1.79,21.92,6.59,30.85,4,4.28,1.7,9.29,3,12.07,13.58,3.77,26.11,3.17,38.88.65,11.65-2.31,19.84-6.38,18.66-18.8-.54-5.6,2-8.28,8-8.05,11.71.44,22.88-2.93,38.86-5-12.88,11.37-16.39,24.18-23.72,35-5.18,7.63-4.85,17.56-13.66,23.91-2.83,2.05,4.27,5.62,6.73,4.22,10-5.71,20.71,2.77,31.83-3.37,7.84-4.33,19.24,10.86,15.69,19.67-6.64,16.49-13.81,32.29,4.56,47.85,7.54,6.38,13.48,4.21,19.09,2.07,12.82-4.9,24.6-10.71,32.47,5.95,1.28,2.71,3.77,1.59,5.68-.15,2.35-2.14,6.19-3.82,7-6.35,6.84-21.75,32.06-19.07,46.58-31.12-1.7,9.59-2.7,18.41.87,28-5.17-16.67,18.58-16.31,17.59-31.85,19.11,29,46.51,21.87,72.4,20.08,3.91,10.54,12.79,18.42,23.46,23.34,7,3.24,12.79,5.34,16.14,12.84,4.6,10.32,14.72,15,26.73,13.85,22.63-2.27,40,6.15,49.3,25,2.14,4.3,3.24,9.13,8.33,11.76,1.5.78,3.68,3.3,3.36,3.76-8.53,12.62,7.61,17.61,9.51,26.83,1,4.84,3.95,2.6,5.88,1.81,14.68-6,29.25-2.28,35.47,10.55,2.77,5.72,4.36,5.58,10.93,5,21.71-2.06,42.76,1.48,61.2,13.36,3.85,2.48,6.66,6.58,10.75,8.41,8.14,3.63,17.05,6,17.16,16.52C105.64,899.43,109,914,96.12,925c-7.07,6-10.1,16.31-16,20.53-16.71,12-9,27-10.22,40.6-1.78,20.41-11.2,38.69-16.62,58.06-.78,2.78-3.26,7.15-5.29,7.32-14.79,1.21-27.25,7.53-40.6,12.66-13.75,5.27-23.78,12.32-21.53,27.18,2.41,15.94-1.69,28.88-12.19,41.07-2.79,3.24-2.54,4.67-6.37.3-3.11-3.53-6.11.49-6.94,4.53a209.62,209.62,0,0,1-4.89,20.41c-5.39,17.41-12.15,21-31,17.09-3.7-.78-7.33-1.79-11-2.69-1.51-1-3.07-1.88-4.47,0a27.84,27.84,0,0,0,2.58,2c6.95,3.62,10,10.69,16.47,15.14,6,4.19-.09,18.47-8.74,21.43-3.89,1.34-8.33,1.46-12.55,1.87-19.58,1.92-19.83,1.9-18.29,19.92.69,8-3.58,9.14-10.3,7.52-4.45-1.08-8.71-2.83-14.54-4.78,2.16,7.85,3.07,13.77,13.14,14.92,6.73.76,11,5.18,1.13,9.11-5.42,2.16-4.25,6.52-4.34,10.09-.13,4.63-.69,8-6.32,9.74-3.91,1.22-8.24,3.78-6.83,8.6,1.34,4.62,6,6.58,10.62,7.86,15.9,4.39,16.23,4.64,6.72,16.79-4.81,6.15-1,14.75-9.47,20.82-3.33,2.37,8.71,9.51,14,15.15-2.81,2.55-7.52-1-10.08,3.43,17.42,3.47,30,16.19,47.73,20.21-10.91,5.28-21.28,9.84-34.19,5.18-20-7.22-39.73-12.52-56.21-28-11.38-10.71-13.65-26.28-27.34-34.48-1-.57-1.86-3.06-1.45-3.44,14.23-13.21-5.34-13.46-9-19.64,12.08-11.45,13.46-30.54,3.64-44.42-2.63-3.72-6.79-1.92-10.09-3.14-2.47-.91-4.95,7.59-7.88.29-1.44-3.57-4.2-6.31.53-11,6.2-6.11,1.46-13.88-2.34-20-5.29-8.5-6.71-16-2.23-25.7,5.25-11.39,4.68-24.46.65-36.11-11.79-34.09-8.1-69-9.09-103.8-.63-22-1.86-45-29.53-55.63-30.56-11.76-49.92-32.53-61.46-61.36-7-17.55-14.86-36.48-37.75-43.33-2.25-.68-.77-25.84,1.46-27.92,5-4.66,12.66-8.48.22-14.2-4.75-2.18,2.5-26.24,10.31-31.88,8.6-6.2,11.9-16.23,21.1-22,5.78-3.61,4-10.23,3.4-15.89-1.16-10.47,6-22.55-7.09-30.78-.82-.51-1.36-3-.81-3.55,8.32-8.31-2-10.6-5.92-11.47-6.46-1.42-12.4,4.9-12.05,9.25,1,12.23-2.46,6-9.94,4.87-17.78-2.75-25.75-19.28-42.41-22.45-1-.2-2.67-2.36-2.39-3,6.61-14.5-12.27-18.91-13.89-30.07a23.39,23.39,0,0,0-.62-2.43c-13,5.81-21.62-8.18-32.52-6.58s-13.17-4.25-16.93-10.1c-9.09-14.16-13.31-15.8-29.56-9.09-7.07,2.93-13.57,1.43-19.08-1.33a404.43,404.43,0,0,0-55.59-23.09c-12.49-4.08-18.17-15.37-14.72-27,2.67-9,2.64-17.13-5.58-24-14.35-11.93-19.32-29.41-30-43.43-8.53-11.2-15.2-22.1-14.63-36.22.11-2.72-2.33-7.34-7.33-6.06-4.67,1.19-6.49,5-5.95,9.32,1.27,10.1,4.46,20,10.6,28.19,10.51,14,11.78,29.79,14.54,46.47-8-2.51-11.27-8.11-14.07-14-1.52-3.18-3.22-6.51-3.62-9.89-1.27-10.83-21.62-11.4-15-28.37,3.68-9.42-4.29-22.56-6.5-34.11-2-10.42-6.74-19.06-16.66-24.74-3.68-2.1-8.47-4-8.62-8.09-.75-19.55-8.35-38.85,2-58.72,12.06-23.06,31.6-41.38,44.44-63.79.63-1.1,0-3.93,4.21-3.11,11.86,2.35,17.36-3.64,12-13.73-2.23-4.2.08-8.58-3.1-12.19-6.29-7.16-1-9.2,6.89-9.42-4.87-7.41-16-2.4-18.53-11.08-2.11-7.16-7.7-13.88,1.47-20.55,3.87-2.82,5.28-8.58,2.89-11.9-3.21-4.48-8.5-1.26-13.23,1.23,0-3.19-.11-5.77,0-8.34,1.31-26.39,1.07-26.58-27.44-33.36a53.33,53.33,0,0,1-12.92-5.12c-10.23-5.58-20-6.82-30.51-.27-5.89,3.67-11.12,5.79-18.81-.48-6.25-5.11-16.06-1.46-23.68,3.31-28.51,17.83-60.63,28.35-93.05,38.18-5.07,1.54-5.46,1.27-14.42-.22,15.06-10.46,36.53-7.65,53.53-22.2-6.83,0-10.68.15-14.51-.06-2.3-.12-6.52-.72-6.55-1.27-.4-7.17-.64-12.68-6.58-19.86s8.14-10.91,15.53-14c12.9-5.37,25.61-11.42,40.61-9.65,2.64.31,5.67-.66,8.25-1.63,6.77-2.57,18.31-4.69,16.54-11.35-2.17-8.13-12.09-.36-18.58-1.1-2.29-.26-4.7.4-7.06.62-4.46.41-8.8.65-9.32-5.1-.43-4.68,3.13-6.21,7-6.66,11.19-1.31,22.41-3.78,33.69-.48,5.09,1.49,10.33,2.69,14.75-1.11,5.16-4.41.07-8-1.94-11.47-3.8-6.51-1.4-10.29,5.69-11.38,32.61-5,63.93-19,97-17.65,23.16.93,47,1,70,5.76C-566.7,128-556,130-545,129.36c5.34-.29,10.16.39,14.62,3.66,5.54,4.06,11.61,3.78,18.69,2.61,6.2-1,15.26-9.27,19.93,2.92.3.77,4.52.72,6.76.3,4.61-.85,9.55-1.45,13.58-3.48,14.22-7.18,27.56-10.49,44.86-6.25,20.94,5.13,44.13,1,64.76,12.21-.6,3.49-8,.88-8.34,6.16.48.49,1.41,2.18,2.17,2.11,8.94-.79,18.11-.95,26.7-3.07,8.31-2.06,11.33-.75,8.18,9l19.36-14.77-.35.31c10.66-4.91,17.91,5.77,28,5.11,7.9-.51,16,1.14,24,2.08,6.26.74,10.53-.63,13.76-6.34,4.21-7.44,11.28-11.61,21-10.51,3.26.37,7.19.11,8.19,3.81,1.16,4.28-2.95,4.76-6,5.63-5.16,1.49-9.52,3.54-9.49,11.37,12.57-4.25,22.22-10.2,25.76-21.75,1.72-5.63,4.44-8.82,10.07-11.36,13-5.84,19.67-20.54,35.82-22,5.82-.52,12.84-6.76,16.94,3.33,1.29,3.17,6,.22,8.89-.54a47,47,0,0,1,18.38-1.36c-6.1,3.76-13.28,4.92-15.65,11-.38,1,1.23,2.58,1.93,3.9-.42-2,1.63-1.51,2.5-2.23C-112,96.15-89.9,101-68.89,100.53c9.46-.21,1.31,9.86,8.84,12.52,4.6,1.63,7.39,4.9,14,4.86,8.29,0,18.62,4.39,22.07,11.32,3.22,6.46-7.51,6.38-13.24,9.83,11,9.82,26,11.23,39,18.85-15.51,3.92-29,26.33-44.28-1.81-4.52,7.71-9.44,11.56-1.94,19.07,7,7,2.84,15.61-7.17,17.06-5.06.73-6.62,2.72-9.78,5.92-4.17,4.24-14.75,4.17-17.48-.84-4.77-8.75-9.7-2.23-14.5-2.39-2.79-16.71-3.71-17.15-25.95-15.74-4.79.3-12.05,3.15-13.56-3.13-1.61-6.72,8.44-2.77,11.17-7.39,1.61-2.72,4.57.91,6.83,1.78,7.49,2.9,17.71.44,18.62-3.84,1.59-7.43,6.13-6.76,11-8.26,12-3.69,13.47-10.25,4.2-18.48-5.69-5.05-11.77-9.74-17.56-14.5-5,5.92-4.88,5.24-13.19,3.46a31.89,31.89,0,0,0-16.39.75c-5.52,2-.13,7.23.95,8.47,8.12,9.42-.09,12-6.65,15.76-5.87,3.39-11.71,5.2-18.79,3.73-6-1.24-12-.79-16.34,4.26,3.26,4.7,8.79,5.55,13,8.23,7.28,4.64,8.84,8.9,0,14.62-7,4.55-12.49.43-18.68,0-5.21-.32-11.89,5.88-15.26-.66-2.46-4.78,7.2-6,8-11,.1-.69-.55-1.49-1.42-3.68-17,15.74-41.92,12-60.9,23.32C-256.93,200.16-271,205.26-283,214c-11.21,8.15-7.38,17.29-5.47,26.78,1.8,8.94,10.32,5.34,16,7.13,4,1.26,7.69,3.41,11.73,4.45,11.29,2.89,19.66,12.47,33.24,10.74,9.17-1.17,6.29,3.62,3.36,8.71-5.26,9.12-12.25,18.41-4.22,29.49,2,2.77,5.36,6.29,7,3.21,3.18-6,11.83-7.16,13-14.42,2.64-16.67,13.22-26.65,31-30.31A8.09,8.09,0,0,0-175,258.5c9.5-5.9,19.42-11.56,10.92-24.43-1.76-2.66.31-5.3,2.63-6.76a48.45,48.45,0,0,0,18.56-20.08C-132.48,186.76-111.47,199.55-95.29,196.78Zm-56.66-95.09-5.69,2.62c-19,1.91-27.59,12.79-29,29.39,8.52,1.22,11.65,3.14,11.49,7.27-.08,2.31-6.92,5.53-1.61,5.86,4.45.27,8.8,6.94,14,1.06,1.92-2.15,5.67-2.9,8.58-4.31,3.25-1.58,9.19-1.23,4.71-7.57-2.22-3.15,2.81-11.09-7.84-8.28-2.07.54-7.39-.74-9.67-5.28l12.87-2c-19.72-5.58-2.94-9.33-1.35-13.65l5.56-2.88c1.58-.51,4-.86,2.35-3C-149,98.93-150.5,101.14-151.95,101.69Zm56.6,9.51c6-3,13.45,4.87,17.84-4.6C-83.57,108.05-90.7,101.9-95.35,111.2Zm-58.45,225c-.63-1-.89-1.9-1.31-2a5,5,0,0,0-2.35.44c-1.29.45-1.31,1.17,0,1.48A17.36,17.36,0,0,0-153.8,336.23Z"/><path class="cls-3" d="M1679.85,927.21c13.92-1.47,26.71,8.63,41.22,3.33,1.71-.62,3.47,4,2.86,6.05-.67,2.27-3.3,4-4.93,6.1-14.8,18.94-14.61,19.72,6.33,31.9a50.35,50.35,0,0,1,6.6,4.93c14.72,12.17,20,11,28-6.47,6.87-15.09,6.58-32,14.35-46.92,1.21-2.32,1.81-4.86,5.26-5.5,4.63,3.42,3.18,8.8,4.61,13.2,2.9,8.91-.37,19.12,12.85,25.18,7.65,3.51,5.14,15.14,5,23.31-.26,12.25,0,23.84,15.19,29.19a5.92,5.92,0,0,1,3.06,4c2.84,15.36,17.06,25.15,22.53,39.31,2.21,5.72,6,10.92,5.17,17.31-3.5,27.58-12.18,52.37-38.33,69.86-14.53,9.71-26,22.9-36.29,36.51-6,8-12.78,13.58-23.55,15-4.53.61-9.61,2.09-13,4.74-9,7.09-15.22,4.24-21.36-4.35-8.18,14.34-18.95,4.2-28.23,2.36s-8.83-10.71-8.69-17.43c.2-10-8.51-18-6.21-28.21,2.57-1.24,2.6-3.09,1.44-5.21l-3.83,2.81-17.48,12.47c-3-1.38-3-3.67-3.23-5.8-1.85-20.42-10.79-29.2-32.49-25.18-23.94,4.43-50.4,3.64-70,21-3,2.68-7.22,2.76-10.78,2.18-16.4-2.67-30.56,3.17-44,10.2-9.75,5.1-16.12,1.16-22.59-4.42-4.25-3.67-4.62-8.46.48-11,10.71-5.32,11.45-14.51,11.67-23.57.23-9.54-1.47-19.12-1.61-28.69-.12-8-9.58-17,2.88-24.06.92-.52-1.23-5.54-1.84-8.48-2.78-13.45,4.11-23.45,16-31.51,16.19-11,34.23-15,53.25-18.17,10.48-1.73,16.63-9.07,21.17-17.79,3.16-6.07,1-19.36,16.75-11.58,1.66.82,9.73-6.42,12.43-11.1,3.91-6.76,9.3-11.55,15.73-15.91,7.22-4.91,13.22-5.19,19.61,1.69,6.93,7.47,12.32,6.27,16.21-3.41,2.42-6,7-11.31,10.53-17,1-1.67,3.22-4.12,2.66-5-1.6-2.55-10.22-2.5-3.35-7.74,2.17-1.65,6.76-2.24,9.47-1.34,6.49,2.18-3.28,6.43.76,9.56,5.38.47,7.05-2.81,8.09-6.76Z"/><path class="cls-3" d="M82.07,134.07c-6.28,0-15.32,5.25-17-3.72-.51-2.69,8.37-11.48,17.82-8.64l1.81,1.39c0-.59,0-1.17,0-1.76l-2,.8c2.47-3.39,1.67-5.83-2.91-5-4.37.75-8.32,1.6-12.63-1.93,10.4-7.19,10.27-17.62,6.18-26.71-4.7-10.44-16.63-10-27.07-9.35-7.85.45-15.62-.25-23.68,1.84-4.79,1.24-17.24,4-13-10.38,2.11-7.08-.6-7.66,12-9.65C34.35,58.89,47,55.5,62.7,56c-6.76-5.78-11.51-9.4-19-7.25-11.21,3.22-23.34,4.48-34,7.81-17.71,5.53-38.76,5-52.38,20.08-1.17,1.3-4.48,1.28-6.8,1.29-22,.09-44,0-66.14-1.17,9.7-2.85,19.72-4.24,27.08-11.83-6.16-2.24-11.83-.07-17.55,1-6.06,1.12-11.13,0-14.72-5.15-4.69-6.74-7.82-13.16,5.55-12.3,5.62.36,8.18-4.09,13.71-4.65C-94,43-88.17,40.83-82,47.34c3.22,3.42,9,3.29,13.54,0-.89-4.56-6.06-3.18-9.78-5.47,1.3-.68,1.85-1.2,2.46-1.26,24.89-2.5,49.74-5.43,74.68-7.27,29.6-2.18,60.27-5.51,88.66.81,31.65,7.06,62.52,4.4,93.29,2.36,24.13-1.59,48.49-4.66,72.66-7.63,21.93-2.69,43.35-.56,64.85,2.17,2.62.33,10.57-1.62,7.29,6.88-1.82,4.71,4,2.91,6.89,2.89,10.9-.07,21.8-.34,32.7-.2,5,.06,10.52-1,14.75,3.74-22.07,1.72-41.82,8.22-59.64,20,4,4.66,15.29,5.11,12.37,11.3-4.07,8.63-11.15-6.57-17.73.24,8,3.49,6.51,11.44,4.62,16.66-1.62,4.47-8.6,8-14,10.41-8.81,3.81-11.58,7.88-9.55,15.56,2.94,11.06-11,10.37-14.7,11.91-19.83,8.24-40.55,15.93-63.16,15.29-4.73-.13-8,2.48-11.16,4.67-13.15,9.18-27.51,13.93-44.19,15-9.63.63-20.56,3.6-23.31,14.71-1,4.11-4.43,4.11-7,5.47C120.73,191.81,113.78,202,107,212c-3.16,4.71-8.12,9.12-12,6.06-12.18-9.57-34.73-7.88-36.12-29.76-.72-11.29-5.52-22.87-2.76-33.94,1.83-7.31,7.17-15.77,18.91-14,4.6.67,8.53.6,10.61-4,2.5-2,5.52-4.41.72-6.44C82.88,128.39,81.79,131.12,82.07,134.07Z"/><path class="cls-3" d="M1687.21,840.66l15.3-4.23c-11.6.3-18.57-8-29.72-11.51,9.28-5,14.09-14.5,27.12-6.24,4.39,2.79,7.15,5.59,6.51,8.37-1.52,6.57,3,10.3,5.69,15,3.42,5.93,6.58,5,10.25.05,12.94-17.35,16.79-17.73,35.76-8.19a171.43,171.43,0,0,0,32.43,11.94c11.87,3.18,21.19,8.75,26.92,18.7,3.9,6.77,13.34,6.12,18.06,12.71-12.52,4-12.09,8.13-2,15.5,8.91,6.49,15.4,15.81,25.88,27-17.28-5.43-33.68-3.11-40.7-19.43-2.81-6.55-9.62-9.58-16.32-11.62-6-1.82-10.91.41-13.15,6.36-3.83,10.22-17.4,15.05-24.71,6.91-7.63-8.5-14.49-8.55-23.84-5.7-1.55.47-3.49-.14-6.42-.32,1.5-2.29,2-4.19,3.38-5,5.14-3.06,12.3-3.72,9.2-12.86-2.71-8-6.28-13.94-15-17-10.15-3.64-21.86-3.84-30.19-11.54a4.35,4.35,0,0,0-2.32-1.37C1692.69,848.2,1692.69,848.25,1687.21,840.66Z"/><path class="cls-3" d="M1559.63,803.6c-10.46-2.23-14.28.11-14.17,11.83.08,7.58-13.48,14.33-11.44,24.14,2,9.53-2.81,11.08-10.57,11.83a8.1,8.1,0,0,0-2.49,1.22c-6.5-14.35-22-7.1-32.5-9.7-21.4-5.33-17.47-22.85-24.34-34.33-6.13-10.25.65-15.08,14.07-12.28,2.58.53,5.61,1,5.92-1.34,2.08-15.57,20.94-15.9,29.25-27.14,5.5-7.43,15.76-13.83,21.39-23.05,2.92-4.78,8.58-.76,8.42.83-.93,9.17,19.59,7.09,11.91,16.37-10,12.06-11.49,22.84.64,34.42C1557.54,798.14,1560.81,799.21,1559.63,803.6Z"/><path class="cls-3" d="M891.67,974c-9.54,29-18.8,58.16-28.8,87.06-3.07,8.88-13.84,9-21.16,9.64-6.48.6-13.08-5.45-13.82-12.77-1.35-13.27-7.31-27.15,6.37-38.73,6-5,3-12.47,1.67-18.6-3.62-17-.46-22.59,17.07-27.93,18.39-5.6,23.1-21.95,32.57-35.44,9.16,8.24,10.12,19,11.62,29.5.56,3.91-1.13,6.81-5.76,7.62l-1.28-1.56-.3,1.51Z"/><path class="cls-3" d="M1398,795.66c3.1,3.9,3.18,10.9,12,8.77,3.19-.76,5.28,1.48,2.61,4.72-4.63,5.6-8.55,10.19,4.08,11.48,3.34.33,6.62,6.86,6.72,11.81.09,4.39,3.59,3.65,5.91,3.27,6-1,1.65-3.29.29-4.85-1.16-1.34-3-2.26-.86-4.1,1.8-1.54,3.94-1.13,4.78.4,2.66,4.78,11.7,12,9,12.68-17.2,4.19-6,17.15-10.72,24.54-2.91,4.56-8.11,8.43-13.64,3.39-14.33-13.1-27.68-26.48-37.18-43.72-10.91-19.82-20.26-41.75-43.49-53.66-3.54-1.81-6-5.51-8.72-8.53-1.85-2.07-3-4.94-1-7.14,2.54-2.83,5-.24,7.23,1.17,1.57,1,3.43,2.75,4.84,2.51,21.31-3.58,24.54,15.56,35.45,24.57,5.57,4.6,10,8.3,17.52,7.82l-.39-.26c-1.17,3,1.32,2.67,3.13,3l-.36-.33c.16,1.85.66,3.38,3.26,2.93Z"/><path class="cls-3" d="M444.47,302.88l-2.69,2.38a363.11,363.11,0,0,0-53.41,3c1.13-6.06,7.48-5.66,10.26-9.09-3-4-8.43-1.14-12.4-3.27,2-5.14,16-3.84,7.54-13a7.47,7.47,0,0,1,2.63-2.12c4.2-1,11.67-.13,9.55-6.19-1.75-5-4.86-13.15-14.71-7.33-.41-5.27,5.57-6.41,4-10.89-4-1.56-3.51,4.61-7.08,3.48-4.42-17.64,1.79-29.6,23.6-33.49.51,4.45-10.77,14.6,5.47,13.11,1.7-.16,2.36,3.21.69,4.13-15.78,8.72.55,14.3,3,20.48,2.29,5.77,12.35,8,9.92,17-.7,2.58,2.7,3.07,5.09,2.14,3.53-1.39,6.82-1.35,8.31,2.17,1.36,3.2-.68,5.81-3.56,7.82C430.88,300.09,441,300.4,444.47,302.88Zm-41.63-64.29a20.38,20.38,0,0,0,3.83.85c.32,0,.7-1.24,1.05-1.91a12.18,12.18,0,0,0-3.16-.71C404.05,236.83,403.58,237.79,402.84,238.59Z"/><path class="cls-3" d="M1610.34,469.25c10.64-8.5,17-20.18,35.19-13.82,10,3.5,2.15-8.18,5.92-12.06,1.87-1.93,0-2.9,3.78-2.39a8.62,8.62,0,0,0,8.87-4.48c3.68-7.16,6.2-14.55.51-22a29.29,29.29,0,0,1-5.16-10.3c-1.28-4.71,4.7-4.51,5.21-7.74-.29.63-1,1.72-.83,1.83a80.68,80.68,0,0,0,8.85,6c10.41,5.64,17,11.89,12.31,24.78-1.52,4.16,2.22,12,5,16.18,6.77,10.25,3.25,15.19-7.31,16.86-5.14.81-10.64,5.3-14.66,3.07-8.91-4.92-3.79,3.46-6,4.5-2.84,1.35-.79,6.89-5.84,6-3-.51-4.45-2.93-5.09-5.66-2.17-9.16-8.48-7.31-15-4.71C1623.4,470.47,1621.31,470.84,1610.34,469.25Z"/><path class="cls-3" d="M1619.87,793.66c-7,13.8-14.92,19.34-28.44,14.6-6.38-2.24-14.7-1.51-18.63,1.89-5.53,4.78,1.69,10.62,3.61,17.67,7.57-8.78,16.42-11.85,26.9-10.55,1.36,5.93-4.22,4.08-6.38,5.24-15.23,8.2-7.64,18.17-2.75,27.65,1.33,2.57,2.47,7.26.44,5.6-5.09-4.19-9.55,11.67-12.36-.43-.93-4-3.78-6.54-8.61-7.44-2.22,5.27-.69,10.42-.4,15.46s-3.21,6.16-7.19,5.9c-5.14-.34-4-4.48-3.15-7,1.92-6.07,4.55-11.21-5-14.67-4.25-1.55-2.41-7.29.15-10.52,5.09-6.45,5.59-14.13,7.74-21.38,1.56-5.3,4.52-9.27,8.33-13.78,6.5-7.69,10-1.54,15.11-.57C1599.45,803.26,1608.57,799.7,1619.87,793.66Zm-41.78,48.86c-1.33-.28.76-3.34-2.67-2.54a3.85,3.85,0,0,0-3.32,3.48c-.18,1.67-.06,3.54,2.16,3.75C1577.43,847.51,1577.45,845,1578.09,842.52Z"/><path class="cls-3" d="M886.09,76c-8.79,8.06-20,6.75-29.72,7.72-16,1.6-25.71,10.91-35.82,20.33-5.3,4.93-1.66,7.86,2.73,11.47s9.29,5.61,14.66,8.18c-9.48,1-18.93,2.67-28-2.06-.67-.35-1.13-2.23-1.23-2.2-6.8,2.22-15.9-2.08-15.74-4.58.38-6,4.2-12.57,8.63-17.35,11.14-12,24.3-20.84,43.24-18.84a30.71,30.71,0,0,0,18.71-3.74C870.82,70.66,878.16,71.38,886.09,76Z"/><path class="cls-3" d="M300.45,186.9c-11.86,0-17.26-6.42-27.54-17-4.83-5-5-5.18-.74-8.5,5.66-4.39,9.39-2.13,11.83,3.29,1,2.21,2.94,4.7,4.89,3.05,9.76-8.26,23-1.54,33.85-7.62,7.1-4,12.26,4.83,16,9.23s-4,6.06-6.68,7.11C321.54,180.68,310.47,183.71,300.45,186.9Z"/><path class="cls-3" d="M1597,689.84c1.87-8.41-4.89-11.69-10.32-13.58-3.09-1.07-10-8.09-13.25,1.57-1,2.8-2.44,2.58-4.4-.27-3.93-5.69-10.5-11.47-10.7-17.37a215.26,215.26,0,0,1,1.16-32.75c.6-4.9,10.52,1.93,16.43,1.6-.3,7,9.33,13.24,0,21.38-7.42,6.5-2.17,15.38,8.59,16.67A15.91,15.91,0,0,1,1597,689.84Z"/><path class="cls-3" d="M1513.05,894.22c-.4,2.88-.17,7.11-3.59,5.47-14.39-6.91-32.65,1.48-45.55-10-5.62-5-10.13,4.66-17.65-.12-4.92-3.13-10.57-7.25-16.72-9.51,1.12-2.33,1.63-6,3.48-6.75a25.57,25.57,0,0,1,22.72,2.21c8.08,5.11,15.31,6.93,24.68,3.07,2.74-1.13,7.8,1.28,11.2,3,6.29,3.26,9.35,12.47,19.48,8.78C1511.2,890.36,1512.53,893.18,1513.05,894.22Z"/><path class="cls-3" d="M378.94,260.7c1.44-.25,4.16,0,6,3.47,1.69,3.16,2.31,5.35-1.74,7.14-1.14.51-2.78,2.06-2.6,2.79,4.88,19.11-15.44,15.87-24.13,22.74-2.26,1.79-8.17,1.94-10.41-1.19-2.59-3.62.77-6.42,4.28-8.24,4.68-2.43,6-4-.48-6.13-3.61-1.19.28-4.57-.51-6.89C360.22,272.81,364.61,259.92,378.94,260.7Z"/><path class="cls-3" d="M1654.07,375c-.47-7.22-5.5-12.6-9.46-18.91,8-3.44,11.41,2.91,15.69,5.88,6.61,4.58,12.51,9.94,21.83,7.57,6.89-1.75,4.6,4.8,7.07,7.08,4.19,3.87-2.13,3.67-3.28,5.48-10.76,16.93-23.51-1.74-35,1.75-.76.23-6.77-3.77-.54-6.58l3.36,1C1653.88,377.22,1654,376.11,1654.07,375Z"/><path class="cls-3" d="M1631.34,739.18c-4.92,4.94-10.43,9.55-13.51,15.81-6.55-3.56-13.38-5.18-13.15-15.59.21-8.83-8.9,2.72-13.34-1.46-.81-.76-2.76,4.3-5,1.31-.85-1.16.76-3.87,1.25-5.87,7.05,2.48,8-16,18.66-4.49,1.59,1.72,9.17-7.62,9.65-9.27,3.27-11.18,7.42-1.21,8.11-.15C1627.86,725.31,1626.05,733,1631.34,739.18Z"/><path class="cls-3" d="M1055.66,58.94c-18.3,3.47-35.39-5.2-53.41-4.49-1.5.06-4.5-2.14-4.38-2.41,1-2.32,2-5.34,4-6.44a25.75,25.75,0,0,1,24.27.11c6.68,3.47,12.56,6.72,20.61,5.42C1052.94,50.13,1054.81,54.28,1055.66,58.94Z"/><path class="cls-3" d="M1176.14,721.22l2.85-6.6c10.7,2.68,22.43,16.64,22.38,26.18,0,7.37-6.34,10.12-11.8,11.13s-7.65-4.47-7.57-8.92c.09-5.45-4.24-10.47-.9-16.35C1182.63,724,1181.12,720.48,1176.14,721.22Z"/><path class="cls-3" d="M1382.12,88.88c-17.16.53-33.67,4.46-50.16-1.53-2.68-1-5.27-2.14-4.66-5.46.4-2.21,2.78-2.79,4.27-2.42,14.35,3.57,29.2,2.13,43.69,4C1377.69,83.77,1380.92,84.08,1382.12,88.88Z"/><path class="cls-3" d="M1602.34,297.09l.9-5.29c3.36,2.27,7,4.25,10,6.85,9.17,7.89,22.9,13.7,16.61,29.12-.43.47-.86.93-1.31,1.39C1617.41,320.15,1612.56,306.75,1602.34,297.09Z"/><path class="cls-3" d="M1841.8,868.16c10.34-5.36,26.41,3.22,31.27-12.78a6.43,6.43,0,0,1,3.69.39c.92.56,2,2.24,1.65,3-3.12,8.3-10.3,13.42-18.63,16C1852.66,877,1845.09,875.83,1841.8,868.16Z"/><path class="cls-3" d="M1465.4,614.27c-3.78,4.84,2,15.23-10.34,15.1-6.06-.06-11-3.29-9.92-8.39,1.29-6.21,6.3-10.68,14.51-10.92C1463.57,610,1466.3,609.5,1465.4,614.27Z"/><path class="cls-3" d="M1626.42,488.44c-.43,5.4,1.41,9.36-3.61,9.69-3.93.27-7.36-1.45-8.25-5.57-1.11-5.12.53-11.42-7.73-13.23-1.49-.33-1.3-3,0-4.54,1.93-2.24,4.12-3.19,7.26-1.68C1622,476.92,1628.15,481.66,1626.42,488.44Z"/><path class="cls-3" d="M1633.91,896.69c-12.51,5.25-22,15.59-38.19,20.39C1605.71,901.89,1616.94,894.52,1633.91,896.69Z"/><path class="cls-3" d="M1929.73,1048.86c-13.59-3-23.49-9-24.48-24.46C1916.5,1031.16,1924.22,1039.07,1929.73,1048.86Z"/><path class="cls-3" d="M1552.9,590.35c-3.46-8.2-8.25-16.17-4.67-25.66,1.13-3,3.14-5.68,7.11-4.9s2.55,4.05,2.59,6.4c.12,8,0,16,0,24Z"/><path class="cls-3" d="M1097.54,62.8c-10.17,1.32-18.7,2.5-27.24,3.52-3.44.41-6.91.4-6.3-4.33.4-3.05,1-6.79,5.49-5.65C1078.22,58.58,1088.35,55.77,1097.54,62.8Z"/><path class="cls-3" d="M1536.72,902.5c-3-1.61-9.85,4.17-9.48-3,.31-6.07,6.28-2.62,10-3,5.41-.56,10.38-3.7,16.26-2,1.92.56,3.76.85,3.64,2.88-.06,1-1.82,2.83-2.18,2.71C1548.34,897.83,1543.63,907,1536.72,902.5Z"/><path class="cls-3" d="M1670.74,850.13c-7.57-8.59-19.17,0-27-5.91C1655.73,836.08,1667.3,838.1,1670.74,850.13Z"/><path class="cls-3" d="M1629.87,327.77l21.47,17.58c-1.23,6.12-8.21-5.46-9.17,3.71-.53,5.15-3.93.06-4.53-1.06-3.29-6.16-6.1-12.54-9.08-18.84C1629,328.7,1629.44,328.24,1629.87,327.77Z"/><path class="cls-3" d="M1422.31,89c-11.44,5.17-21.82-.52-35.82-2.48C1400.85,83.39,1411.44,87.06,1422.31,89Z"/><path class="cls-3" d="M512.65,264.47c-2.95-2.09-.8-4.12.07-6.17,2.36-4.23,9.14,14.19,9.87-1.71.13-2.72,6.8-3.12,10.84-3.55q1.11,2.39,2.24,4.77C530.28,266.73,522.09,267.44,512.65,264.47Z"/><path class="cls-3" d="M1568.52,902.85c1.21-3.13-5.33-2.14-3.5-5.54,1.37-2.54,3.87-1.87,6.18-1.66l26,2.4c-9.59,3-18.91,5-28.72,4.53Z"/><path class="cls-3" d="M1397.73,102.6h-25.41C1378.11,94.2,1380.22,94.06,1397.73,102.6Z"/><path class="cls-3" d="M1685.83,119.83a9,9,0,0,1-9.52,1.44c-4.5-1.74-13.34,5.9-13-2.73.2-5.57,9.36-2.35,14.59-2.07C1680.48,116.61,1683.63,116,1685.83,119.83Z"/><path class="cls-3" d="M1633.81,484.35c-3.26-2.41-6.3-3.28-5.57-6.71,1.39-6.48,7.91-7.5,12.88-9.78,1.86-.85,5,2.08,4.09,4C1642.86,477.18,1634.76,477.62,1633.81,484.35Z"/><path class="cls-3" d="M1568.44,902.58c-1.83,2.94,1.11,3.54,2.77,4.71,2.37,1.66,4.67,3.38,1.84,6.2s-6.08,2.61-7.72-1c-1.86-4.1-7.46-2.37-9.48-5.37,2.78-6,10.3,2.19,12.69-4.26A2.52,2.52,0,0,1,1568.44,902.58Z"/><path class="cls-3" d="M1596.85,283.48l-5.66,1.08c-1.74-.2-3.31-2.89-5.24-.3l.24.32c3.31-.87-1.61-5.2,2.79-5.63C1592.9,278.57,1595,280.81,1596.85,283.48Z"/><path class="cls-3" d="M1885.25,853.44c3.23,1.1,3.8,3,2,5.64l-4.29-4.19A13.68,13.68,0,0,0,1885.25,853.44Z"/><path class="cls-3" d="M1869.24,842.14l-1.92-3.4c1.87-.64,3.22-.36,3.58,1.7A15.67,15.67,0,0,0,1869.24,842.14Z"/><path class="cls-3" d="M1873.69,843.11c2.29.86,3.73,2.08,2.25,4.53l-3.83-2.91A14.21,14.21,0,0,0,1873.69,843.11Z"/><path class="cls-3" d="M613.89,122.59c1.5-.77,3.07-1.49,4.24.26.13.18-1.42,1.32-2.2,2Z"/><path class="cls-3" d="M1883,854.89c-1-1.19-2.83-2.46-.13-3.57.38-.16,1.58,1.37,2.4,2.12A13.68,13.68,0,0,1,1883,854.89Z"/><path class="cls-3" d="M1870.9,840.44c2,0,2.88.88,2.79,2.67a14.21,14.21,0,0,1-1.58,1.62l-2.87-2.59A15.67,15.67,0,0,1,1870.9,840.44Z"/><path class="cls-4" d="M1680.18,927l-1.74-.77,1-.61c.12.55.25,1.1.37,1.64Z"/><path class="cls-3" d="M567.85,429.51c-2,1-4.66,1.48-5.78,3-9.59,12.83-12.38,12.81-28.36-1.82,11.08.29,21.15.24,30.44-3.79Z"/><path class="cls-3" d="M499.54,421.77c-3.94-4.11-.22-8.78-2.38-12.66-3.77-6.8,3.54-7.09,6.88-9.58,2.53-1.89,4.94.23,4.8,1.91-.44,5.61,4.1,11.75-1.2,16.73C505.65,420,502.23,420.63,499.54,421.77Z"/><path class="cls-3" d="M629.05,430.74c-.27,5,6.81,13.39-7.67,11.48-6.45-.85-8.62-4.48-8.55-7.79.14-6,6.34-2.48,9.84-3.23,2.16-.46,4.52-.08,6.79-.09Z"/><path class="cls-3" d="M578.2,407.64c1.26-1.48,2.08-3.15,2.75-3.1,3,.2,4.41,2.51,5.33,4.77.27.67-1,1.87-1.62,2.83Z"/><rect class="cls-1" x="-0.03" y="-0.02" width="1920.1" height="1080.12"/></g></svg>