<?xml version="1.0" standalone="no"?>
<!DOCTYPE svg PUBLIC "-//W3C//DTD SVG 20010904//EN"
 "http://www.w3.org/TR/2001/REC-SVG-20010904/DTD/svg10.dtd">
<svg version="1.0" xmlns="http://www.w3.org/2000/svg"
 width="1024.000000pt" height="1024.000000pt" viewBox="0 0 1024.000000 1024.000000"
 preserveAspectRatio="xMidYMid meet">
<metadata>
Created by potrace 1.11, written by Peter Selinger 2001-2013
</metadata>
<g transform="translate(0.000000,1024.000000) scale(0.100000,-0.100000)"
fill="#000000" stroke="none">
<path d="M0 8925 l0 -1315 41 0 c55 0 74 -13 115 -76 l35 -54 249 0 249 0 35
54 c19 30 44 60 55 65 21 12 159 15 185 5 9 -4 66 -75 126 -160 61 -84 117
-160 126 -168 12 -13 40 -16 133 -16 110 0 119 -1 139 -23 12 -13 22 -31 22
-41 0 -10 -34 -67 -76 -127 l-75 -109 80 0 81 0 0 -220 0 -220 -760 0 -760 0
0 -1400 0 -1400 898 0 898 0 43 -65 c86 -132 236 -256 405 -336 l81 -38 -1162
-1 -1163 0 0 -1640 0 -1640 5120 0 5120 0 0 1640 0 1640 -1655 0 c-910 0
-1655 2 -1655 5 0 3 39 102 86 220 l86 215 744 2 744 3 -66 95 c-90 128 -92
134 -67 168 l20 27 775 3 c674 2 777 4 788 17 10 12 10 18 0 30 -11 13 -97 15
-629 17 -555 3 -616 5 -615 19 1 17 157 237 182 256 20 16 162 17 195 2 13 -6
31 -26 41 -44 43 -78 29 -75 301 -75 l244 0 40 59 c22 32 47 61 56 65 9 3 52
6 95 6 59 0 83 -4 99 -17 11 -10 59 -71 106 -137 l85 -119 0 1212 0 1211
-1480 0 -1480 0 0 220 0 220 1480 0 1480 0 0 1640 0 1640 -5120 0 -5120 0 0
-1315z m5212 -815 c556 -114 980 -539 1099 -1103 18 -81 22 -136 22 -267 0
-131 -4 -186 -22 -267 -120 -566 -538 -984 -1104 -1104 -145 -31 -389 -31
-534 0 -422 89 -778 354 -966 718 -50 96 -97 213 -97 238 0 13 39 15 278 15
l277 0 40 -76 c122 -233 334 -398 580 -451 99 -21 286 -13 380 17 292 93 506
329 597 658 18 65 22 104 22 252 0 148 -4 187 -22 252 -91 329 -305 565 -597
658 -94 30 -281 38 -380 17 -246 -53 -458 -218 -580 -451 l-40 -76 -277 0
c-239 0 -278 2 -278 15 0 25 47 142 97 238 207 400 625 685 1086 737 105 12
307 2 419 -20z m-1492 -30 c0 -5 -39 -107 -86 -225 l-86 -215 -599 0 c-661 0
-650 1 -689 -62 -19 -31 -20 -50 -20 -320 l0 -288 515 0 c405 0 515 -3 515
-12 0 -16 -160 -419 -173 -435 -7 -10 -106 -13 -433 -13 l-424 0 0 -560 0
-560 -270 0 -270 0 2 1223 3 1222 27 50 c46 88 126 150 238 186 51 17 119 18
903 18 557 1 847 -2 847 -9z m4122 -4 c207 -40 412 -172 527 -339 45 -67 105
-199 125 -277 20 -76 32 -232 22 -284 l-7 -36 -270 2 -270 3 -2 120 c-2 107
-5 126 -29 178 -39 83 -78 128 -140 163 l-53 29 -322 3 -323 3 0 -1125 0
-1126 -270 0 -270 0 2 1223 3 1222 27 50 c29 55 96 123 149 151 99 52 114 53
586 53 340 1 458 -2 515 -13z m-2245 -1176 c14 -71 14 -249 0 -320 l-12 -55
-1142 -3 c-629 -1 -1143 1 -1143 6 0 4 34 93 76 197 42 105 80 200 85 213 l9
22 1057 -2 1058 -3 12 -55z m2845 -1035 c103 -258 188 -471 188 -472 0 -2
-125 -3 -278 -3 l-278 0 -187 468 c-103 257 -187 471 -187 475 0 4 125 6 277
5 l277 -3 188 -470z m-5326 -975 c247 -20 452 -64 662 -142 65 -24 82 -34 77
-47 -51 -141 -172 -431 -180 -431 -5 0 -64 22 -130 48 -213 87 -390 122 -608
122 -203 0 -339 -37 -426 -116 -64 -57 -85 -105 -85 -194 -1 -179 92 -238 556
-356 469 -118 626 -189 786 -351 260 -266 242 -728 -41 -1021 -299 -310 -841
-381 -1542 -202 -144 37 -371 112 -387 128 -7 7 154 427 171 444 3 4 64 -15
133 -42 169 -66 334 -115 476 -142 95 -18 153 -22 312 -22 172 0 202 2 257 21
177 59 255 168 257 358 1 117 -19 159 -105 215 -81 52 -187 89 -451 156 -469
118 -626 189 -786 351 -121 124 -181 278 -182 463 -1 365 313 664 780 744 161
27 265 31 456 16z m4127 -5 c126 -26 251 -114 313 -220 27 -48 304 -731 304
-752 0 -10 -59 -13 -274 -13 l-274 0 -82 206 c-52 130 -86 201 -91 193 -4 -8
-134 -331 -288 -717 -155 -387 -302 -745 -328 -795 -189 -376 -468 -591 -864
-663 -127 -23 -409 -24 -534 -1 -288 52 -498 157 -661 330 -41 44 -95 113
-118 154 -72 123 -126 310 -126 441 l0 52 269 0 269 0 7 -67 c10 -101 24 -151
63 -226 41 -80 100 -136 186 -177 117 -55 173 -65 376 -65 176 1 189 2 263 28
173 60 282 168 392 386 20 41 177 424 347 850 170 427 321 798 336 825 59 108
189 204 315 231 81 18 118 18 200 0z m-1003 -45 c0 -5 -39 -107 -86 -225 l-86
-215 -599 0 c-661 0 -650 1 -689 -62 -18 -30 -20 -50 -20 -235 l0 -203 -270 0
-271 0 3 348 3 347 27 50 c46 88 126 150 238 186 51 17 119 18 903 18 557 1
847 -2 847 -9z m-90 -1125 c0 -3 -39 -102 -86 -220 l-86 -215 -952 0 -952 0
-29 62 c-59 124 -171 251 -295 334 l-65 44 1233 0 c677 0 1232 -2 1232 -5z
m2176 -955 c74 -184 159 -397 188 -472 l54 -138 -278 0 -278 0 -186 465 c-102
256 -186 470 -186 475 0 7 94 9 276 8 l276 -3 134 -335z"/>
<path d="M0 7465 l0 -105 479 0 c469 0 479 0 505 -21 35 -28 35 -70 0 -98 -26
-21 -36 -21 -505 -21 l-479 0 0 -130 0 -130 658 0 659 0 78 114 c49 72 76 120
72 130 -5 13 -26 16 -126 16 -99 0 -122 3 -139 18 -11 9 -68 85 -128 167 -59
83 -112 153 -118 157 -6 4 -46 8 -89 8 l-77 0 -35 -55 c-19 -30 -44 -59 -54
-65 -26 -14 -496 -14 -522 0 -10 6 -35 35 -54 65 -34 53 -36 55 -80 55 l-45 0
0 -105z"/>
<path d="M0 7290 l0 -30 483 2 482 3 0 25 0 25 -482 3 -483 2 0 -30z"/>
<path d="M8995 4323 c-12 -9 -145 -191 -145 -198 0 -3 268 -5 595 -5 582 0
595 0 615 -20 24 -24 26 -72 4 -94 -8 -9 -16 -17 -17 -18 -1 -2 -353 -5 -782
-8 -739 -5 -780 -6 -780 -23 0 -10 34 -67 75 -127 l75 -110 803 0 802 0 0 158
0 157 -106 148 -105 147 -84 0 -84 0 -35 -54 c-19 -30 -44 -60 -55 -65 -30
-16 -502 -15 -524 2 -9 6 -32 35 -50 62 l-32 50 -80 3 c-44 1 -85 -1 -90 -5z"/>
</g>
</svg>
