<svg id="Layer_1" data-name="Layer 1" xmlns="http://www.w3.org/2000/svg" viewBox="0 0 279.31 411"><defs><style>.cls-1{fill:#0e7474;}.cls-2{fill:#73c09d;}</style></defs><title>skilt1</title><path class="cls-1" d="M19,8H260.27s9-2.87,7.54,15.57l.5,102.43s4,6-12.06,8-232.42-1.5-232.42-1.5-8.52,8.5-10.32-14.81c-1.92-24.74-.33-97.16-.33-97.16S9,11,19,8Z"/><rect class="cls-2" x="138.31" y="134" width="7" height="271"/><path class="cls-2" d="M259.81,135.5h-237a11,11,0,0,1-11-11V16.5a11,11,0,0,1,11-11h237a11,11,0,0,1,11,11v108A11,11,0,0,1,259.81,135.5Zm-237-127a8,8,0,0,0-8,8v108a8,8,0,0,0,8,8h237a8,8,0,0,0,8-8V16.5a8,8,0,0,0-8-8Z"/><polygon class="cls-2" points="221.28 100.67 213.29 92 205.3 100.67 197.31 109.33 197.31 133 229.26 133 229.26 109.33 221.28 100.67"/><polygon class="cls-2" points="108.81 95.93 104.31 86 99.81 95.93 95.31 105.87 95.31 133 113.31 133 113.31 105.87 108.81 95.93"/><polygon class="cls-2" points="186.31 114.89 181.31 110.04 176.31 114.89 171.31 119.74 171.31 133 191.31 133 191.31 119.74 186.31 114.89"/><rect class="cls-2" x="51.31" y="119.56" width="33" height="13.44"/><polygon class="cls-2" points="84.29 119.56 76.04 114.78 67.8 110 59.55 114.78 51.31 119.56 67.8 119.56 84.29 119.56"/><rect class="cls-2" x="81.31" y="126" width="16" height="7"/><polygon class="cls-2" points="153.86 109 132.31 109 128 112.45 128 134 157.31 134 157.31 112.45 153.86 109"/><path class="cls-2" d="M63,70.87V45.81H68v9.86h9.91V45.81H83V70.87H77.94v-11H68v11Z"/><path class="cls-2" d="M98.7,65.09l4.79.8a7.91,7.91,0,0,1-2.91,4,8.56,8.56,0,0,1-5,1.38c-3.15,0-5.49-1-7-3.1a10.35,10.35,0,0,1-1.8-6.25,10,10,0,0,1,2.36-7.07,7.77,7.77,0,0,1,6-2.55A8.06,8.06,0,0,1,101.51,55c1.56,1.79,2.3,4.52,2.24,8.2h-12a4.83,4.83,0,0,0,1.16,3.32,3.64,3.64,0,0,0,2.77,1.19,2.92,2.92,0,0,0,1.89-.62A3.74,3.74,0,0,0,98.7,65.09ZM99,60.24a4.61,4.61,0,0,0-1.08-3.17A3.27,3.27,0,0,0,95.41,56a3.32,3.32,0,0,0-2.6,1.15,4.45,4.45,0,0,0-1,3.11Z"/><path class="cls-2" d="M107.66,70.87V45.81h4.8V70.87Z"/><path class="cls-2" d="M115.69,65.69l4.82-.74a3.52,3.52,0,0,0,1.25,2.13,4.18,4.18,0,0,0,2.63.73,4.78,4.78,0,0,0,2.8-.68,1.52,1.52,0,0,0,.64-1.29,1.25,1.25,0,0,0-.35-.9,3.84,3.84,0,0,0-1.6-.64c-3.88-.85-6.33-1.63-7.37-2.34a4.68,4.68,0,0,1-2.15-4.08,5.06,5.06,0,0,1,1.86-4q1.86-1.6,5.78-1.6a10,10,0,0,1,5.53,1.21,6.23,6.23,0,0,1,2.5,3.59L127.5,58a2.8,2.8,0,0,0-1.1-1.63,4.08,4.08,0,0,0-2.32-.56,5.21,5.21,0,0,0-2.71.53,1.13,1.13,0,0,0-.55,1,1,1,0,0,0,.48.87,18.2,18.2,0,0,0,4.48,1.36,13.37,13.37,0,0,1,5.36,2.13,4.47,4.47,0,0,1,1.51,3.57,5.47,5.47,0,0,1-2.09,4.29q-2.09,1.8-6.17,1.8a10.07,10.07,0,0,1-5.87-1.51A6.94,6.94,0,0,1,115.69,65.69Z"/><path class="cls-2" d="M136.85,50.26V45.81h4.8v4.45Zm0,20.61V52.72h4.8V70.87Z"/><path class="cls-2" d="M163.08,70.87h-4.8V61.6a14.12,14.12,0,0,0-.31-3.8,2.67,2.67,0,0,0-1-1.34,2.83,2.83,0,0,0-1.66-.48,3.81,3.81,0,0,0-2.24.69,3.37,3.37,0,0,0-1.36,1.81,15.39,15.39,0,0,0-.37,4.17v8.22h-4.8V52.72H151v2.66a7.46,7.46,0,0,1,8.89-2.5,4.92,4.92,0,0,1,2,1.46,5.36,5.36,0,0,1,.94,2,15.5,15.5,0,0,1,.26,3.23Z"/><path class="cls-2" d="M167.51,72.06l5.48.67a1.92,1.92,0,0,0,.64,1.32,3.6,3.6,0,0,0,2.15.51A5.56,5.56,0,0,0,178.6,74a2.33,2.33,0,0,0,1-1.21,7.57,7.57,0,0,0,.22-2.2V67.93a6.51,6.51,0,0,1-5.44,2.94,6.68,6.68,0,0,1-5.79-3.1,10.47,10.47,0,0,1-1.67-6.08c0-3,.73-5.37,2.19-7a7.09,7.09,0,0,1,5.46-2.41,6.65,6.65,0,0,1,5.56,2.95V52.72h4.49V69a16.36,16.36,0,0,1-.53,4.81,5.85,5.85,0,0,1-1.49,2.49A6.37,6.37,0,0,1,180,77.72a13.52,13.52,0,0,1-4,.51c-3.08,0-5.26-.52-6.55-1.58a5,5,0,0,1-1.93-4C167.49,72.48,167.5,72.29,167.51,72.06Zm4.29-10.64a6.54,6.54,0,0,0,1.12,4.23A3.45,3.45,0,0,0,175.68,67a3.81,3.81,0,0,0,3-1.38,6,6,0,0,0,1.21-4.07,6.33,6.33,0,0,0-1.16-4.19A3.69,3.69,0,0,0,175.76,56a3.54,3.54,0,0,0-2.84,1.34A6.29,6.29,0,0,0,171.8,61.42Z"/><path class="cls-2" d="M203,53.79l1.77-2,1.92,1.58-1.85,2.12a9,9,0,0,1,1.62,2.87,10.54,10.54,0,0,1,.59,3.5,9.22,9.22,0,0,1-2.69,6.77,9.08,9.08,0,0,1-6.73,2.7,9.72,9.72,0,0,1-5.25-1.44l-2,2.28-1.88-1.63,2-2.29a9.4,9.4,0,0,1-1.61-3,10.69,10.69,0,0,1-.59-3.54,9,9,0,0,1,9.35-9.38A9.6,9.6,0,0,1,203,53.79Zm-2.7,3.11a4.07,4.07,0,0,0-2.6-.92,4.23,4.23,0,0,0-3.27,1.49,6,6,0,0,0-1.34,4.17,9,9,0,0,0,.47,3ZM201.76,59l-6.7,7.74a4.44,4.44,0,0,0,5.88-.66,5.94,5.94,0,0,0,1.33-4.14A8.18,8.18,0,0,0,201.76,59Z"/><path class="cls-2" d="M215.31,70.87h-4.8V52.72H215V55.3A7.73,7.73,0,0,1,217,52.89a3.76,3.76,0,0,1,2.07-.58,6.09,6.09,0,0,1,3.16.9l-1.48,4.19a4.26,4.26,0,0,0-2.26-.79,2.68,2.68,0,0,0-1.71.56,3.86,3.86,0,0,0-1.1,2,28.36,28.36,0,0,0-.4,6.08Z"/></svg>