<svg id="Layer_1" data-name="Layer 1" xmlns="http://www.w3.org/2000/svg" viewBox="0 0 279.31 349"><defs><style>.cls-1{fill:#0e7474;}.cls-2{fill:#73c09d;}</style></defs><title>flag1</title><path class="cls-1" d="M21.31,156s1,7,20,10-12-10-12-10h-7"/><rect class="cls-2" x="11.81" y="145" width="4" height="195"/><path class="cls-1" d="M19,31.68c80.41,40.4,160.83-46.77,241.24-8.23,0-.16,9,1.87,7.54,19.56q.24,51.36.5,102.73c0,.35,4,7.57-12.06,1.89-4-1-20.56-8.52-43.1-7.58-22.55-.08-51.1,8.33-79.14,15.74s-55.59,14-76.13,11.73c-20.53-1.06-34.05-10.84-34.05-9.08,0,.13-8.52,4.47-10.32-20.05C11.59,112.53,13.18,41,13.18,41S9,29.29,19,31.68Z"/><path class="cls-2" d="M259.81,149.69c-79-36-158,47.59-237,11.62-6.07-2.75-11-10.75-11-16.81V36.5c0-6.08,4.94-7.94,11-5.19,79,36,158-47.59,237-11.62,6.07,2.75,11,10.75,11,16.81v108C270.81,150.58,265.88,152.44,259.81,149.69ZM22.81,34.31c-4.41-2-8-.48-8,3.93v108c0,4.41,3.59,10.07,8,12.07,79,36,158-47.59,237-11.62,4.41,2,8,.48,8-3.93v-108c0-4.41-3.59-10.07-8-12.07C180.81-13.28,101.81,70.28,22.81,34.31Z"/><path class="cls-2" d="M48,101.39V71.29c2,.5,4.05.94,6.08,1.35V84.48c4,.79,7.93,1.41,11.9,1.89V74.52c2,.24,4,.45,6.08.62v30.09c-2-.17-4-.37-6.08-.61V91.46c-4-.48-7.93-1.1-11.9-1.89v13.16C52,102.33,50,101.88,48,101.39Z"/><path class="cls-2" d="M90.89,98.93q2.88.45,5.75.84a9.66,9.66,0,0,1-3.5,4.9,9.94,9.94,0,0,1-6,1.7c-3.79,0-6.6-1.37-8.42-3.93a13,13,0,0,1-2.15-7.62c0-3.62.94-6.39,2.83-8.35a9.38,9.38,0,0,1,7.16-2.89,9.86,9.86,0,0,1,7.68,3.15q2.82,3.13,2.69,9.76c-4.82.17-9.63.21-14.45.07a6,6,0,0,0,1.39,4,4.38,4.38,0,0,0,3.33,1.47,3.45,3.45,0,0,0,2.28-.74A4.56,4.56,0,0,0,90.89,98.93Zm.33-5.83a5.51,5.51,0,0,0-1.29-3.8,4,4,0,0,0-3-1.3,4,4,0,0,0-3.12,1.33A5.24,5.24,0,0,0,82.6,93C85.47,93.11,88.35,93.13,91.22,93.1Z"/><path class="cls-2" d="M101.65,105.53V75.43c1.92-.1,3.85-.22,5.77-.35v30.09C105.5,105.31,103.57,105.43,101.65,105.53Z"/><path class="cls-2" d="M111.3,98.66q2.9-.68,5.79-1.38a3.72,3.72,0,0,0,1.5,2.41,4.69,4.69,0,0,0,3.16.55,6.11,6.11,0,0,0,3.36-1.17,2.06,2.06,0,0,0,.76-1.63,1.35,1.35,0,0,0-.41-1,4.22,4.22,0,0,0-1.93-.55c-4.65-.53-7.6-1.21-8.84-1.95a5.07,5.07,0,0,1-2.59-4.68,6.62,6.62,0,0,1,2.24-5q2.23-2.12,6.94-2.59c3-.3,5.2-.06,6.65.75a6.36,6.36,0,0,1,3,4L125.48,88a2.88,2.88,0,0,0-1.32-1.8,4.56,4.56,0,0,0-2.78-.39,6.86,6.86,0,0,0-3.27,1,1.53,1.53,0,0,0-.65,1.23,1.14,1.14,0,0,0,.57,1c.52.34,2.32.71,5.39,1.08s5.22,1,6.44,1.86a4.75,4.75,0,0,1,1.8,4.08,7.45,7.45,0,0,1-2.5,5.44q-2.5,2.44-7.41,3a11.21,11.21,0,0,1-7-1.13A7.34,7.34,0,0,1,111.3,98.66Z"/><path class="cls-2" d="M136.71,77.47V72.13l5.77-.7v5.34Zm0,24.76V80.43l5.77-.7v21.8Z"/><path class="cls-2" d="M168.22,98.58l-5.77.6V88.05a16.6,16.6,0,0,0-.37-4.53,2.74,2.74,0,0,0-1.2-1.48,3.17,3.17,0,0,0-2-.35,5.2,5.2,0,0,0-2.69,1.13,4.91,4.91,0,0,0-1.63,2.37,19.6,19.6,0,0,0-.44,5.06v9.87l-5.77.69V79l5.36-.64v3.2a10,10,0,0,1,7.18-4.52,8.13,8.13,0,0,1,3.49.32,5,5,0,0,1,2.4,1.51,5.56,5.56,0,0,1,1.12,2.3,17.14,17.14,0,0,1,.32,3.85Z"/><path class="cls-2" d="M173.54,99.53c2.2.08,4.39.17,6.59.29a2.07,2.07,0,0,0,.76,1.52,4.16,4.16,0,0,0,2.58.46,7.07,7.07,0,0,0,3.39-.86A3,3,0,0,0,188,99.43a8.79,8.79,0,0,0,.27-2.66V93.59a8.44,8.44,0,0,1-6.53,3.88,7.51,7.51,0,0,1-7-3.2,11.85,11.85,0,0,1-2-7.14q0-5.47,2.64-8.6A9.09,9.09,0,0,1,182,75.16a7.44,7.44,0,0,1,6.67,3.2v-3c1.8-.08,3.6-.13,5.4-.17V94.7a19.75,19.75,0,0,1-.64,5.78,7.33,7.33,0,0,1-1.79,3,8.34,8.34,0,0,1-3.06,1.81,17.47,17.47,0,0,1-4.86.86c-3.69.21-6.32-.21-7.86-1.35a5.43,5.43,0,0,1-2.32-4.62C173.52,100,173.52,99.8,173.54,99.53Zm5.15-13.2q0,3.47,1.35,5a3.88,3.88,0,0,0,3.31,1.4,4.88,4.88,0,0,0,3.57-1.84,7.49,7.49,0,0,0,1.46-5c0-2.26-.46-3.92-1.4-5a4.13,4.13,0,0,0-3.53-1.45A4.5,4.5,0,0,0,180,81.32,7.92,7.92,0,0,0,178.69,86.33Z"/><path class="cls-2" d="M216.15,77.11l2.14-2.26,2.3,2.14-2.22,2.3A12.47,12.47,0,0,1,220.31,83a13.25,13.25,0,0,1,.71,4.28A10,10,0,0,1,217.8,95a10.69,10.69,0,0,1-8.09,2.64,12.65,12.65,0,0,1-6.3-2l-2.36,2.7-2.26-2c.79-.92,1.59-1.83,2.38-2.74a11.5,11.5,0,0,1-1.94-3.58,13.16,13.16,0,0,1-.71-4.25,10.9,10.9,0,0,1,3.15-8.08,10.2,10.2,0,0,1,8.08-2.92A11.58,11.58,0,0,1,216.15,77.11Zm-3.24,3.48a5.06,5.06,0,0,0-3.12-1.3,4.78,4.78,0,0,0-3.93,1.62,7,7,0,0,0-1.61,5,11.13,11.13,0,0,0,.57,3.67Q208.87,85,212.91,80.59Zm1.77,2.64q-4,4.32-8.05,8.83a5.45,5.45,0,0,0,3.1,1.12,4.86,4.86,0,0,0,4-1.52,6.69,6.69,0,0,0,1.6-4.85A10.16,10.16,0,0,0,214.68,83.23Z"/><path class="cls-2" d="M231,99.6q-2.9-.52-5.77-.94V76.86c1.78.26,3.57.55,5.35.87v3.1A7,7,0,0,1,233,78.4a4,4,0,0,1,2.49-.18,8.78,8.78,0,0,1,3.8,2c-.6,1.53-1.19,3.07-1.79,4.61a6.21,6.21,0,0,0-2.71-1.55,2.79,2.79,0,0,0-2.05.25,3.59,3.59,0,0,0-1.32,2.16,33.07,33.07,0,0,0-.48,7.22Z"/></svg>