<svg id="Layer_1" data-name="Layer 1" xmlns="http://www.w3.org/2000/svg" viewBox="0 0 279.31 411"><defs><style>.cls-1{fill:#0e7474;}.cls-2{fill:#73c09d;}</style></defs><title>skilt2</title><path class="cls-1" d="M19,8H260.27s9-2.87,7.54,15.57l.5,102.43s4,6-12.06,8-232.42-1.5-232.42-1.5-8.52,8.5-10.32-14.81c-1.92-24.74-.33-97.16-.33-97.16S9,11,19,8Z"/><rect class="cls-2" x="138.31" y="134" width="7" height="271"/><path class="cls-2" d="M259.81,135.5h-237a11,11,0,0,1-11-11V16.5a11,11,0,0,1,11-11h237a11,11,0,0,1,11,11v108A11,11,0,0,1,259.81,135.5Zm-237-127a8,8,0,0,0-8,8v108a8,8,0,0,0,8,8h237a8,8,0,0,0,8-8V16.5a8,8,0,0,0-8-8Z"/><polygon class="cls-2" points="221.28 100.67 213.29 92 205.3 100.67 197.31 109.33 197.31 133 229.26 133 229.26 109.33 221.28 100.67"/><polygon class="cls-2" points="108.81 95.93 104.31 86 99.81 95.93 95.31 105.87 95.31 133 113.31 133 113.31 105.87 108.81 95.93"/><polygon class="cls-2" points="186.31 114.89 181.31 110.04 176.31 114.89 171.31 119.74 171.31 133 191.31 133 191.31 119.74 186.31 114.89"/><rect class="cls-2" x="51.31" y="119.56" width="33" height="13.44"/><polygon class="cls-2" points="84.29 119.56 76.04 114.78 67.8 110 59.55 114.78 51.31 119.56 67.8 119.56 84.29 119.56"/><rect class="cls-2" x="81.31" y="126" width="16" height="7"/><polygon class="cls-2" points="153.86 109 132.31 109 128 112.45 128 134 157.31 134 157.31 112.45 153.86 109"/><path class="cls-2" d="M43.26,67.76V42.71h5.06v9.86h9.91V42.71h5.06V67.76H58.23v-11H48.32v11Z"/><path class="cls-2" d="M79,62l4.79.81a7.88,7.88,0,0,1-2.91,4,8.56,8.56,0,0,1-5,1.38c-3.15,0-5.49-1-7-3.09a10.4,10.4,0,0,1-1.8-6.26,10,10,0,0,1,2.36-7.07,7.77,7.77,0,0,1,6-2.55,8.06,8.06,0,0,1,6.39,2.67c1.56,1.79,2.3,4.52,2.24,8.2H72a4.89,4.89,0,0,0,1.17,3.32,3.64,3.64,0,0,0,2.77,1.19A2.87,2.87,0,0,0,77.83,64,3.74,3.74,0,0,0,79,62Zm.28-4.85A4.66,4.66,0,0,0,78.19,54a3.3,3.3,0,0,0-2.49-1.09A3.35,3.35,0,0,0,73.1,54a4.4,4.4,0,0,0-1,3.11Z"/><path class="cls-2" d="M88,67.76V42.71h4.8V67.76Z"/><path class="cls-2" d="M96,62.58l4.82-.73A3.52,3.52,0,0,0,102.05,64a4.18,4.18,0,0,0,2.63.73,4.78,4.78,0,0,0,2.8-.68,1.55,1.55,0,0,0,.64-1.29,1.25,1.25,0,0,0-.35-.9,3.73,3.73,0,0,0-1.6-.63c-3.88-.86-6.33-1.64-7.37-2.35a4.67,4.67,0,0,1-2.15-4.08,5,5,0,0,1,1.86-4q1.86-1.61,5.78-1.61a10,10,0,0,1,5.53,1.21,6.23,6.23,0,0,1,2.5,3.59l-4.53.84a2.75,2.75,0,0,0-1.1-1.62,4,4,0,0,0-2.32-.57,5.21,5.21,0,0,0-2.71.53,1.14,1.14,0,0,0-.55,1,1.06,1.06,0,0,0,.48.87,17.91,17.91,0,0,0,4.48,1.35,13.37,13.37,0,0,1,5.36,2.13,4.46,4.46,0,0,1,1.5,3.57,5.46,5.46,0,0,1-2.08,4.29q-2.09,1.8-6.17,1.8a10.14,10.14,0,0,1-5.87-1.5A7,7,0,0,1,96,62.58Z"/><path class="cls-2" d="M117.14,47.15V42.71h4.8v4.44Zm0,20.61V49.61h4.8V67.76Z"/><path class="cls-2" d="M143.37,67.76h-4.8V58.5a14.16,14.16,0,0,0-.31-3.81,2.67,2.67,0,0,0-1-1.34,2.83,2.83,0,0,0-1.66-.48,3.81,3.81,0,0,0-2.24.69A3.41,3.41,0,0,0,132,55.37a15.39,15.39,0,0,0-.37,4.17v8.22h-4.8V49.61h4.46v2.67a7.45,7.45,0,0,1,8.89-2.51,4.92,4.92,0,0,1,2,1.46,5.43,5.43,0,0,1,.94,2,15.5,15.5,0,0,1,.26,3.23Z"/><path class="cls-2" d="M147.8,69l5.48.66a1.88,1.88,0,0,0,.64,1.32,3.6,3.6,0,0,0,2.15.51,5.68,5.68,0,0,0,2.82-.56,2.36,2.36,0,0,0,1-1.22,7.57,7.57,0,0,0,.22-2.2V64.82a6.51,6.51,0,0,1-5.44,2.94,6.69,6.69,0,0,1-5.79-3.09,10.5,10.5,0,0,1-1.67-6.09q0-4.56,2.19-7a7.09,7.09,0,0,1,5.46-2.41,6.63,6.63,0,0,1,5.56,3V49.61h4.49V65.9a16.33,16.33,0,0,1-.53,4.8,5.85,5.85,0,0,1-1.49,2.49,6.44,6.44,0,0,1-2.55,1.42,13.52,13.52,0,0,1-4,.51c-3.08,0-5.26-.52-6.55-1.58a4.94,4.94,0,0,1-1.93-4C147.78,69.38,147.79,69.18,147.8,69Zm4.29-10.65a6.54,6.54,0,0,0,1.12,4.23A3.45,3.45,0,0,0,156,63.88a3.81,3.81,0,0,0,3-1.38,6,6,0,0,0,1.21-4.07A6.33,6.33,0,0,0,159,54.24a3.69,3.69,0,0,0-2.94-1.37,3.54,3.54,0,0,0-2.84,1.34A6.29,6.29,0,0,0,152.09,58.31Z"/><path class="cls-2" d="M169.42,67.76V42.71h4.8v9a6.77,6.77,0,0,1,5.26-2.53A7.09,7.09,0,0,1,185,51.6q2.17,2.4,2.17,6.9c0,3.1-.74,5.48-2.21,7.16a6.93,6.93,0,0,1-5.38,2.51,6.63,6.63,0,0,1-3.07-.78,7.27,7.27,0,0,1-2.6-2.3v2.67Zm4.76-9.47a7.74,7.74,0,0,0,.89,4.17,3.81,3.81,0,0,0,3.32,1.92A3.42,3.42,0,0,0,181.1,63a6.74,6.74,0,0,0,1.12-4.28,7.11,7.11,0,0,0-1.13-4.49,3.57,3.57,0,0,0-2.89-1.38,3.62,3.62,0,0,0-2.87,1.34A6.21,6.21,0,0,0,174.18,58.29Z"/><path class="cls-2" d="M189.89,58.43a9.75,9.75,0,0,1,1.18-4.63,8.11,8.11,0,0,1,3.34-3.42,9.87,9.87,0,0,1,4.83-1.18A9.09,9.09,0,0,1,206,51.87a10.05,10.05,0,0,1,0,13.59,9,9,0,0,1-6.69,2.71A10.58,10.58,0,0,1,194.51,67a7.7,7.7,0,0,1-3.44-3.31A11,11,0,0,1,189.89,58.43Zm4.92.25a6.05,6.05,0,0,0,1.28,4.14,4.21,4.21,0,0,0,6.32,0,6.1,6.1,0,0,0,1.27-4.17,6,6,0,0,0-1.27-4.1,4.19,4.19,0,0,0-6.32,0A6,6,0,0,0,194.81,58.68Z"/><path class="cls-2" d="M217,67.76h-4.8V49.61h4.46v2.58a7.73,7.73,0,0,1,2.06-2.41,3.73,3.73,0,0,1,2.07-.58,6.09,6.09,0,0,1,3.16.9l-1.48,4.19a4.24,4.24,0,0,0-2.26-.78,2.68,2.68,0,0,0-1.71.55,3.79,3.79,0,0,0-1.1,2,28.42,28.42,0,0,0-.4,6.08Z"/><path class="cls-2" d="M225.56,69l5.48.66a1.84,1.84,0,0,0,.64,1.32,3.6,3.6,0,0,0,2.15.51,5.68,5.68,0,0,0,2.82-.56,2.36,2.36,0,0,0,1-1.22,7.57,7.57,0,0,0,.22-2.2V64.82a6.51,6.51,0,0,1-5.44,2.94,6.68,6.68,0,0,1-5.79-3.09,10.5,10.5,0,0,1-1.68-6.09c0-3,.74-5.36,2.2-7a7.06,7.06,0,0,1,5.46-2.41,6.63,6.63,0,0,1,5.56,3V49.61h4.49V65.9a16.33,16.33,0,0,1-.53,4.8,5.85,5.85,0,0,1-1.49,2.49,6.51,6.51,0,0,1-2.55,1.42,13.52,13.52,0,0,1-4,.51c-3.08,0-5.26-.52-6.55-1.58a4.94,4.94,0,0,1-1.93-4C225.54,69.38,225.55,69.18,225.56,69Zm4.29-10.65A6.54,6.54,0,0,0,231,62.54a3.45,3.45,0,0,0,2.76,1.34,3.81,3.81,0,0,0,3-1.38,6,6,0,0,0,1.21-4.07,6.33,6.33,0,0,0-1.16-4.19,3.69,3.69,0,0,0-2.94-1.37A3.54,3.54,0,0,0,231,54.21,6.29,6.29,0,0,0,229.85,58.31Z"/></svg>