<svg id="Layer_1" data-name="Layer 1" xmlns="http://www.w3.org/2000/svg" viewBox="0 0 279.31 289"><defs><style>.cls-1{fill:#0e7474;}.cls-2{fill:#73c09d;}</style></defs><title>flag2</title><path class="cls-1" d="M18.31,153s3,10,25,13-13-13-13-13Z"/><rect class="cls-2" x="11.81" y="144" width="4" height="134"/><path class="cls-1" d="M19,31.68c80.41,40.4,160.83-46.77,241.24-8.23,0-.16,9,1.87,7.54,19.56q.24,51.36.5,102.73c0,.35,4,7.57-12.06,1.89-4-1-20.56-8.52-43.1-7.58-22.55-.08-51.1,8.33-79.14,15.74s-55.59,14-76.13,11.73c-20.53-1.06-34.05-10.84-34.05-9.08,0,.13-8.52,4.47-10.32-20.05C11.59,112.53,13.18,41,13.18,41S9,29.29,19,31.68Z"/><path class="cls-2" d="M259.81,149.69c-79-36-158,47.59-237,11.62-6.07-2.75-11-10.75-11-16.81V36.5c0-6.08,4.94-7.94,11-5.19,79,36,158-47.59,237-11.62,6.07,2.75,11,10.75,11,16.81v108C270.81,150.58,265.88,152.44,259.81,149.69ZM22.81,34.31c-4.41-2-8-.48-8,3.93v108c0,4.41,3.59,10.07,8,12.07,79,36,158-47.59,237-11.62,4.41,2,8,.48,8-3.93v-108c0-4.41-3.59-10.07-8-12.07C180.81-13.28,101.81,70.28,22.81,34.31Z"/><path class="cls-2" d="M30.69,100.68V73.14c1.86.36,3.71.69,5.57,1V85q5.45.92,10.89,1.52V75.66c1.85.21,3.71.4,5.56.57v27.54c-1.85-.17-3.71-.36-5.56-.57v-12q-5.44-.61-10.89-1.52v12C34.4,101.37,32.55,101,30.69,100.68Z"/><path class="cls-2" d="M70,98.36q2.63.51,5.26,1A8.44,8.44,0,0,1,72,103.69a9,9,0,0,1-5.47,1.38c-3.47-.12-6-1.41-7.71-3.78a12.06,12.06,0,0,1-2-7c0-3.31.87-5.83,2.59-7.6A8.34,8.34,0,0,1,66,84.2a9.26,9.26,0,0,1,7,3.11c1.71,2,2.53,5,2.46,9q-6.61,0-13.23-.36a5.62,5.62,0,0,0,1.28,3.72,4.13,4.13,0,0,0,3,1.42,3.11,3.11,0,0,0,2.09-.61A4,4,0,0,0,70,98.36Zm.3-5.32a5.24,5.24,0,0,0-1.19-3.52,3.75,3.75,0,0,0-2.74-1.27,3.56,3.56,0,0,0-2.86,1.14,4.63,4.63,0,0,0-1.1,3.36C65,92.89,67.65,93,70.28,93Z"/><path class="cls-2" d="M79.82,104.78V77.24c1.76,0,3.52,0,5.28-.08V104.7C83.34,104.74,81.58,104.77,79.82,104.78Z"/><path class="cls-2" d="M88.65,98.91l5.3-1a3.63,3.63,0,0,0,1.37,2.28,4.53,4.53,0,0,0,2.89.65,5.46,5.46,0,0,0,3.08-.93,1.82,1.82,0,0,0,.7-1.46,1.31,1.31,0,0,0-.38-1,4,4,0,0,0-1.76-.59c-4.26-.69-7-1.44-8.1-2.17a4.93,4.93,0,0,1-2.37-4.4,5.76,5.76,0,0,1,2.05-4.44c1.36-1.23,3.48-1.91,6.35-2.06s4.76.17,6.09,1a6.23,6.23,0,0,1,2.74,3.76l-5,1.25a2.8,2.8,0,0,0-1.21-1.71,4.32,4.32,0,0,0-2.55-.48,6,6,0,0,0-3,.73,1.31,1.31,0,0,0-.61,1.1,1.12,1.12,0,0,0,.53.94,18.9,18.9,0,0,0,4.93,1.22c2.81.48,4.78,1.13,5.89,2a4.54,4.54,0,0,1,1.65,3.81,6.48,6.48,0,0,1-2.29,4.87c-1.53,1.42-3.79,2.23-6.78,2.39a10.52,10.52,0,0,1-6.45-1.35A7.22,7.22,0,0,1,88.65,98.91Z"/><path class="cls-2" d="M111.91,80.61V75.72l5.27-.43v4.89Zm0,22.65v-20l5.27-.43v20Z"/><path class="cls-2" d="M140.74,100.63l-5.28.52V91a15.09,15.09,0,0,0-.34-4.15A2.55,2.55,0,0,0,134,85.45a3,3,0,0,0-1.84-.35,4.67,4.67,0,0,0-2.46,1,4.35,4.35,0,0,0-1.49,2.13,17.67,17.67,0,0,0-.4,4.62v9l-5.28.48v-20l4.9-.45v2.93a9,9,0,0,1,6.57-4,7.77,7.77,0,0,1,3.2.32,4.73,4.73,0,0,1,2.19,1.4,5.15,5.15,0,0,1,1,2.11,16.35,16.35,0,0,1,.29,3.52Z"/><path class="cls-2" d="M145.61,101.47l6,.16a1.86,1.86,0,0,0,.69,1.38,3.76,3.76,0,0,0,2.37.34,6.45,6.45,0,0,0,3.1-.9,2.92,2.92,0,0,0,1-1.43,8.28,8.28,0,0,0,.25-2.44V95.66a8,8,0,0,1-6,3.78,6.67,6.67,0,0,1-6.37-2.79,10.77,10.77,0,0,1-1.84-6.51c0-3.34.81-6,2.42-7.9a8.67,8.67,0,0,1,6-3.22,6.6,6.6,0,0,1,6.1,2.69V78.92l4.94-.43v17.9a18.32,18.32,0,0,1-.58,5.33,7.28,7.28,0,0,1-1.63,2.88,8.07,8.07,0,0,1-2.81,1.81,15.46,15.46,0,0,1-4.44,1c-3.39.32-5.78,0-7.2-1.05a4.93,4.93,0,0,1-2.12-4.2C145.59,101.94,145.59,101.73,145.61,101.47Zm4.71-12.15c0,2.11.41,3.63,1.23,4.53a3.46,3.46,0,0,0,3,1.19,4.66,4.66,0,0,0,3.27-1.81,7.14,7.14,0,0,0,1.33-4.6,6.53,6.53,0,0,0-1.28-4.49,3.72,3.72,0,0,0-3.23-1.21,4.36,4.36,0,0,0-3.13,1.77A7.44,7.44,0,0,0,150.32,89.32Z"/><path class="cls-2" d="M169.37,98V70.5c1.76-.14,3.52-.26,5.28-.39V80a7.94,7.94,0,0,1,5.79-3.14,7.27,7.27,0,0,1,6,2.32c1.59,1.69,2.38,4.19,2.38,7.48s-.81,6.06-2.43,8a8.09,8.09,0,0,1-5.91,3.07,7,7,0,0,1-3.37-.65,7.33,7.33,0,0,1-2.87-2.33v2.93Zm5.24-10.79a8.15,8.15,0,0,0,1,4.52,3.9,3.9,0,0,0,3.64,1.87,4,4,0,0,0,3-1.67,7.65,7.65,0,0,0,1.23-4.77q0-3.42-1.24-4.86A3.64,3.64,0,0,0,179,81a4.29,4.29,0,0,0-3.16,1.67A7.15,7.15,0,0,0,174.61,87.25Z"/><path class="cls-2" d="M191.88,86.5a11.08,11.08,0,0,1,1.29-5.13,9.24,9.24,0,0,1,3.68-3.85,10.63,10.63,0,0,1,5.3-1.35,9.77,9.77,0,0,1,7.42,3,10.39,10.39,0,0,1,2.9,7.5A10,10,0,0,1,202.19,97,11.87,11.87,0,0,1,197,95.84a8.29,8.29,0,0,1-3.79-3.54A11.93,11.93,0,0,1,191.88,86.5Zm5.41.15a6.51,6.51,0,0,0,1.41,4.52,4.63,4.63,0,0,0,6.94,0,6.66,6.66,0,0,0,1.4-4.57,6.65,6.65,0,0,0-1.4-4.52,4.57,4.57,0,0,0-6.94,0A6.68,6.68,0,0,0,197.29,86.65Z"/><path class="cls-2" d="M221.65,97.12c-1.76-.11-3.52-.21-5.28-.28v-20c1.64.08,3.27.16,4.91.26V80a7.68,7.68,0,0,1,2.26-2.5,4,4,0,0,1,2.28-.46,7.13,7.13,0,0,1,3.48,1.3c-.55,1.48-1.09,3-1.64,4.45a5,5,0,0,0-2.48-1.07,2.7,2.7,0,0,0-1.87.47,3.82,3.82,0,0,0-1.22,2.13,31.17,31.17,0,0,0-.44,6.66Z"/><path class="cls-2" d="M231.08,99.22q3,.68,6,1.44a2.39,2.39,0,0,0,.7,1.54,4.59,4.59,0,0,0,2.36.89,6,6,0,0,0,3.1-.14,2,2,0,0,0,1.06-1.16,7.79,7.79,0,0,0,.24-2.39V96.49a6.22,6.22,0,0,1-6,2.32,8.7,8.7,0,0,1-6.37-4.19,12.47,12.47,0,0,1-1.84-6.88c0-3.34.8-5.82,2.41-7.4a6.75,6.75,0,0,1,6-1.9,8.63,8.63,0,0,1,6.11,4.19v-2.8c1.65.28,3.29.58,4.94.9v17.9a16.94,16.94,0,0,1-.58,5.17,5.1,5.1,0,0,1-1.64,2.43,6,6,0,0,1-2.81,1.07,15.55,15.55,0,0,1-4.44-.14c-3.38-.49-5.78-1.35-7.19-2.67a6.13,6.13,0,0,1-2.13-4.63C231.06,99.68,231.07,99.47,231.08,99.22Zm4.72-11.17A7.92,7.92,0,0,0,237,92.86a4.51,4.51,0,0,0,3,1.89,3.66,3.66,0,0,0,3.27-1c.89-.86,1.33-2.28,1.33-4.26a7.93,7.93,0,0,0-1.27-4.81,4.8,4.8,0,0,0-3.23-2,3.35,3.35,0,0,0-3.13,1C236.21,84.59,235.8,86,235.8,88.05Z"/></svg>