<?xml version="1.0" encoding="utf-8"?>
<!-- Generator: Adobe Illustrator 24.0.1, SVG Export Plug-In . SVG Version: 6.00 Build 0)  -->
<svg version="1.1" id="Layer_2_1_" xmlns="http://www.w3.org/2000/svg" xmlns:xlink="http://www.w3.org/1999/xlink" x="0px" y="0px"
	 viewBox="0 0 925 848" style="enable-background:new 0 0 925 848;" xml:space="preserve">
<style type="text/css">
	.st0{opacity:0.21;}
	.st1{fill:#065A5A;}
	.st2{fill:#E0E2E1;}
	.st3{fill:#F0F3F2;}
	.st4{fill:#096361;}
	.st5{fill:#F5F5F6;}
	.st6{fill:#EAEAEA;stroke:#919191;stroke-width:0.5;stroke-miterlimit:10;}
	.st7{fill:#F5F5F6;stroke:#919191;stroke-width:0.5;stroke-miterlimit:10;}
	.st8{fill:none;stroke:#919191;stroke-width:0.5;stroke-miterlimit:10;}
	.st9{fill:#73C09D;}
</style>
<title>fly</title>
<g class="st0">
	
		<image style="overflow:visible;enable-background:new    ;" width="377" height="231" xlink:href="FEEAD3BC.png"  transform="matrix(6.123234e-17 1 -1 6.123234e-17 249 239.5)">
	</image>
</g>
<g class="st0">
	
		<image style="overflow:visible;enable-background:new    ;" width="279" height="164" xlink:href="FEEAD3BD.png"  transform="matrix(6.123234e-17 1 -1 6.123234e-17 478 87.5)">
	</image>
</g>
<g class="st0">
	
		<image style="overflow:visible;enable-background:new    ;" width="279" height="164" xlink:href="FEEAD3BB.png"  transform="matrix(6.123234e-17 1 -1 6.123234e-17 478 487.5)">
	</image>
</g>
<g class="st0">
	
		<image style="overflow:visible;enable-background:new    ;" width="429" height="351" xlink:href="FEEAD3C4.png"  transform="matrix(6.123234e-17 1 -1 6.123234e-17 659 0.5)">
	</image>
</g>
<g class="st0">
	
		<image style="overflow:visible;enable-background:new    ;" width="124" height="861" xlink:href="FEEAD3C7.png"  transform="matrix(6.123234e-17 1 -1 6.123234e-17 925 391.5)">
	</image>
</g>
<g class="st0">
	
		<image style="overflow:visible;enable-background:new    ;" width="446" height="365" xlink:href="FEEAD3C5.png"  transform="matrix(6.123234e-17 1 -1 6.123234e-17 659 450.5)">
	</image>
</g>
<polyline class="st1" points="216,424.5 87,274.5 57,271.5 120,424.5 "/>
<polyline class="st1" points="216,423.5 87,573.5 57,576.5 120,423.5 "/>
<g class="st0">
	<g transform="translate(1069 334)">
		
			<image style="overflow:visible;enable-background:new    ;" width="104" height="161" id="image" xlink:href="FEEAD3CB.png"  transform="matrix(6.123234e-17 1 -1 6.123234e-17 646 533.5)">
		</image>
	</g>
</g>
<path class="st2" d="M529,566.2v15.8c0,1.9,0.1,11,2,11l89,4.5c1.9,0,3.5-1.5,3.5-3.4v-24.4c0-1.9-1.5-3.4-3.4-3.4c0,0,0,0,0,0
	L529,566.2z"/>
<path class="st1" d="M611.6,597.4v-31.3l0,0h11.9l0,0V594c0,1.9-1.5,3.4-3.5,3.4L611.6,597.4L611.6,597.4z"/>
<path class="st3" d="M529,557.9v9.3h91c1.9,0,3.4-1.5,3.5-3.4c0,0,0,0,0,0v-24.4c0-1.9-1.5-3.4-3.4-3.4c0,0,0,0,0,0l-87,6
	C531.1,541.9,529,556,529,557.9z"/>
<path class="st4" d="M611.6,567.2v-31.3l0,0h8.5c1.9,0,3.5,1.5,3.5,3.4v27.8l0,0L611.6,567.2L611.6,567.2z"/>
<g class="st0">
	<g transform="translate(1169 399)">
		
			<image style="overflow:visible;enable-background:new    ;" width="104" height="161" id="image_2_" xlink:href="FEEAD3CC.png"  transform="matrix(6.123234e-17 1 -1 6.123234e-17 581 633.5)">
		</image>
	</g>
</g>
<path class="st2" d="M464,666.2v15.8c0,1.9,0.1,11,2,11l89,4.5c1.9,0,3.5-1.5,3.5-3.4v-24.4c0-1.9-1.5-3.4-3.4-3.4c0,0,0,0,0,0
	L464,666.2z"/>
<path class="st1" d="M546.6,697.4v-31.3l0,0h11.9l0,0V694c0,1.9-1.5,3.4-3.5,3.4L546.6,697.4L546.6,697.4z"/>
<path class="st3" d="M464,657.9v9.3h91c1.9,0,3.4-1.5,3.5-3.4c0,0,0,0,0,0v-24.4c0-1.9-1.5-3.4-3.4-3.4c0,0,0,0,0,0l-87,6
	C466.1,641.9,464,656,464,657.9z"/>
<path class="st4" d="M546.6,667.2v-31.3l0,0h8.5c1.9,0,3.5,1.5,3.5,3.4v27.8l0,0L546.6,667.2L546.6,667.2z"/>
<g class="st0">
	<g transform="translate(785 324)">
		
			<image style="overflow:visible;enable-background:new    ;" width="104" height="161" id="image-2" xlink:href="FEEAD3CF.png"  transform="matrix(6.123234e-17 1 -1 6.123234e-17 656 249.5)">
		</image>
	</g>
</g>
<path class="st2" d="M529,281.3v-15.8c0-1.9,0.1-11,2-11l89-4.5c1.9,0,3.5,1.5,3.5,3.4c0,0,0,0.1,0,0.1v24.4c0,1.9-1.5,3.4-3.4,3.4
	c0,0,0,0,0,0L529,281.3z"/>
<path class="st1" d="M623.5,253.5v27.8l0,0h-11.9l0,0V250l0,0h8.5C622,250,623.5,251.5,623.5,253.5L623.5,253.5z"/>
<path class="st3" d="M529,289.5v-9.3h91c1.9,0,3.4,1.5,3.5,3.4c0,0,0,0,0,0V308c0,1.9-1.5,3.4-3.4,3.5c0,0,0,0,0,0l-87-6
	C531.1,305.5,529,291.4,529,289.5z"/>
<path class="st4" d="M623.5,280.3v27.8c0,1.9-1.5,3.5-3.4,3.5h0h-8.5l0,0v-31.3l0,0H623.5L623.5,280.3z"/>
<g class="st0">
	<g transform="translate(685 389)">
		
			<image style="overflow:visible;enable-background:new    ;" width="104" height="161" id="image-2_2_" xlink:href="D7F09A8B.png"  transform="matrix(6.123234e-17 1 -1 6.123234e-17 591 149.5)">
		</image>
	</g>
</g>
<path class="st2" d="M464,181.3v-15.8c0-1.9,0.1-11,2-11l89-4.5c1.9,0,3.5,1.5,3.5,3.4c0,0,0,0.1,0,0.1v24.4c0,1.9-1.5,3.4-3.4,3.4
	c0,0,0,0,0,0L464,181.3z"/>
<path class="st1" d="M558.5,153.5v27.8l0,0h-11.9l0,0V150l0,0h8.5C557,150,558.5,151.5,558.5,153.5L558.5,153.5z"/>
<path class="st3" d="M464,189.5v-9.3h91c1.9,0,3.4,1.5,3.5,3.4c0,0,0,0,0,0V208c0,1.9-1.5,3.4-3.4,3.5c0,0,0,0,0,0l-87-6
	C466.1,205.5,464,191.4,464,189.5z"/>
<path class="st4" d="M558.5,180.3v27.8c0,1.9-1.5,3.5-3.4,3.5h0h-8.5l0,0v-31.3l0,0H558.5L558.5,180.3z"/>
<polyline class="st1" points="631.6,373 397.5,19 339.5,0 457.3,373 "/>
<polyline class="st1" points="631.6,475 397.5,829 339.5,848 457.3,475 "/>
<polyline class="st5" points="623,373 399.4,34.7 344,16.5 456.5,373 "/>
<polyline class="st5" points="623,473.5 399.4,811.8 344,830 456.5,473.5 "/>
<path class="st5" d="M407,322.5L407,322.5c0-1.7,1.3-3,3-3l32-1v8l-32-1C408.3,325.5,407,324.2,407,322.5z"/>
<path class="st5" d="M393,255.5L393,255.5c0-1.7,1.3-3,3-3l32-1v8l-32-1C394.3,258.5,393,257.2,393,255.5z"/>
<path class="st5" d="M373,189.5L373,189.5c0-1.7,1.3-3,3-3l32-1v8l-32-1C374.3,192.5,373,191.2,373,189.5z"/>
<path class="st5" d="M350,123.5L350,123.5c0-1.7,1.3-3,3-3l32-1v8l-32-1C351.3,126.5,350,125.2,350,123.5z"/>
<path class="st5" d="M407,523.5L407,523.5c0,1.7,1.3,3,3,3l32,1v-8l-32,1C408.3,520.5,407,521.8,407,523.5z"/>
<path class="st5" d="M393,590.5L393,590.5c0,1.7,1.3,3,3,3l32,1v-8l-32,1C394.3,587.5,393,588.8,393,590.5z"/>
<path class="st5" d="M373,656.5L373,656.5c0,1.7,1.3,3,3,3l32,1v-8l-32,1C374.3,653.5,373,654.8,373,656.5z"/>
<path class="st5" d="M350,722.5L350,722.5c0,1.7,1.3,3,3,3l32,1v-8l-32,1C351.3,719.5,350,720.8,350,722.5z"/>
<path class="st6" d="M888.5,424c0,0,3-8-12-16s-63-28-63-28c-15.1-3.6-30.5-5.9-46-7h-485c0,0-34,3-43,5s-101,31-101,31l-22,6
	c0,0-11,1-16,9"/>
<path class="st7" d="M888.5,423c0,0,3,8-12,16s-63,28-63,28c-15.1,3.6-30.5,5.9-46,7h-485c0,0-34-3-43-5s-101-31-101-31l-22-6
	c0,0-11-1-16-9"/>
<polyline class="st8" points="447.5,347 498.5,347 374.5,54 354.5,51 "/>
<line class="st8" x1="416.4" y1="153" x2="386.5" y2="153"/>
<line class="st8" x1="465.1" y1="268" x2="422.5" y2="268"/>
<polyline class="st8" points="447.5,501 498.5,501 374.5,794 354.5,797 "/>
<line class="st8" x1="416.4" y1="695" x2="386.5" y2="695"/>
<line class="st8" x1="465.1" y1="580" x2="422.5" y2="580"/>
<polyline class="st5" points="210.4,424.5 93.3,288.2 66,285.5 123.2,424.5 "/>
<polyline class="st5" points="210.4,423.5 93.3,559.8 66,562.5 123.2,423.5 "/>
<path class="st9" d="M790.7,431.8c5.2,5.5,9.7,10.6,13.8,14.9c5.9-6.2,10.1-13.9,10.6-22.3l-23.7,0.2
	C791.2,427,791,429.4,790.7,431.8z"/>
<path class="st9" d="M779.5,461.2c6.7-1.1,15.3-5.5,22.4-12c-3.5-3.9-7.4-8.4-11.9-13.3C788.3,444.9,784.7,453.5,779.5,461.2z"/>
<path class="st9" d="M779.5,384.5c5.2,7.6,8.8,16.2,10.5,25.3c4.5-4.9,8.4-9.4,11.9-13.3C794.8,390,786.1,385.6,779.5,384.5z"/>
<path class="st9" d="M791.3,421.1l23.7,0.2c-0.4-8.5-4.6-16.2-10.6-22.3c-4,4.4-8.5,9.4-13.8,14.9
	C791,416.2,791.2,418.7,791.3,421.1z"/>
<circle class="st9" cx="704.5" cy="384" r="4.5"/>
<circle class="st9" cx="689.5" cy="384" r="4.5"/>
<circle class="st9" cx="674.5" cy="384" r="4.5"/>
<circle class="st9" cx="659.5" cy="384" r="4.5"/>
<circle class="st9" cx="644.5" cy="384" r="4.5"/>
<circle class="st9" cx="629.5" cy="384" r="4.5"/>
<circle class="st9" cx="614.5" cy="384" r="4.5"/>
<circle class="st9" cx="599.5" cy="384" r="4.5"/>
<circle class="st9" cx="584.5" cy="384" r="4.5"/>
<circle class="st9" cx="569.5" cy="384" r="4.5"/>
<circle class="st9" cx="534.5" cy="384" r="4.5"/>
<circle class="st9" cx="519.5" cy="384" r="4.5"/>
<circle class="st9" cx="504.5" cy="384" r="4.5"/>
<circle class="st9" cx="489.5" cy="384" r="4.5"/>
<circle class="st9" cx="474.5" cy="384" r="4.5"/>
<circle class="st9" cx="459.5" cy="384" r="4.5"/>
<circle class="st9" cx="444.5" cy="384" r="4.5"/>
<circle class="st9" cx="429.5" cy="384" r="4.5"/>
<circle class="st9" cx="414.5" cy="384" r="4.5"/>
<circle class="st9" cx="399.5" cy="384" r="4.5"/>
<circle class="st9" cx="364.5" cy="384" r="4.5"/>
<circle class="st9" cx="349.5" cy="384" r="4.5"/>
<circle class="st9" cx="334.5" cy="384" r="4.5"/>
<circle class="st9" cx="319.5" cy="384" r="4.5"/>
<circle class="st9" cx="304.5" cy="384" r="4.5"/>
<circle class="st9" cx="704.5" cy="464" r="4.5"/>
<circle class="st9" cx="689.5" cy="464" r="4.5"/>
<circle class="st9" cx="674.5" cy="464" r="4.5"/>
<circle class="st9" cx="659.5" cy="464" r="4.5"/>
<circle class="st9" cx="644.5" cy="464" r="4.5"/>
<circle class="st9" cx="629.5" cy="464" r="4.5"/>
<circle class="st9" cx="614.5" cy="464" r="4.5"/>
<circle class="st9" cx="599.5" cy="464" r="4.5"/>
<circle class="st9" cx="584.5" cy="464" r="4.5"/>
<circle class="st9" cx="569.5" cy="464" r="4.5"/>
<circle class="st9" cx="534.5" cy="464" r="4.5"/>
<circle class="st9" cx="519.5" cy="464" r="4.5"/>
<circle class="st9" cx="504.5" cy="464" r="4.5"/>
<circle class="st9" cx="489.5" cy="464" r="4.5"/>
<circle class="st9" cx="474.5" cy="464" r="4.5"/>
<circle class="st9" cx="459.5" cy="464" r="4.5"/>
<circle class="st9" cx="444.5" cy="464" r="4.5"/>
<circle class="st9" cx="429.5" cy="464" r="4.5"/>
<circle class="st9" cx="414.5" cy="464" r="4.5"/>
<circle class="st9" cx="399.5" cy="464" r="4.5"/>
<circle class="st9" cx="364.5" cy="464" r="4.5"/>
<circle class="st9" cx="349.5" cy="464" r="4.5"/>
<circle class="st9" cx="334.5" cy="464" r="4.5"/>
<circle class="st9" cx="319.5" cy="464" r="4.5"/>
<circle class="st9" cx="304.5" cy="464" r="4.5"/>
<line class="st8" x1="152.6" y1="412.7" x2="79.2" y2="286.8"/>
<line class="st8" x1="140" y1="391.1" x2="109.5" y2="391.1"/>
<line class="st8" x1="102.3" y1="326.5" x2="82.9" y2="326.5"/>
<line class="st8" x1="153.6" y1="436.8" x2="81.5" y2="561"/>
<line class="st8" x1="141" y1="458.4" x2="108" y2="458"/>
<line class="st8" x1="103.3" y1="523" x2="82" y2="523"/>
<g class="st0">
	
		<image style="overflow:visible;enable-background:new    ;" width="101" height="273" xlink:href="D7F09A89.png"  transform="matrix(6.123234e-17 1 -1 6.123234e-17 273 377.5)">
	</image>
</g>
<path class="st4" d="M38.2,422.8L38.2,422.8c-0.2,5.5,7.1,10.2,16.1,10.4l167.1,4.5c9,0.2,16.5-4.1,16.7-9.6l0,0l-0.1-4.7"/>
<path class="st1" d="M38.2,424.7L38.2,424.7c-0.2-5.5,7.1-10.2,16.1-10.4l167.1-4.5c9-0.2,16.5,4.1,16.7,9.6l0,0"/>
<rect x="61" y="419.5" class="st1" width="177" height="4"/>
</svg>
