<svg xmlns="http://www.w3.org/2000/svg" viewBox="0 0 1920 1080"><defs><style>.cls-1{fill:#7497b7;}.cls-2,.cls-3{fill:#73c09d;}.cls-3{stroke:#494949;stroke-miterlimit:10;stroke-width:0.25px;}</style></defs><title>kort</title><g id="baggrund"><rect class="cls-1" x="-4" width="1924" height="1080"/></g><g id="Layer_2" data-name="Layer 2"><path class="cls-2" d="M930.65,353.88s7-31.67,54.55-38.71l-7-8.8h19.35l5.28-8.8,14.08,7,44-7v-8.8l28.16,17.6"/><path class="cls-2" d="M1072.31,295.93l58.94-23H1177v12.32h59.83l12.32,10.56h33.44l12.31-7,80.95,19.36V297.57l88,24.64h-31.68l17.6,15.83h-49.27l7,15.84h10.55l1.76,21.12-28.15-21.12V338l-14.08-5.28-7,8.8-14.08,1.76-28.15,3.52,5.28,15.84,22.87,3.52,12.32,26.39-17.6,17.6-1.75,19.36,8.79,14.08-8.79,15.83-7-14.07-1.76-10.56-8.8-7-14.08-7-7,10.56,15.84,1.76-7,8.8,14.08,17.59V484.1l-14.08,17.6-19.36,7h-12.31l3.52,8.8,8.79,31.68-8.79,8.8h-8.8l-8.8-8.8h-5.28l-15.84-7-3.52-17.6s-8.8-1.76-12.32,0-17.59-26.39-17.59-26.39L1198.12,507l-8.8,17.6-8.8,7L1177,558l-7,8.79-8.8-12.31-12.32-56.31-7,7-7-10.55-15.84-12.32-37-3.52,17.6,15.84L1089,517.53l-15.84,3.52-8.8,8.8-14.07,1.76-17.6,1.76-17.6-28.16-5.28-24.63L987,455.94l10.55-22.87H987l-14.08,3.52-10.56-21.12H946.48V426h-7V410.19l-24.63-14.08-7,10.56,14.08,7h5.28l3.52,7-12.32,7-10.56-14.08L899,397.87l-26.39,8.8-10.56,7L855,426l-31.68-5.28V408.43l8.8-12.32,14.08,3.52,7-1.76,5.28-8.8-1.76-5.27-12.32-3.52,5.28-7h15.84"/><polyline class="cls-2" points="967.39 319.47 939.45 311.65 921.85 315.17 921.85 327.49 927 336 913 350 903 350 902.49 332.76 884.89 332.76 884.89 322.21 891.93 316.93 902.49 316.93 909.53 304.61 925.37 290.53 951.76 290.53 967.6 290.53 985.2 295.81 992.24 299.33 967.6 304.61 985.2 315.17"/><polygon class="cls-2" points="858.5 336.28 853.22 346.84 858.5 353.88 869.06 353.88 869.06 364.44 865.54 367.96 860.26 366.2 853.22 367.96 844.42 371.48 849.7 362.68 847.94 357.4 851.46 353.88 847.94 346.84 846.18 341.56 858.5 336.28"/><polygon class="cls-2" points="844.42 348.6 839.14 362.68 830.34 364.44 823.3 359.16 830.34 353.88 844.42 348.6"/><polygon class="cls-2" points="826.82 304.61 819.78 301.09 802.19 304.61 796.91 308.13 807.47 313.41 816.27 313.41 826.82 304.61"/><polygon class="cls-2" points="758.2 301.09 784.59 290.53 796.91 290.53 800.43 283.49 803.95 272.93 814.51 269.42 823.3 257.1 837.38 248.3 818.02 243.02 751.16 244.78 730.04 246.54 710.68 250.06 696.61 251.82 687.81 258.86 694.85 260.62 712.44 269.42 719.48 285.25 705.4 299.33 703.64 309.89 710.68 315.17 721.24 322.21 728.28 313.41 742.36 301.09 758.2 301.09"/><polygon class="cls-2" points="874.34 420.75 877.86 413.71 874.34 413.71 865.54 417.23 869.06 420.75 874.34 420.75"/><polygon class="cls-2" points="895.45 408.43 900.73 413.71 895.45 413.71 891.93 413.71 895.45 408.43"/><polygon class="cls-2" points="955.28 431.31 962.32 438.35 958.8 441.87 955.28 438.35 950 433.07 955.28 431.31"/><polygon class="cls-2" points="900.73 427.79 906.01 441.87 918.33 445.38 925.37 452.42 935.92 455.94 946.48 450.66 962.32 452.42 983.44 455.94 994 470.02 997.51 489.38 1006.31 503.45 1011.59 521.05 1016.87 528.09 1025.67 531.61 1030.95 538.65 1030.95 547.45 1050.31 547.45 1060.86 543.93 1060.86 552.73 1057.35 563.28 1052.07 572.08 1036.23 584.4 1034.47 591.44 1022.15 607.28 1011.59 614.32 1013.35 626.63 1018.63 644.23 1016.87 667.11 999.27 679.42 990.48 688.22 994 698.78 986.96 705.82 981.68 707.58 974.64 721.66 960.56 737.5 941.2 746.29 928.89 746.29 930.65 737.5 927.13 733.98 918.33 728.7 914.81 714.62 914.81 704.06 909.53 689.98 907.77 681.18 907.77 677.67 900.73 667.11 907.77 638.95 904.25 626.63 904.25 614.32 895.45 603.76 891.93 596.72 895.45 577.36 886.65 573.84 877.86 570.32 870.82 563.28 860.26 563.28 830.34 566.8 812.75 566.8 802.19 554.49 802.19 543.93 788.11 542.17 791.63 528.09 784.59 524.57 788.11 506.98 791.63 499.94 788.11 487.62 816.27 457.7 823.3 450.66 835.62 431.31 854.98 431.31 856.74 436.59 900.73 427.79"/><polygon class="cls-2" points="1032.71 660.07 1055.59 649.51 1055.59 670.63 1048.55 679.42 1046.79 686.46 1045.03 697.02 1050.31 700.54 1032.71 711.1 1027.43 707.58 1023.91 697.02 1027.43 688.22 1034.47 679.42 1036.23 670.63 1032.71 660.07"/><polygon class="cls-2" points="1259.71 552.73 1263.23 561.52 1257.95 563.28 1252.67 558.01 1259.71 552.73"/><polygon class="cls-2" points="1263.23 563.28 1277.31 573.84 1280.83 584.4 1280.83 594.96 1275.55 594.96 1270.27 586.16 1266.75 586.16 1263.23 563.28"/><polygon class="cls-2" points="1245.63 573.84 1266.75 598.48 1266.75 609.04 1280.83 621.36 1282.59 624.88 1286.11 619.6 1284.35 612.56 1280.83 603.76 1277.31 598.48 1271.5 588.21 1245.63 573.84"/><polygon class="cls-2" points="1180.52 563.28 1185.8 568.56 1189.32 568.56 1192.84 563.28 1189.32 558.01 1184.04 558.01 1180.52 563.28"/><polygon class="cls-2" points="1284.35 633.67 1305.46 633.67 1323.06 642.47 1324.82 638.95 1321.3 633.67 1310.74 633.67 1305.46 624.88 1294.9 624.88 1289.63 628.39 1284.35 633.67"/><polygon class="cls-2" points="1344.18 633.67 1344.18 642.47 1349.45 642.47 1351.21 638.95 1351.21 633.67 1344.18 633.67"/><polygon class="cls-2" points="1358.25 649.51 1363.53 642.47 1368.81 642.47 1375.85 638.95 1368.81 633.67 1363.53 638.95 1358.25 642.47 1358.25 649.51"/><polygon class="cls-2" points="1298.42 598.48 1308.98 616.08 1326.58 616.08 1331.86 607.28 1331.86 598.48 1344.18 593.2 1337.14 586.16 1338.9 577.36 1337.14 568.56 1330.1 568.56 1324.82 575.6 1314.26 584.4 1308.98 589.68 1298.42 598.48"/><path class="cls-2" d="M1344.18,619.6l7,5.27,3.52-5.27-3.52-7,3.52-3.52,3.52-3.52-7-1.76,3.52-5.28,8.8-3.52,3.52-5.28-8.8-3.52V595l-10.55,3.52v7s-5.28,3.52-5.28,5.28,1.76,14.07,1.76,14.07Z"/><polygon class="cls-2" points="1358.25 542.17 1344.18 535.13 1342.42 528.09 1342.42 517.53 1351.21 517.53 1351.21 522.81 1351.21 529.85 1354.73 536.89 1358.25 542.17"/><polygon class="cls-2" points="1367.05 369.72 1374.09 376.76 1375.85 383.8 1367.05 380.28 1367.05 375 1367.05 369.72"/><polygon class="cls-2" points="1379.37 383.8 1384.65 392.59 1384.65 399.63 1379.37 399.63 1375.85 392.59 1372.33 387.31 1379.37 383.8"/><polygon class="cls-2" points="1384.65 403.15 1382.89 413.71 1391.69 417.23 1391.69 410.19 1398.73 410.19 1398.73 406.67 1384.65 403.15"/><polygon class="cls-2" points="1388.17 418.99 1398.73 422.51 1395.21 431.31 1398.73 438.35 1396.97 443.63 1393.45 445.38 1388.17 445.38 1384.65 452.42 1367.05 450.66 1372.33 440.11 1384.65 440.11 1389.93 431.31 1388.17 418.99"/><polygon class="cls-2" points="1342.42 491.14 1344.18 494.66 1340.66 498.18 1337.14 494.66 1342.42 491.14"/><polygon class="cls-2" points="1354.73 552.73 1349.45 547.45 1349.45 545.69 1352.97 545.69 1358.25 549.21 1354.73 552.73"/><polygon class="cls-2" points="1337.14 552.73 1342.42 552.73 1342.42 559.77 1337.14 559.77 1335.38 558.01 1337.14 552.73"/><polygon class="cls-2" points="1354.73 558.01 1358.25 559.77 1354.73 563.28 1351.21 559.77 1354.73 558.01"/><polygon class="cls-2" points="1367.05 556.25 1372.33 558.01 1375.85 563.28 1372.33 568.56 1372.33 573.84 1367.05 579.12 1361.77 573.84 1354.73 566.8 1363.53 563.28 1367.05 556.25"/><polygon class="cls-2" points="1154.13 573.84 1154.13 579.12 1152.37 579.12 1154.13 573.84"/><polygon class="cls-2" points="1081.98 616.08 1085.5 619.6 1076.7 623.12 1081.98 616.08"/><polygon class="cls-2" points="1029.19 649.51 1029.19 645.99 1032.71 645.99 1036.23 645.99 1036.23 649.51 1029.19 653.03 1029.19 649.51"/><polygon class="cls-2" points="1087.26 684.7 1081.98 688.22 1078.46 684.7 1087.26 684.7"/><polygon class="cls-2" points="1382.89 598.48 1384.65 594.96 1382.89 593.2 1379.37 594.96 1377.61 598.48 1382.89 598.48"/><polygon class="cls-2" points="1381.13 610.8 1389.93 616.08 1386.41 619.6 1381.13 619.6 1381.13 610.8"/><polygon class="cls-2" points="1395.21 598.48 1407.53 614.32 1414.56 605.52 1430.4 609.04 1435.68 614.32 1448 623.12 1455.04 624.88 1455.04 633.67 1463.84 642.47 1472.63 645.99 1476.15 649.51 1469.12 653.03 1463.84 645.99 1456.8 645.99 1453.28 638.95 1446.24 642.47 1439.2 645.99 1435.68 645.99 1428.64 642.47 1423.36 638.95 1414.56 638.95 1418.08 631.91 1409.29 624.88 1398.73 619.6 1398.73 610.8 1389.93 605.52 1395.21 598.48"/><polygon class="cls-2" points="1467.36 633.67 1472.63 630.15 1476.15 624.88 1467.36 624.88 1463.84 628.39 1467.36 633.67"/><polygon class="cls-2" points="1476.15 614.32 1479.67 619.6 1483.19 623.12 1479.67 623.12 1476.15 619.6 1476.15 614.32"/><polygon class="cls-2" points="1486.71 628.39 1488.47 633.67 1483.19 633.67 1479.67 630.15 1486.71 628.39"/><polygon class="cls-2" points="1495.51 642.47 1490.23 642.47 1490.23 638.95 1493.75 638.95 1495.51 642.47"/><polygon class="cls-2" points="1502.55 642.47 1502.55 645.99 1499.03 649.51 1499.03 645.99 1502.55 642.47"/><polygon class="cls-2" points="1507.83 645.99 1511.35 645.99 1514.87 649.51 1511.35 653.03 1507.83 651.27 1507.83 645.99"/><polygon class="cls-2" points="1537.74 610.8 1541.26 610.8 1541.26 609.04 1543.02 607.28 1541.26 605.52 1535.98 603.76 1534.22 605.52 1535.98 609.04 1537.74 610.8"/><polygon class="cls-2" points="1532.46 674.15 1535.98 674.15 1537.74 679.42 1535.98 681.18 1534.22 682.95 1530.7 681.18 1528.94 679.42 1528.94 677.67 1525.42 675.91 1527.18 674.15 1527.18 670.63 1527.18 668.87 1532.46 667.11 1532.46 670.63 1532.46 674.15"/><polygon class="cls-2" points="1513.11 686.46 1513.11 688.22 1516.63 693.5 1520.15 697.02 1521.91 702.3 1518.39 702.3 1514.87 698.78 1514.87 697.02 1511.35 693.5 1509.59 689.98 1507.83 688.22 1509.59 686.46 1511.35 684.7 1513.11 686.46"/><polygon class="cls-2" points="1571.18 684.7 1578.22 684.7 1579.98 682.95 1581.74 679.42 1578.22 681.18 1576.46 681.18 1571.18 682.95 1571.18 684.7"/><polygon class="cls-2" points="1590.53 695.26 1590.53 697.02 1595.81 697.02 1599.33 697.02 1597.57 698.78 1597.57 700.54 1594.05 702.3 1590.53 702.3 1588.78 700.54 1587.02 698.78 1587.02 695.26 1590.53 695.26"/><polygon class="cls-2" points="1597.57 686.46 1599.33 688.22 1602.85 689.98 1606.37 689.98 1608.13 688.22 1608.13 684.7 1606.37 684.7 1604.61 684.7 1604.61 686.46 1599.33 684.7 1597.57 686.46"/><polygon class="cls-2" points="1604.61 674.15 1608.13 677.67 1609.89 681.18 1613.41 679.42 1616.93 679.42 1618.69 677.67 1616.93 674.15 1615.17 674.15 1611.65 674.15 1606.37 674.15 1604.61 674.15"/><polygon class="cls-2" points="1609.89 663.59 1608.13 665.35 1611.65 667.11 1613.41 668.87 1616.93 668.87 1618.69 667.11 1620.45 665.35 1618.69 665.35 1615.17 663.59 1611.65 661.83 1609.89 663.59"/><polygon class="cls-2" points="1579.98 647.75 1585.26 645.99 1588.78 647.75 1590.53 651.27 1587.02 653.03 1583.5 653.03 1585.26 651.27 1581.74 651.27 1578.22 651.27 1578.22 649.51 1579.98 647.75"/><polygon class="cls-2" points="1562.38 600.24 1557.1 600.24 1560.62 602 1562.38 603.76 1567.66 602 1571.18 600.24 1572.94 596.72 1571.18 594.96 1569.42 594.96 1569.42 596.72 1565.9 596.72 1562.38 596.72 1562.38 600.24"/><polyline class="cls-2" points="1560.62 575.6 1557.1 575.6 1555.34 573.84 1553.58 572.08 1555.34 570.32 1558.86 570.32 1562.38 570.32 1564.14 572.08 1564.14 573.84 1562.38 575.6 1560.62 575.6"/><polygon class="cls-2" points="1495.51 565.04 1499.03 566.8 1502.55 566.8 1504.31 568.56 1500.79 570.32 1500.79 573.84 1499.03 573.84 1497.27 572.08 1495.51 572.08 1493.75 570.32 1495.51 568.56 1495.51 565.04"/><polygon class="cls-2" points="1402.25 573.84 1400.49 573.84 1400.49 570.32 1402.25 568.56 1405.77 568.56 1407.53 570.32 1409.29 572.08 1407.53 573.84 1405.77 575.6 1402.25 573.84"/><polygon class="cls-2" points="1409.29 661.83 1414.56 674.15 1423.36 674.15 1426.88 667.11 1430.4 660.07 1430.4 653.03 1440.96 653.03 1440.96 661.83 1442.72 670.63 1446.24 677.67 1442.72 684.7 1451.52 695.26 1460.32 707.58 1463.84 714.62 1463.84 723.42 1456.8 732.22 1455.04 746.29 1451.52 749.81 1439.2 755.09 1432.16 760.37 1421.6 774.45 1409.29 774.45 1389.93 774.45 1384.65 767.41 1384.65 753.33 1379.37 751.57 1374.09 742.77 1367.05 742.77 1344.18 744.53 1330.1 748.05 1319.54 753.33 1303.7 756.85 1298.42 751.57 1301.94 744.53 1308.98 739.25 1307.22 732.22 1301.94 726.94 1301.94 719.9 1307.22 695.26 1317.78 689.98 1338.9 686.46 1347.7 677.67 1358.25 674.15 1363.53 667.11 1377.61 667.11 1384.65 660.07 1396.97 656.55 1409.29 661.83"/><polygon class="cls-2" points="1527.18 760.37 1527.18 769.17 1537.74 772.69 1530.7 783.25 1520.15 788.53 1511.35 790.29 1513.11 781.49 1516.63 767.41 1521.91 767.41 1521.91 760.37 1527.18 760.37"/><polygon class="cls-2" points="1507.83 783.25 1495.51 790.29 1479.67 795.57 1463.84 804.36 1460.32 813.16 1465.6 813.16 1472.63 809.64 1483.19 806.12 1491.99 802.6 1502.55 792.05 1507.83 783.25"/><polygon class="cls-2" points="1400.49 783.25 1409.29 783.25 1412.8 786.77 1409.29 788.53 1395.21 793.81 1389.93 790.29 1400.49 781.49 1400.49 783.25"/><polygon class="cls-2" points="613.9 816.68 617.42 806.12 613.9 797.33 612.14 788.53 612.14 772.69 610.38 772.69 617.42 769.17 612.14 762.13 620.94 756.85 631.5 756.85 633.26 748.05 626.22 737.5 650.85 737.5 656.13 721.66 657.89 716.38 654.37 704.06 659.65 695.26 679.01 693.5 687.81 682.95 694.85 663.59 700.13 645.99 708.92 624.88 708.92 610.8 701.88 603.76 682.53 598.48 671.97 598.48 663.17 584.4 657.89 582.64 652.61 589.68 645.58 589.68 645.58 579.12 643.82 566.8 619.18 550.97 606.86 540.41 589.26 540.41 578.71 531.61 571.67 531.61 562.87 540.41 562.87 529.85 545.27 535.13 543.51 542.17 534.71 547.45 534.71 565.04 522.4 584.4 525.91 589.68 531.19 593.2 520.64 596.72 525.91 602 520.64 612.56 525.91 623.12 536.47 631.91 545.27 645.99 561.11 658.31 573.43 668.87 573.43 682.95 571.67 695.26 571.67 712.86 575.19 725.18 573.43 742.77 578.71 756.85 578.71 772.69 589.26 777.97 580.47 788.53 583.99 793.81 591.02 797.33 592.78 807.88 596.3 816.68 605.1 816.68 610.38 825.48 619.18 829 631.5 829 624.46 821.96 619.18 821.96 613.9 816.68"/><path class="cls-2" d="M544.6,537.8l-13.41,2.61H522.4l-3.52-7V514l-8.8-3.52L503,507v-8.79l5.28-5.28v-7H503s-3.52-1.76-5.28,0a70.17,70.17,0,0,0-5.28,7l-8.8,3.52-12.32-1.76-1.76-7V471.78l3.52-12.32s1.76-7,3.52-7,10.56-3.52,10.56-3.52h28.16l15.83,3.52L527.67,463l3.52,5.28L540,470l5.28-7v-3.52l-1.76-5.28-1.76-5.28,3.52-7,15.84-7,7-7,3.52-7v-5.28l17.59-10.56,12.32-8.8,17.6-15.83,5.28,3.52-5.28,5.27,1.76,1.76h7l5.28-3.52,7-5.27-3.52-1.76H631.5v-7l1.76-1.76-3.52-1.76-10.56,1.76,14.08-7,15.83-3.52,10.56-3.52,8.8-3.52V348.6l-5.28-1.76h-7l3.52-7V325.73l-5.28-3.52v-3.52h-5.28l-7,3.52h-7l-8.8-5.28-8.8-3.52-7,7-3.52,12.31v1.76L603.34,338l-5.28,5.28-8.8,5.28-1.76,7-5.27,1.76-3.52-3.52L577,348.6l1.76-5.28,3.52-3.52-7-3.52h-7l-8.8-5.28-3.52-8.79,1.76-8.8,15.84-5.28h7l14.07-7h3.52l1.76-3.52,5.28-5.28h1.76l-7-7L598.06,280h-3.52l-7,5.28v5.28H552.31l-14.08,7-7-7H520.64l-7-5.28L503,280H478.4l-17.59,1.76H450.25l-17.6-5.28-10.56-1.76L401,280h-17.6l-7,1.76L378.1,287l-7,1.76h-17.6l-5.27,5.28,10.55,1.76,1.76,3.52-1.76,1.76-10.55,1.76v3.52l-7,5.28-7,3.52,3.52,5.28-5.28,1.76L320,331l7,1.76s7,3.52,10.56-1.76a36,36,0,0,1,8.8-8.79l8.79-3.52,8.8-5.28h7l14.08-1.76,8.8,3.52,10.56,7,10.55-5.28,8.8,5.28,1.76,7s-7,5.28-7,7,0,8.8-1.76,10.56-1.76,8.8-1.76,8.8l8.8,8.8-7,3.52s-3.52,3.52-3.52,5.28-1.76,7-3.52,8.8S401,394.35,401,394.35l-10.56,7,1.76,5.28,1.76,8.8v5.28l-1.76,7,5.28,3.52,14.07,1.76,8.8,5.28-3.52,8.79,5.28,7,5.28,14.08,5.28,7,1.76,15.84,1.76,7,14.08,5.28,12.32,5.27,5.27,3.52h8.8s3.52,0,5.28,1.76,3.52,5.28,7,10.56,12.32,3.52,12.32,3.52l1.76,7,7,7,10.56,8.8,14.07-3.52,2.56-1.53"/><polyline class="cls-2" points="406.25 434.83 409.77 443.63 411.53 452.42 413.29 470.02 415.05 475.3"/><polyline class="cls-2" points="412.8 465.03 402.74 461.22 400.98 455.94 402.74 450.66 406.25 448.9 407.51 437.96"/><polygon class="cls-2" points="529.43 281.73 539.99 288.77 548.79 285.25 559.35 285.25 569.91 281.73 571.67 272.93 561.11 271.18 545.27 269.42 534.71 271.18 529.43 276.45 529.43 281.73"/><polygon class="cls-2" points="513.6 274.69 524.15 274.69 534.71 269.42 541.75 264.14 532.95 262.38 524.15 262.38 517.12 265.9 513.6 274.69"/><polygon class="cls-2" points="576.95 267.65 587.5 276.45 596.3 274.69 599.82 269.42 601.58 265.9 594.54 265.9 583.99 269.42 576.95 267.65"/><polygon class="cls-2" points="576.95 281.73 582.23 281.73 583.99 285.25 582.23 287.01 580.47 287.01 576.95 287.01 575.19 285.25 576.95 281.73"/><polygon class="cls-2" points="605.1 274.69 608.62 271.18 612.14 271.18 612.14 269.42 610.38 267.65 606.86 267.65 605.1 269.42 603.34 272.93 605.1 274.69"/><polygon class="cls-2" points="613.9 294.05 622.7 290.53 624.46 285.25 622.7 283.49 617.42 285.25 615.66 287.01 610.38 292.29 613.9 294.05"/><path class="cls-2" d="M612.14,281.73l3.52-7,8.8-3.52h14.08s5.27,3.52,7,3.52,3.52,1.76,3.52,1.76h10.56c1.76,0,5.28,3.52,5.28,3.52s0,3.52,1.76,3.52,1.76,3.52,1.76,3.52,0,3.52,1.76,3.52,1.76,1.76,3.52,1.76,3.52,1.76,3.52,1.76l-5.28,7-3.52-1.76h-7l-8.8-7-3.52-3.52-8.79-3.52H635l-10.56-1.76-8.8,1.76h0l-3.52-1.76Z"/><polygon class="cls-2" points="626.22 302.85 633.26 304.61 638.54 302.85 636.78 299.33 633.26 297.57 629.74 299.33 626.22 299.33 626.22 302.85"/><polygon class="cls-2" points="640.3 297.57 647.33 297.57 649.09 299.33 656.13 299.33 659.65 302.85 663.17 308.13 659.65 309.89 656.13 309.89 647.33 311.65 642.05 308.13 640.3 302.85 638.54 299.33 640.3 297.57"/><polygon class="cls-2" points="620.94 262.38 633.26 265.9 635.02 262.38 633.26 258.86 627.98 258.86 620.94 258.86 620.94 262.38"/><path class="cls-2" d="M636.78,251.82,635,248.3s0-3.52,1.76-3.52h7v1.76s1.76,1.76,0,1.76-3.51,1.76-3.51,1.76Z"/><polygon class="cls-2" points="636.78 257.1 640.3 253.58 643.82 253.58 643.82 257.1 640.3 258.86 636.78 257.1"/><polygon class="cls-2" points="640.3 265.9 645.58 265.9 650.85 265.9 650.85 262.38 649.09 260.62 643.82 260.62 642.05 262.38 640.3 265.9"/><path class="cls-2" d="M654.37,258.86l-5.28-1.76h-1.76v-5.28l3.52-1.76h8.8l-1.76-3.52L656.13,243l5.28,1.76s3.52,0,5.28,1.76l1.76,1.76V243l3.52-1.76h28.16l10.55-1.76v5.28s-10.55,1.76-12.31,1.76-7,5.28-7,5.28l-8.8,3.52L679,257.1l-8.8,1.76h-7l-3.52,1.76Z"/><polygon class="cls-2" points="663.17 362.68 666.69 364.44 671.97 369.72 673.73 373.24 670.21 373.24 661.41 375 654.37 375 649.09 375 650.85 371.48 656.13 366.2 663.17 362.68"/><path class="cls-2" d="M515.36,485.86l8.8-8.8h7l3.52,5.28s7,1.76,8.8,3.52,7,3.52,7,3.52l8.8,1.76-1.76,3.52-7,1.76-7-3.52L533,487.62l-8.79-1.76Z"/><polygon class="cls-2" points="541.75 499.94 542.63 499.94 545.27 499.94 543.51 501.7 543.51 503.45 541.75 503.45 539.99 501.7 541.75 499.94"/><path class="cls-2" d="M559.35,501.7h1.76l8.8,1.76h1.76l3.52-3.52-1.76-1.76-1.76-1.76h-3.52a1.72,1.72,0,0,1-1.76,1.76h-7a1.72,1.72,0,0,1-1.76,1.76,1.72,1.72,0,0,0-1.76,1.76Z"/><polygon class="cls-2" points="583.99 505.21 587.5 506.98 591.02 505.21 587.5 503.45 585.75 501.7 583.99 503.45 580.47 505.21 583.99 505.21"/><polygon class="cls-2" points="598.06 505.21 599.82 506.98 601.58 512.25 605.1 512.25 606.86 508.73 606.86 506.98 605.1 505.21 599.82 503.45 598.06 505.21"/><polygon class="cls-2" points="608.62 519.29 606.86 521.05 603.34 524.57 603.34 528.09 603.34 533.37 605.1 531.61 608.62 528.09 608.62 524.57 608.62 519.29"/><polygon class="cls-2" points="615.66 526.33 615.66 529.85 617.42 529.85 617.42 526.33 617.42 524.57 615.66 526.33"/><polygon class="cls-2" points="605.1 535.13 608.62 536.89 610.38 538.65 606.86 538.65 603.34 538.65 601.58 536.89 605.1 535.13"/><polygon class="cls-2" points="554.07 471.78 555.83 473.54 561.11 475.3 561.11 478.82 557.59 478.82 554.07 478.82 550.55 477.06 552.31 473.54 552.31 471.78 554.07 471.78"/><path class="cls-2" d="M761.71,508.73v1.76l3.52,3.52,7,3.52-3.52,1.76-3.52,5.28h-8.79l1.76-3.52,3.51-1.76,1.76-1.76H752.92l1.76-1.76L758.2,514l-1.76-1.76,1.76-1.76L760,507Z"/><polyline class="cls-2" points="877 370 879 362 882 361 884 359 887 358 889 358 890 359 894 361 901 361"/></g><g id="Danmark"><polygon class="cls-2" points="908.79 352.78 910.27 353.33 910.47 354.29 909.82 354.49 908.8 354 908.79 352.78"/><polygon class="cls-2" points="898.58 348.69 898.61 348.77 898.83 349.56 899.77 350.83 900.09 351.68 899.66 352.61 899.65 353.3 900.03 353.3 900.63 354.4 899.63 354.75 899.79 356.32 899.27 356.43 897.75 356.04 898.06 355.29 896.25 355.42 895.96 354.71 895.66 354.77 895.38 354.52 895.49 352.74 894.62 352.61 894.72 352.36 894.3 352.14 895.68 351.79 895.78 351.16 896.3 351.06 896.43 350.57 895.8 350.08 897.23 349.95 897.39 350.38 897.04 350.53 896.93 351.16 897.62 351.94 897.87 350.51 898.28 351.04 898.2 351.75 898.71 351.65 898.48 350.09 897.83 349.91 898.58 348.69"/><polygon class="cls-2" points="898.23 356.94 898.89 356.81 899.74 357.25 899.84 357.76 899.49 358.29 899.59 359.19 899.17 358.97 899.01 358.16 898.73 357.91 898.23 356.94"/><polygon class="cls-2" points="896.11 357.05 896.58 357.49 896.88 357.44 897.15 357.69 897.46 357.32 897.76 357.26 898.67 358.76 898.23 358.85 897.67 358.73 897.24 359.27 896.28 358.7 895.87 358.55 895.67 358.29 895.73 357.82 895.52 357.55 895.74 357.13 896.11 357.05"/><polygon class="cls-2" points="894.59 355.9 895.03 355.82 894.9 357.9 894.45 359.06 893.99 357.93 894.38 356.79 894.67 356.73 894.59 355.9"/><polygon class="cls-2" points="893 352.93 893.77 353.7 893.68 354.4 893.91 354.81 894.35 355.11 894.19 356.59 893.33 356.92 892.38 356.72 891.6 357.03 891.47 356.37 890.4 355.97 890.03 355.28 889.8 354.1 890.56 354.1 892.15 353.25 892.66 353.53 893 352.93"/><polygon class="cls-2" points="889.5 357.6 889.88 358.36 889.32 358.25 888.45 358.88 886 358.83 885.66 355.99 885.28 355.22 884.03 354.32 883.49 354.66 883.43 353.22 882.92 352.18 882.68 349.4 882.84 347.15 883.54 344.49 884.19 343.9 886.88 343.22 887.53 342.25 887.54 341.94 888.34 340.56 890.25 339.03 890.38 338.93 890.43 340.3 891.01 342.09 890.33 344.44 890.46 345.87 889.83 346.15 889.87 346.37 890.46 346.25 890.61 346.22 890.31 347.43 890.43 347.63 890.69 347.05 891.28 346.93 891.44 347.36 892.75 347.02 893.07 347.11 893.25 348.37 892.39 349.46 892.14 349.36 892.01 349.84 891.54 349.02 891.26 349.15 891.05 350.03 891.27 350.75 891.08 351.32 889.93 351.32 889.86 351.72 890.39 352.07 890.2 352.65 888.95 352.89 889.56 353.31 888.91 354.27 889.19 354.53 889.25 355.97 888.7 356.69 888.83 357.73 889.5 357.6"/></g><g id="Thailand"><path class="cls-3" d="M1247.53,517.67l-1-.89-1.72-.36-1.71-1.14-.63-3.79a2.94,2.94,0,0,0,.51-1.41l1.36-.84,2.63-5.14,1.62,1.38.38.79.15.32,1-.29a2,2,0,0,1,1.55,1.21c.29,1,1.4,4.6,1.4,4.6l2.43-3.09,2,.2.81-1.17.11-1,1.11-.53a8.8,8.8,0,0,1,4.07,1.2s1.77,2.08,1.9,3.19l3.13.86.7.64.82,2.15-.28,1.88a5.91,5.91,0,0,0-2.38.74,8.79,8.79,0,0,1-3.27,1.74l-.64.69-.56,3.77s2.56,2.11,3.42,2.28l.75,1.59-1.63-1a10.17,10.17,0,0,1-3.06-.69l-2.7.88-1-1.67-1.43.28-1.12.92,1.57,3.74s.65,3,0,4.1l.19,2.05.91,1.91,1.08,1.05,1.59-.76,1,1.68s1.72.35,3.56,3c0,0,.61.88,3.31,0,0,0,1.75,1.38,2.88,1l.09,0-.58,1.25s-1,.45-1,.68-1,.29-1,.29l-.38-.79-.53-.72-1.51.52-.86-.18.14.71-7.1-3.07-.57.86-1.17-.82-.68-1.43,0-2-.83-1.75,1.17-6.59-3.09-2.83-1.07-1.83a6,6,0,0,0-3.51-1.26l-.62-.49-.21-1.26.26-1.1-.29-1,.18-1.26-.86-.17Z"/></g></svg>