<?xml version="1.0" encoding="utf-8"?>
<!-- Generator: Adobe Illustrator 24.0.1, SVG Export Plug-In . SVG Version: 6.00 Build 0)  -->
<svg version="1.1" id="Layer_1" xmlns="http://www.w3.org/2000/svg" xmlns:xlink="http://www.w3.org/1999/xlink" x="0px" y="0px"
	 viewBox="0 0 1920 1080" style="enable-background:new 0 0 1920 1080;" xml:space="preserve">
<style type="text/css">
	.st0{fill:#FEFDFC;}
	.st1{fill:#C23E43;}
	.st2{fill:#FBFDFE;}
	.st3{fill:#B0EDD9;}
	.st4{fill:#EEEDE7;}
	.st5{fill:#E0DAD7;}
	.st6{fill:#0E7474;}
	.st7{fill:#F3EAA5;}
</style>
<title>landskab</title>
<g id="baggrund">
	<path class="st0" d="M1613.2,657h9.2c0.8,0,1.4,0.6,1.4,1.4v5.2c0,0.8-0.6,1.4-1.4,1.4h-9.2c-0.8,0-1.4-0.6-1.4-1.4v-5.2
		C1611.8,657.6,1612.4,657,1613.2,657z"/>
	<polyline class="st0" points="1618.4,517 1621,658 1614.5,658 	"/>
	<path class="st1" d="M1618,538c-10.8-8.4-21.6,8.4-32.4,0v-19c10.8,8.4,21.6-8.4,32.4,0V538z"/>
	<path class="st2" d="M1606.8,536.2c-1.1,0.3-2.2,0.7-3.3,1.1v-19c1.1-0.4,2.2-0.8,3.3-1.1V536.2z"/>
	<path class="st2" d="M1618,527.4v2.2c-10.8-8.4-21.6,8.4-32.4,0v-2.2C1596.4,535.7,1607.2,519,1618,527.4z"/>
	<rect y="0" class="st3" width="1920" height="1080"/>
</g>
<g id="mill1">
	<rect x="214.5" y="525" class="st4" width="10.4" height="534.9"/>
	<rect x="224.9" y="525" class="st5" width="10.4" height="534.9"/>
	<path class="st4" d="M140.9,1059.2h169.4c3.3,0,6,3.3,6,7.5v13.4l0,0H134.9l0,0v-13.4C134.9,1062.5,137.6,1059.2,140.9,1059.2z"/>
</g>
<g id="engine1">
	<path class="st6" d="M254.2,531.8h18.1c1.9,0,3.5,1.6,3.5,3.5v19c0,1.9-1.6,3.5-3.5,3.5h-18.1c-1.9,0-3.5-1.6-3.5-3.5v-19
		C250.7,533.3,252.3,531.8,254.2,531.8z"/>
	<path class="st4" d="M253.5,565.3l-64.2,5.6c-10.9,0-19.5-14.5-19.5-25.4v-4.5c0-11.2,8.4-25.9,19.5-25.9l64.2,5.6
		c9.2,0,16.7,7.5,16.7,16.8v11.2C270.2,557.8,262.7,565.2,253.5,565.3z"/>
	<rect x="222.8" y="539.2" class="st6" width="27.9" height="7.4"/>
	<ellipse class="st5" cx="183" cy="542" rx="17.4" ry="23.3"/>
	<ellipse class="st6" cx="172.6" cy="542" rx="10.5" ry="14"/>
</g>
<g id="mill2">
	<rect x="558.3" y="596.2" class="st4" width="9.1" height="466.2"/>
	<rect x="567.4" y="596.2" class="st5" width="9.1" height="466.2"/>
	<path class="st4" d="M494.9,1061.8H641c3.3,0,6,3.3,6,7.5v10.7l0,0H488.9l0,0v-10.7C488.9,1065.2,491.5,1061.8,494.9,1061.8z"/>
</g>
<g id="engine2">
	<path class="st6" d="M593.1,590.3H608c1.9,0,3.5,1.6,3.5,3.5v15.7c0,1.9-1.6,3.5-3.5,3.5h-14.9c-1.9,0-3.5-1.6-3.5-3.5v-15.7
		C589.6,591.8,591.2,590.3,593.1,590.3z"/>
	<path class="st4" d="M592.1,619.4l-56,4.9c-9.5,0-17-12.7-17-22.2v-4c0-9.7,7.3-22.5,17-22.5l56,4.9c8.1,0,14.6,6.5,14.6,14.6v9.7
		C606.7,612.9,600.1,619.4,592.1,619.4z"/>
	<rect x="565.3" y="596.7" class="st6" width="24.3" height="6.5"/>
	<ellipse class="st5" cx="530.7" cy="599.2" rx="15.2" ry="20.3"/>
	<ellipse class="st6" cx="521.5" cy="599.2" rx="9.1" ry="12.2"/>
</g>
<g id="Mill3">
	<rect x="866.4" y="662.2" class="st4" width="7.8" height="402.6"/>
	<rect x="874.2" y="662.2" class="st5" width="7.8" height="402.6"/>
	<path class="st4" d="M812.4,1064.3H937c3.3,0,6,3.3,6,7.5c0,0,0,0,0,0v8.2l0,0H806.4l0,0v-8.2
		C806.4,1067.7,809.1,1064.3,812.4,1064.3L812.4,1064.3z"/>
</g>
<g id="engine3">
	<path class="st6" d="M896.8,648.4h11.9c1.9,0,3.5,1.6,3.5,3.5v12.6c0,1.9-1.6,3.5-3.5,3.5h-11.9c-1.9,0-3.5-1.6-3.5-3.5v-12.6
		C893.3,649.9,894.9,648.4,896.8,648.4z"/>
	<path class="st4" d="M895.4,673.6l-48.3,4.2c-8.2,0-14.7-10.9-14.7-19.1v-3.4c0-8.4,6.3-19.5,14.7-19.5l48.3,4.2
		c7,0,12.6,5.7,12.6,12.6v8.4C908,667.9,902.3,673.6,895.4,673.6z"/>
	<rect x="872.3" y="654" class="st6" width="21" height="5.6"/>
	<ellipse class="st5" cx="842.3" cy="656.1" rx="13.1" ry="17.5"/>
	<ellipse class="st6" cx="834.5" cy="656.1" rx="7.9" ry="10.5"/>
</g>
<g id="mill4">
	<rect x="1136.4" y="662.2" class="st4" width="7.8" height="402.6"/>
	<rect x="1144.2" y="662.2" class="st5" width="7.8" height="402.6"/>
	<path class="st4" d="M1082.4,1064.3H1207c3.3,0,6,3.3,6,7.5l0,0v8.2l0,0h-136.6l0,0v-8.2
		C1076.4,1067.7,1079.1,1064.3,1082.4,1064.3C1082.4,1064.3,1082.4,1064.3,1082.4,1064.3z"/>
</g>
<g id="engine4">
	<path class="st6" d="M1166.8,648.4h11.9c1.9,0,3.5,1.6,3.5,3.5v12.6c0,1.9-1.6,3.5-3.5,3.5h-11.9c-1.9,0-3.5-1.6-3.5-3.5v-12.6
		C1163.3,649.9,1164.9,648.4,1166.8,648.4z"/>
	<path class="st4" d="M1165.4,673.6l-48.3,4.2c-8.2,0-14.7-10.9-14.7-19.1v-3.4c0-8.4,6.3-19.5,14.7-19.5l48.3,4.2
		c7,0,12.6,5.7,12.6,12.6v8.4C1178,667.9,1172.3,673.6,1165.4,673.6z"/>
	<rect x="1142.3" y="654" class="st6" width="21" height="5.6"/>
	<ellipse class="st5" cx="1112.3" cy="656.1" rx="13.1" ry="17.5"/>
	<ellipse class="st6" cx="1104.5" cy="656.1" rx="7.9" ry="10.5"/>
</g>
<g id="mill5">
	<rect x="1426.1" y="616.2" class="st4" width="8.7" height="447"/>
	<rect x="1434.8" y="616.2" class="st5" width="8.7" height="447"/>
	<path class="st4" d="M1365.6,1062.6h139.6c3.3,0,6,3.3,6,7.5v10l0,0h-151.6l0,0v-10C1359.6,1065.9,1362.2,1062.6,1365.6,1062.6
		L1365.6,1062.6z"/>
</g>
<g id="engine5">
	<path class="st6" d="M1459.6,610h14c1.9,0,3.5,1.6,3.5,3.5v14.8c0,1.9-1.6,3.5-3.5,3.5h-14c-1.9,0-3.5-1.6-3.5-3.5v-14.8
		C1456.1,611.5,1457.7,610,1459.6,610z"/>
	<path class="st4" d="M1458.4,637.9l-53.6,4.7c-9.1,0-16.3-12.1-16.3-21.2v-3.8c0-9.3,7-21.6,16.3-21.6l53.6,4.7c7.7,0,14,6.3,14,14
		v9.3C1472.4,631.7,1466.2,637.9,1458.4,637.9z"/>
	<rect x="1432.8" y="616.2" class="st6" width="23.3" height="6.2"/>
	<ellipse class="st5" cx="1399.6" cy="618.5" rx="14.6" ry="19.4"/>
	<ellipse class="st6" cx="1390.8" cy="618.5" rx="8.8" ry="11.7"/>
</g>
<g id="mill6">
	<rect x="1734.5" y="525" class="st4" width="10.4" height="534.9"/>
	<rect x="1744.9" y="525" class="st5" width="10.4" height="534.9"/>
	<path class="st4" d="M1660.9,1059.2h169.4c3.3,0,6,3.3,6,7.5v13.4l0,0h-181.4l0,0v-13.4C1654.9,1062.5,1657.6,1059.2,1660.9,1059.2
		z"/>
</g>
<g id="engine6">
	<path class="st6" d="M1774.2,533.8h18.1c1.9,0,3.5,1.6,3.5,3.5v19c0,1.9-1.6,3.5-3.5,3.5h-18.1c-1.9,0-3.5-1.6-3.5-3.5v-19
		C1770.7,535.3,1772.3,533.8,1774.2,533.8z"/>
	<path class="st4" d="M1773.5,567.3l-64.2,5.6c-10.9,0-19.5-14.5-19.5-25.4v-4.5c0-11.2,8.4-25.9,19.5-25.9l64.2,5.6
		c9.2,0,16.7,7.5,16.8,16.8v11.2C1790.2,559.8,1782.7,567.2,1773.5,567.3z"/>
	<rect x="1742.8" y="541.2" class="st6" width="27.9" height="7.4"/>
	<ellipse class="st5" cx="1703" cy="544" rx="17.4" ry="23.3"/>
	<ellipse class="st6" cx="1692.6" cy="544" rx="10.5" ry="14"/>
</g>
<g id="sol">
	<circle class="st7" cx="184" cy="176" r="76"/>
</g>
</svg>
