<svg xmlns="http://www.w3.org/2000/svg" viewBox="0 0 1920 1080"><defs><style>.cls-1,.cls-2,.cls-4,.cls-6,.cls-7,.cls-8{fill:none;stroke-miterlimit:10;}.cls-1,.cls-4,.cls-8{stroke:#70c0a0;}.cls-1,.cls-6,.cls-7{stroke-width:2px;}.cls-2,.cls-6,.cls-7{stroke:#73bf9c;}.cls-3{font-size:17.48px;font-family:ArialMT, Arial;}.cls-3,.cls-9{fill:#70c0a0;}.cls-5{fill:#73bf9c;}.cls-7{stroke-linecap:round;}.cls-8{stroke-width:20px;}</style></defs><title>loading screen</title><g id="færge"><line class="cls-1" x1="433" y1="711.66" x2="373.56" y2="711.66"/><line class="cls-1" x1="349.08" y1="711.66" x2="331.6" y2="711.66"/><line class="cls-1" x1="1478.89" y1="711.66" x2="1538.33" y2="711.66"/><line class="cls-1" x1="1562.8" y1="711.66" x2="1580.28" y2="711.66"/><rect class="cls-2" x="961.19" y="512.37" width="10.49" height="20.98"/><rect class="cls-2" x="903.67" y="568.31" width="124.82" height="52.44"/><line class="cls-2" x1="913.64" y1="568.31" x2="913.64" y2="620.76"/><line class="cls-2" x1="924.13" y1="568.31" x2="924.13" y2="620.76"/><line class="cls-2" x1="934.62" y1="568.31" x2="934.62" y2="620.76"/><line class="cls-2" x1="945.1" y1="568.31" x2="945.1" y2="620.76"/><line class="cls-2" x1="955.59" y1="568.31" x2="955.59" y2="620.76"/><line class="cls-2" x1="966.08" y1="568.31" x2="966.08" y2="620.76"/><line class="cls-2" x1="976.57" y1="568.31" x2="976.57" y2="620.76"/><line class="cls-2" x1="987.06" y1="568.31" x2="987.06" y2="620.76"/><line class="cls-2" x1="997.55" y1="568.31" x2="997.55" y2="620.76"/><line class="cls-2" x1="997.55" y1="568.31" x2="997.55" y2="620.76"/><line class="cls-2" x1="1008.04" y1="568.31" x2="1008.04" y2="620.76"/><line class="cls-2" x1="1008.04" y1="568.31" x2="1008.04" y2="620.76"/><line class="cls-2" x1="1018.53" y1="568.31" x2="1018.53" y2="620.76"/><line class="cls-2" x1="1018.53" y1="568.31" x2="1018.53" y2="620.76"/><line class="cls-2" x1="903.67" y1="586.95" x2="1028.49" y2="586.95"/><line class="cls-2" x1="903.67" y1="604.43" x2="1028.49" y2="604.43"/><text class="cls-3" transform="translate(623.25 654.44)">Helsingborg</text><text class="cls-3" transform="translate(1214.13 654.44)">Helsingør</text><path class="cls-4" d="M410.1,674.88s1064.88,10.43,1092.06,0"/><rect class="cls-5" x="672.74" y="556.22" width="13.99" height="8.76"/><rect class="cls-5" x="662.25" y="633.31" width="17.48" height="3.5"/><rect class="cls-5" x="683.23" y="633.31" width="10.49" height="3.5"/><rect class="cls-5" x="1248.79" y="633.31" width="17.48" height="3.5" transform="translate(2515.06 1270.12) rotate(-180)"/><rect class="cls-5" x="1234.8" y="633.31" width="10.49" height="3.5" transform="translate(2480.09 1270.12) rotate(-180)"/><rect class="cls-5" x="1235.63" y="556.22" width="13.99" height="8.76" transform="translate(2485.24 1121.21) rotate(-180)"/><rect class="cls-5" x="957.69" y="508.92" width="3.5" height="28.03"/><rect class="cls-5" x="837.07" y="487.9" width="3.5" height="7.01"/><rect class="cls-5" x="1088.8" y="487.9" width="3.5" height="7.01"/><rect class="cls-5" x="725.19" y="647.32" width="479" height="7.01"/><path class="cls-5" d="M410.52,675.35s6.6,36.33,24.08,36.33H1484.12s11.37,0,13.9-19.78l3.35-16.55s-45.45,3.51-66.43,3.51S410.52,675.35,410.52,675.35Z"/><path class="cls-6" d="M622,592.79s-10.48,7-17.48,14-3.49,10.49-3.49,10.49L609.68,640H408.56c-11.71,0-3.39,14.93-3.39,17.92l10.15,35c3.38,9.84,9.58,18.8,21.29,18.8H1476.16c15.38.52,17.08-4.48,21.29-17.92l8.21-32.9c1.93-8.92,6.88-20.86-4.83-20.86h-189l8.61-22.73s3.5-3.5-3.49-10.49a164.26,164.26,0,0,0-16.61-14"/><polyline class="cls-6" points="620.3 592.79 758.4 592.79 772.39 564.82 877.28 564.82 877.28 550.83 898.25 550.83 898.25 564.82 1031.11 564.82 1032.86 564.82 1032.86 550.83 1053.71 550.83 1053.71 564.82 1157.94 564.82 1171.84 592.79 1302.08 592.79"/><polyline class="cls-6" points="639.5 592.79 639.53 568.31 653.51 550.83 674.49 550.83 660.5 522.86 674.49 512.37 740.92 512.37 751.41 522.86 733.93 554.33 877.28 554.26"/><rect class="cls-6" x="681.48" y="491.39" width="52.44" height="20.98"/><line class="cls-6" x1="698.96" y1="470.42" x2="698.96" y2="491.39"/><polyline class="cls-6" points="716.45 470.42 684.98 470.42 681.48 470.42"/><line class="cls-6" x1="726.93" y1="390" x2="725.31" y2="491.39"/><polyline class="cls-6" points="726.93 435.45 737.42 435.45 737.42 424.96"/><line class="cls-6" x1="726.93" y1="449.44" x2="712.95" y2="449.44"/><polygon class="cls-6" points="688.47 543.84 681.48 543.84 671.87 524.61 677.81 524.61 688.47 543.84"/><rect class="cls-6" x="702.46" y="524.61" width="10.49" height="19.23"/><rect class="cls-6" x="716.44" y="524.61" width="10.49" height="19.23"/><rect class="cls-6" x="726.93" y="524.61" width="13.99" height="7.69"/><rect class="cls-6" x="632.18" y="603.28" width="6.87" height="15.73"/><rect class="cls-6" x="637.9" y="603.28" width="6.87" height="15.73"/><rect class="cls-6" x="656.66" y="603.28" width="6.87" height="15.73"/><rect class="cls-6" x="662.38" y="603.28" width="6.87" height="15.73"/><rect class="cls-6" x="669.94" y="603.28" width="6.87" height="15.73"/><rect class="cls-6" x="675.67" y="603.28" width="6.87" height="15.73"/><rect class="cls-6" x="682.66" y="603.28" width="6.87" height="15.73"/><rect class="cls-6" x="702.11" y="603.28" width="6.87" height="15.73"/><rect class="cls-6" x="707.83" y="603.28" width="6.87" height="15.73"/><rect class="cls-6" x="715.4" y="603.28" width="6.87" height="15.73"/><rect class="cls-6" x="721.12" y="603.28" width="6.87" height="15.73"/><rect class="cls-6" x="728.11" y="603.28" width="6.87" height="15.73"/><rect class="cls-6" x="744.07" y="603.28" width="6.87" height="15.73"/><rect class="cls-6" x="749.79" y="603.28" width="6.87" height="15.73"/><rect class="cls-6" x="768.54" y="603.28" width="6.87" height="15.73"/><rect class="cls-6" x="774.26" y="603.28" width="6.87" height="15.73"/><rect class="cls-6" x="793.01" y="603.28" width="6.87" height="15.73"/><rect class="cls-6" x="798.74" y="603.28" width="6.87" height="15.73"/><rect class="cls-6" x="806.3" y="603.28" width="6.87" height="15.73"/><rect class="cls-6" x="812.02" y="603.28" width="6.87" height="15.73"/><rect class="cls-6" x="819.01" y="603.28" width="6.87" height="15.73"/><rect class="cls-6" x="838.47" y="603.28" width="6.87" height="15.73"/><rect class="cls-6" x="793.01" y="571.81" width="6.87" height="15.73"/><rect class="cls-6" x="798.74" y="571.81" width="6.87" height="15.73"/><rect class="cls-6" x="806.3" y="571.81" width="6.87" height="15.73"/><rect class="cls-6" x="812.02" y="571.81" width="6.87" height="15.73"/><rect class="cls-6" x="819.01" y="571.81" width="6.87" height="15.73"/><rect class="cls-6" x="838.47" y="571.81" width="6.87" height="15.73"/><rect class="cls-6" x="844.19" y="571.81" width="6.87" height="15.73"/><rect class="cls-6" x="851.75" y="571.81" width="6.87" height="15.73"/><rect class="cls-6" x="857.47" y="571.81" width="6.87" height="15.73"/><rect class="cls-6" x="864.47" y="571.81" width="6.87" height="15.73"/><line class="cls-6" x1="673.21" y1="551.76" x2="737.29" y2="551.76"/><line class="cls-6" x1="770.81" y1="567.98" x2="639.53" y2="568.31"/><line class="cls-6" x1="639.53" y1="582.3" x2="763.65" y2="583.17"/><polyline class="cls-6" points="898.25 564.82 898.25 624.25 603.72 624.25"/><polygon class="cls-6" points="698.96 543.84 691.97 543.84 682.36 524.61 688.3 524.61 698.96 543.84"/><polygon class="cls-6" points="677.99 543.84 674.49 543.84 664.87 524.61 667.69 524.61 677.99 543.84"/><rect class="cls-6" x="1289.47" y="603.28" width="6.87" height="15.73" transform="translate(2585.81 1222.28) rotate(-180)"/><rect class="cls-6" x="1283.75" y="603.28" width="6.87" height="15.73" transform="translate(2574.37 1222.28) rotate(-180)"/><rect class="cls-6" x="1265" y="603.28" width="6.87" height="15.73" transform="translate(2536.86 1222.28) rotate(-180)"/><rect class="cls-6" x="1259.28" y="603.28" width="6.87" height="15.73" transform="translate(2525.42 1222.28) rotate(-180)"/><rect class="cls-6" x="1251.71" y="603.28" width="6.87" height="15.73" transform="translate(2510.29 1222.28) rotate(-180)"/><rect class="cls-6" x="1245.99" y="603.28" width="6.87" height="15.73" transform="translate(2498.85 1222.28) rotate(-180)"/><rect class="cls-6" x="1239" y="603.28" width="6.87" height="15.73" transform="translate(2484.86 1222.28) rotate(-180)"/><rect class="cls-6" x="1219.55" y="603.28" width="6.87" height="15.73" transform="translate(2445.96 1222.28) rotate(-180)"/><rect class="cls-6" x="1213.83" y="603.28" width="6.87" height="15.73" transform="translate(2434.52 1222.28) rotate(-180)"/><rect class="cls-6" x="1206.26" y="603.28" width="6.87" height="15.73" transform="translate(2419.39 1222.28) rotate(-180)"/><rect class="cls-6" x="1200.54" y="603.28" width="6.87" height="15.73" transform="translate(2407.94 1222.28) rotate(-180)"/><rect class="cls-6" x="1193.55" y="603.28" width="6.87" height="15.73" transform="translate(2393.96 1222.28) rotate(-180)"/><rect class="cls-6" x="1177.59" y="603.28" width="6.87" height="15.73" transform="translate(2362.05 1222.28) rotate(-180)"/><rect class="cls-6" x="1171.87" y="603.28" width="6.87" height="15.73" transform="translate(2350.6 1222.28) rotate(-180)"/><rect class="cls-6" x="1153.12" y="603.28" width="6.87" height="15.73" transform="translate(2313.1 1222.28) rotate(-180)"/><rect class="cls-6" x="1147.39" y="603.28" width="6.87" height="15.73" transform="translate(2301.66 1222.28) rotate(-180)"/><rect class="cls-6" x="1128.64" y="603.28" width="6.87" height="15.73" transform="translate(2264.15 1222.28) rotate(-180)"/><rect class="cls-6" x="1122.92" y="603.28" width="6.87" height="15.73" transform="translate(2252.71 1222.28) rotate(-180)"/><rect class="cls-6" x="1115.36" y="603.28" width="6.87" height="15.73" transform="translate(2237.58 1222.28) rotate(-180)"/><rect class="cls-6" x="1109.63" y="603.28" width="6.87" height="15.73" transform="translate(2226.13 1222.28) rotate(-180)"/><rect class="cls-6" x="1102.64" y="603.28" width="6.87" height="15.73" transform="translate(2212.15 1222.28) rotate(-180)"/><rect class="cls-6" x="1083.19" y="603.28" width="6.87" height="15.73" transform="translate(2173.24 1222.28) rotate(-180)"/><rect class="cls-6" x="1128.64" y="571.81" width="6.87" height="15.73" transform="translate(2264.15 1159.35) rotate(-180)"/><rect class="cls-6" x="1122.92" y="571.81" width="6.87" height="15.73" transform="translate(2252.71 1159.35) rotate(-180)"/><rect class="cls-6" x="1115.36" y="571.81" width="6.87" height="15.73" transform="translate(2237.58 1159.35) rotate(-180)"/><rect class="cls-6" x="1109.63" y="571.81" width="6.87" height="15.73" transform="translate(2226.13 1159.35) rotate(-180)"/><rect class="cls-6" x="1102.64" y="571.81" width="6.87" height="15.73" transform="translate(2212.15 1159.35) rotate(-180)"/><rect class="cls-6" x="1083.19" y="571.81" width="6.87" height="15.73" transform="translate(2173.24 1159.35) rotate(-180)"/><rect class="cls-6" x="1077.47" y="571.81" width="6.87" height="15.73" transform="translate(2161.8 1159.35) rotate(-180)"/><rect class="cls-6" x="1069.9" y="571.81" width="6.87" height="15.73" transform="translate(2146.67 1159.35) rotate(-180)"/><rect class="cls-6" x="1064.18" y="571.81" width="6.87" height="15.73" transform="translate(2135.23 1159.35) rotate(-180)"/><rect class="cls-6" x="1057.19" y="571.81" width="6.87" height="15.73" transform="translate(2121.25 1159.35) rotate(-180)"/><polyline class="cls-6" points="1032.86 564.82 1032.86 624.25 1317.78 624.25"/><polyline class="cls-6" points="1282.85 592.79 1282.83 568.31 1268.84 550.83 1247.87 550.83 1261.85 522.86 1247.87 512.37 1181.43 512.37 1170.95 522.86 1188.43 554.33 1053.84 554.33"/><rect class="cls-6" x="1188.43" y="491.39" width="52.44" height="20.98" transform="translate(2429.3 1003.76) rotate(-180)"/><line class="cls-6" x1="1223.39" y1="470.42" x2="1223.39" y2="491.39"/><polyline class="cls-6" points="1205.91 470.42 1237.38 470.42 1240.87 470.42"/><line class="cls-6" x1="1195.42" y1="390" x2="1197.04" y2="491.39"/><polyline class="cls-6" points="1195.42 435.45 1184.93 435.45 1184.93 424.96"/><line class="cls-6" x1="1195.42" y1="449.44" x2="1209.41" y2="449.44"/><polygon class="cls-6" points="1233.88 543.84 1240.87 543.84 1250.49 524.61 1244.54 524.61 1233.88 543.84"/><rect class="cls-6" x="1209.41" y="524.61" width="10.49" height="19.23" transform="translate(2429.3 1068.45) rotate(-180)"/><rect class="cls-6" x="1195.42" y="524.61" width="10.49" height="19.23" transform="translate(2401.33 1068.45) rotate(-180)"/><rect class="cls-6" x="1181.43" y="524.61" width="13.99" height="7.69" transform="translate(2376.85 1056.91) rotate(-180)"/><line class="cls-6" x1="1158.73" y1="567.98" x2="1282.83" y2="568.31"/><line class="cls-6" x1="1282.83" y1="582.3" x2="1165.5" y2="583.17"/><polygon class="cls-6" points="1223.39 543.84 1230.38 543.84 1240 524.61 1234.05 524.61 1223.39 543.84"/><polygon class="cls-6" points="1244.37 543.84 1247.87 543.84 1257.48 524.61 1254.66 524.61 1244.37 543.84"/><polyline class="cls-6" points="782.43 554.31 810.85 494.89 856.3 494.89 859.79 501.88 957.69 501.88 957.69 564.82"/><polyline class="cls-6" points="1146.49 554.31 1118.08 494.89 1072.63 494.89 1069.13 501.88 971.23 501.88 971.23 564.82"/><rect class="cls-6" x="828.33" y="487.9" width="3.5" height="6.99"/><rect class="cls-6" x="845.81" y="487.9" width="3.5" height="6.99"/><rect class="cls-6" x="1080.06" y="487.9" width="3.5" height="6.99"/><rect class="cls-6" x="1097.54" y="487.9" width="3.5" height="6.99"/><line class="cls-6" x1="898.25" y1="624.25" x2="1034.61" y2="624.25"/><line class="cls-6" x1="814.34" y1="505.38" x2="793.36" y2="547.33"/><line class="cls-6" x1="821.33" y1="505.38" x2="800.36" y2="547.33"/><line class="cls-6" x1="828.33" y1="505.38" x2="807.35" y2="547.33"/><line class="cls-6" x1="835.32" y1="505.38" x2="814.34" y2="547.33"/><line class="cls-6" x1="1111.53" y1="505.38" x2="1132.51" y2="547.33"/><line class="cls-6" x1="1104.54" y1="505.38" x2="1125.51" y2="547.33"/><line class="cls-6" x1="1097.54" y1="505.38" x2="1118.52" y2="547.33"/><line class="cls-6" x1="1090.55" y1="505.38" x2="1111.53" y2="547.33"/><line class="cls-6" x1="884.27" y1="508.87" x2="947.2" y2="508.87"/><line class="cls-6" x1="884.27" y1="515.87" x2="947.2" y2="515.87"/><line class="cls-6" x1="982.17" y1="508.87" x2="1045.1" y2="508.87"/><line class="cls-6" x1="982.17" y1="515.87" x2="1045.1" y2="515.87"/><line class="cls-6" x1="1187.17" y1="551.76" x2="1251.25" y2="551.76"/><polyline class="cls-7" points="482.19 655.22 485.69 658.72 485.69 655.22 492.68 662.22 496.18 662.22 496.18 658.72 499.67 658.72 499.67 655.22 496.18 655.22 496.18 651.73 471.7 651.73 471.7 662.22 485.69 662.22"/><polyline class="cls-7" points="1436.69 655.22 1440.18 658.72 1440.18 655.22 1447.18 662.22 1450.67 662.22 1450.67 658.72 1454.17 658.72 1454.17 655.22 1450.67 655.22 1450.67 651.73 1426.2 651.73 1426.2 662.22 1440.18 662.22"/><polyline class="cls-6" points="796.86 501.88 786.37 498.39 789.87 505.38 775.88 498.39"/><polyline class="cls-6" points="863.12 474.88 858.95 464.64 855.92 471.85 852.13 456.68"/><polyline class="cls-6" points="1132.34 501.88 1142.83 498.39 1139.33 505.38 1153.32 498.39"/><polyline class="cls-6" points="1066.08 474.88 1070.24 464.64 1073.28 471.85 1077.07 456.68"/><line class="cls-6" x1="739.75" y1="543.84" x2="787.44" y2="543.84"/><line class="cls-6" x1="1141.83" y1="543.84" x2="1183.2" y2="543.84"/><rect class="cls-6" x="457.72" y="627.17" width="10.49" height="12.82"/><rect class="cls-6" x="478.7" y="620.76" width="10.49" height="19.23"/><rect class="cls-6" x="1457.67" y="627.17" width="10.49" height="12.82" transform="translate(2925.82 1267.15) rotate(-180)"/><rect class="cls-6" x="1436.69" y="620.76" width="10.49" height="19.23" transform="translate(2883.86 1260.74) rotate(-180)"/></g><g id="batteri"><rect class="cls-8" x="609" y="800" width="670" height="136"/><rect class="cls-9" x="1280.5" y="834.5" width="23" height="62"/></g></svg>