<svg xmlns="http://www.w3.org/2000/svg" viewBox="0 0 1920 1080"><defs><style>.cls-1{fill:#367e9b;}.cls-2{fill:#73c09d;}.cls-3{fill:none;}</style></defs><title>mapzoom</title><g id="baggrund"><rect class="cls-1" x="-4" width="1924" height="1080"/></g><g id="Layer_2" data-name="Layer 2"><path class="cls-2" d="M413.59,301.51s19.12-86,148.17-105.15l-19.12-23.9h52.58l14.34-23.89,38.23,19.11,119.49-19.11v-23.9l76.48,47.79"/><path class="cls-2" d="M798.38,144.1,958.47,81.65h124.27v33.46h162.51l33.45,28.68h90.82L1403,124.67l219.86,52.57V148.57l239,66.91h-86l47.79,43H1689.75l19.12,43h28.68l4.78,57.36-76.47-57.36v-43l-38.24-14.34-19.12,23.9-38.24,4.78-76.47,9.56,14.34,43,62.13,9.56,33.46,71.7-47.8,47.79L1551.14,507l23.9,38.24-23.9,43L1532,550.06l-4.78-28.68-23.9-19.12-38.24-19.12L1446,511.82l43,4.78-19.12,23.9,38.24,47.79v66.92L1469.89,703l-52.58,19.12h-33.45l9.56,23.9,23.89,86L1393.42,856h-23.9l-23.9-23.9h-14.34l-43-19.11-9.56-47.8s-23.89-4.78-33.45,0-47.8-71.7-47.8-71.7l-57.35,23.9-23.9,47.8-23.9,19.12L1082.74,856l-19.12,23.9-23.9-33.46-33.45-152.95-19.12,19.12L968,683.89l-43-33.46-100.37-9.56,47.8,43L843.76,746l-43,9.56-23.9,23.9-38.23,4.78L690.81,789,643,712.56l-14.34-66.91-62.13-66.92,28.68-62.13H566.54l-38.24,9.56L499.62,468.8h-43v28.68H437.49v-43l-66.92-38.23L351.45,444.9,389.69,464H404l9.56,19.12-33.46,19.12L351.45,464l-23.89-43-71.7,23.89L227.18,464l-19.11,33.46-86-14.34V449.68l23.9-33.45,38.24,9.55L203.29,421l14.33-23.9-4.77-14.34-33.46-9.56,14.34-19.12h43"/><polyline class="cls-2" points="513.39 208.04 437.49 186.8 389.69 196.36 389.69 229.82 403.69 252.95 365.66 290.97 338.5 290.97 337.12 244.16 289.32 244.16 289.32 215.48 308.44 201.14 337.12 201.14 356.23 167.68 399.25 129.45 470.95 129.45 513.96 129.45 561.76 143.79 580.88 153.34 513.96 167.68 561.76 196.36"/><polygon class="cls-2" points="217.63 253.72 203.29 282.4 217.63 301.51 246.3 301.51 246.3 330.19 236.74 339.75 222.41 334.97 203.29 339.75 179.39 349.31 193.73 325.41 188.95 311.07 198.51 301.51 188.95 282.4 184.17 268.06 217.63 253.72"/><polygon class="cls-2" points="179.39 287.18 165.05 325.41 141.15 330.19 122.03 315.85 141.15 301.51 179.39 287.18"/><polygon class="cls-2" points="260.64 483.14 270.2 464.02 260.64 464.02 236.74 473.58 246.3 483.14 260.64 483.14"/><polygon class="cls-2" points="318 449.68 332.34 464.02 318 464.02 308.44 464.02 318 449.68"/><polygon class="cls-2" points="480.5 511.82 499.62 530.94 490.06 540.5 480.5 530.94 466.17 516.6 480.5 511.82"/><polygon class="cls-2" points="1307.38 841.61 1316.94 865.51 1302.6 870.29 1288.26 855.95 1307.38 841.61"/><polygon class="cls-2" points="1316.94 870.29 1355.18 898.97 1364.74 927.65 1364.74 956.33 1350.4 956.33 1336.06 932.43 1326.5 932.43 1316.94 870.29"/><polygon class="cls-2" points="1269.14 898.97 1326.5 965.88 1326.5 994.56 1364.74 1028.02 1369.52 1037.58 1379.08 1023.24 1374.3 1004.12 1364.74 980.22 1355.18 965.88 1339.4 938 1269.14 898.97"/><polygon class="cls-2" points="1092.3 870.29 1106.64 884.63 1116.2 884.63 1125.76 870.29 1116.2 855.95 1101.86 855.95 1092.3 870.29"/><polygon class="cls-2" points="1374.3 1061.48 1431.65 1061.48 1479.45 1085.38 1484.23 1075.82 1474.67 1061.48 1445.99 1061.48 1431.65 1037.58 1402.97 1037.58 1388.64 1047.14 1374.3 1061.48"/><polygon class="cls-2" points="1536.81 1061.48 1536.81 1085.38 1551.14 1085.38 1555.92 1075.82 1555.92 1061.48 1536.81 1061.48"/><polygon class="cls-2" points="1412.54 965.88 1441.21 1013.68 1489.01 1013.68 1503.35 989.78 1503.35 965.88 1536.81 951.54 1517.69 932.43 1522.47 908.53 1517.69 884.63 1498.57 884.63 1484.23 903.75 1455.55 927.65 1441.21 941.99 1412.54 965.88"/><path class="cls-2" d="M1536.81,1023.24l19.11,14.34,9.56-14.34-9.56-19.12,9.56-9.56L1575,985l-19.12-4.78,9.56-14.34,23.9-9.56,9.56-14.33-23.9-9.56v23.89l-28.68,9.56V985S1532,994.56,1532,999.34s4.78,38.24,4.78,38.24Z"/><polygon class="cls-2" points="1575.04 812.94 1536.81 793.82 1532.03 774.7 1532.03 746.02 1555.92 746.02 1555.92 760.36 1555.92 779.48 1565.48 798.6 1575.04 812.94"/><polygon class="cls-2" points="1598.94 344.53 1618.06 363.65 1622.84 382.77 1598.94 373.21 1598.94 358.87 1598.94 344.53"/><polygon class="cls-2" points="1632.4 382.77 1646.74 406.67 1646.74 425.79 1632.4 425.79 1622.84 406.67 1613.28 392.33 1632.4 382.77"/><polygon class="cls-2" points="1646.74 435.34 1641.96 464.02 1665.86 473.58 1665.86 454.46 1684.97 454.46 1684.97 444.9 1646.74 435.34"/><polygon class="cls-2" points="1656.3 478.36 1684.97 487.92 1675.41 511.82 1684.97 530.94 1680.19 545.28 1670.63 550.06 1656.3 550.06 1646.74 569.17 1598.94 564.39 1613.28 535.72 1646.74 535.72 1661.08 511.82 1656.3 478.36"/><polygon class="cls-2" points="1532.03 674.33 1536.81 683.88 1527.25 693.45 1517.69 683.88 1532.03 674.33"/><polygon class="cls-2" points="1565.48 841.61 1551.14 827.27 1551.14 822.5 1560.7 822.5 1575.04 832.05 1565.48 841.61"/><polygon class="cls-2" points="1517.69 841.61 1532.03 841.61 1532.03 860.73 1517.69 860.73 1512.91 855.95 1517.69 841.61"/><polygon class="cls-2" points="1565.48 855.95 1575.04 860.73 1565.48 870.29 1555.92 860.73 1565.48 855.95"/><polygon class="cls-2" points="1598.94 851.17 1613.28 855.95 1622.84 870.29 1613.28 884.63 1613.28 898.97 1598.94 913.31 1584.6 898.97 1565.48 879.85 1589.38 870.29 1598.94 851.17"/><polygon class="cls-2" points="1020.6 898.97 1020.6 913.31 1015.83 913.31 1020.6 898.97"/><polygon class="cls-2" points="824.64 1013.68 834.2 1023.24 810.3 1032.8 824.64 1013.68"/><polygon class="cls-2" points="1641.96 965.88 1646.74 956.33 1641.96 951.54 1632.4 956.33 1627.62 965.88 1641.96 965.88"/><polygon class="cls-2" points="1637.18 999.34 1661.08 1013.68 1651.52 1023.24 1637.18 1023.24 1637.18 999.34"/><polygon class="cls-2" points="1871.38 1061.48 1885.72 1051.92 1895.28 1037.58 1871.38 1037.58 1861.82 1047.14 1871.38 1061.48"/><polygon class="cls-2" points="1895.28 1008.9 1904.84 1023.24 1914.4 1032.8 1904.84 1032.8 1895.28 1023.24 1895.28 1008.9"/><polygon class="cls-2" points="1694.53 898.97 1689.75 898.97 1689.75 889.41 1694.53 884.63 1704.09 884.63 1708.87 889.41 1713.65 894.19 1708.87 898.97 1704.09 903.75 1694.53 898.97"/><polyline class="cls-2" points="267.88 345.3 273.31 323.57 281.46 320.85 286.89 315.42 295.04 312.7 300.47 312.7 303.19 315.42 314.05 320.85 333.07 320.85"/></g><g id="franskpolynesien"><polygon class="cls-3" points="1818.77 1083 1836.73 1083 1833.14 1075.82 1818.77 1083"/><polygon class="cls-2" points="64.68 167.68 50.34 177.24 79.02 191.58 102.91 191.58 131.59 167.68 112.47 158.13 64.68 167.68"/><polygon class="cls-2" points="16.88 129.45 50.34 129.45 59.9 110.33 69.46 81.65 98.13 72.09 122.03 38.63 160.27 14.74 107.69 0.4 0 3.23 0 136.2 16.88 129.45"/><polygon class="cls-2" points="638.23 1042.36 633.45 1008.9 662.13 989.78 695.59 946.77 700.37 927.65 743.38 894.19 757.72 870.29 767.28 841.61 767.28 817.72 738.61 827.27 686.03 827.27 686.03 803.38 671.69 784.26 647.79 774.7 633.45 755.58 619.12 707.78 595.22 669.55 585.66 616.97 556.98 578.73 499.62 569.17 456.61 564.39 427.93 578.73 399.25 569.17 380.13 550.05 346.68 540.5 332.34 502.26 212.84 526.16 208.07 511.82 155.49 511.82 122.03 564.39 102.91 583.51 26.44 664.77 36 698.22 26.44 717.34 16.88 765.14 36 774.7 26.44 812.94 64.68 817.72 64.68 846.39 93.35 879.85 141.15 879.85 222.41 870.29 251.08 870.29 270.2 889.41 294.1 898.97 318 908.53 308.44 961.1 318 980.22 341.9 1008.9 341.9 1042.36 351.45 1075.82 349.66 1083 650.43 1083 638.23 1042.36"/><polygon class="cls-2" points="1622.84 1075.82 1603.72 1061.48 1589.38 1075.82 1578.61 1083 1608.47 1083 1622.84 1075.82"/><polygon class="cls-2" points="1833.14 1075.82 1836.73 1083 1859.45 1083 1837.92 1061.48 1837.92 1037.58 1818.8 1032.8 1785.35 1008.9 1771.01 994.56 1727.99 985 1708.87 1008.9 1675.41 965.88 1661.08 985 1684.97 999.34 1684.97 1023.24 1713.65 1037.58 1737.55 1056.7 1727.99 1075.82 1751.89 1075.82 1762.66 1083 1818.77 1083 1833.14 1075.82"/><polygon class="cls-2" points="1904.84 1051.92 1914.4 1061.48 1920 1061.48 1920 1048.13 1904.84 1051.92"/></g><g id="Danmark"><polygon class="cls-2" points="354.23 298.54 358.26 300.02 358.77 302.62 357.02 303.17 354.26 301.85 354.23 298.54"/><polygon class="cls-2" points="326.5 287.42 326.56 287.64 327.18 289.78 329.72 293.22 330.6 295.54 329.44 298.05 329.39 299.93 330.43 299.93 332.06 302.93 329.34 303.88 329.77 308.15 328.38 308.43 324.23 307.38 325.07 305.35 320.16 305.7 319.36 303.78 318.56 303.94 317.81 303.26 318.1 298.43 315.74 298.06 316.02 297.38 314.86 296.78 318.62 295.83 318.9 294.12 320.3 293.84 320.66 292.52 318.95 291.2 322.82 290.85 323.26 292.01 322.3 292.41 322.02 294.12 323.89 296.24 324.57 292.37 325.69 293.81 325.45 295.73 326.85 295.45 326.21 291.22 324.46 290.73 326.5 287.42"/><polygon class="cls-2" points="325.54 309.82 327.34 309.47 329.65 310.67 329.93 312.07 328.97 313.5 329.24 315.94 328.08 315.34 327.65 313.14 326.89 312.46 325.54 309.82"/><polygon class="cls-2" points="319.79 310.13 321.06 311.33 321.86 311.17 322.62 311.85 323.46 310.86 324.26 310.7 326.73 314.77 325.53 315.01 324.01 314.69 322.85 316.17 320.26 314.6 319.14 314.2 318.58 313.48 318.75 312.2 318.19 311.48 318.79 310.33 319.79 310.13"/><polygon class="cls-2" points="315.64 307.01 316.84 306.77 316.51 312.44 315.27 315.59 314.04 312.51 315.08 309.4 315.88 309.24 315.64 307.01"/><polygon class="cls-2" points="311.35 298.93 313.42 301.01 313.18 302.93 313.81 304.05 315.01 304.85 314.56 308.88 312.24 309.76 309.65 309.23 307.53 310.07 307.18 308.27 304.26 307.19 303.27 305.31 302.63 302.11 304.71 302.12 309.03 299.81 310.42 300.57 311.35 298.93"/><polygon class="cls-2" points="301.82 311.61 302.85 313.69 301.34 313.37 298.98 315.08 292.31 314.95 291.41 307.24 290.37 305.16 286.98 302.72 285.5 303.63 285.35 299.72 283.96 296.88 283.3 289.34 283.75 283.23 285.64 276 287.4 274.41 294.71 272.55 296.47 269.92 296.51 269.08 298.67 265.33 303.87 261.19 304.23 260.91 304.35 264.62 305.93 269.5 304.08 275.88 304.44 279.75 302.72 280.51 302.84 281.11 304.43 280.79 304.83 280.71 304.03 283.99 304.35 284.55 305.07 282.95 306.67 282.63 307.1 283.79 310.66 282.88 311.54 283.12 312.01 286.56 309.69 289.51 309.01 289.23 308.65 290.54 307.37 288.31 306.61 288.66 306.05 291.06 306.65 293.01 306.12 294.57 303.01 294.56 302.81 295.64 304.24 296.6 303.72 298.16 300.33 298.83 302 299.95 300.24 302.59 301 303.27 301.15 307.18 299.67 309.13 300.02 311.97 301.82 311.61"/></g></svg>