<svg id="Layer_1" data-name="Layer 1" xmlns="http://www.w3.org/2000/svg" viewBox="0 0 108.46 68"><defs><style>.cls-1{fill:#fff;}</style></defs><title>sky1</title><path class="cls-1" d="M102.71,42.13V42c0-.24,0-.48,0-.72,3.5-1.61,5.77-4.21,5.77-7.15,0-4.91-6.29-8.88-14.06-8.88a20.39,20.39,0,0,0-2.37.14,6.49,6.49,0,0,0-8.86-8.63C79.94,10.87,74.45,7,68.21,7a15,15,0,0,0-6.75,1.61,23.5,23.5,0,0,0-35-1.47,9.24,9.24,0,0,0-9,15.59,12.48,12.48,0,0,0-8.72,18l-.45,0a8.25,8.25,0,0,0,0,16.5,8.07,8.07,0,0,0,2.66-.45c4.35,3.29,11.37,5.59,19.48,6.09,2.66,3,8.3,5.11,14.84,5.11,8.5,0,15.49-3.51,16.38-8a9.78,9.78,0,0,0,5.17,1.53,9.88,9.88,0,0,0,5.75-1.93A28.24,28.24,0,0,0,88.8,59a11.12,11.12,0,1,0,13.91-16.87Z"/></svg>