<svg id="Layer_1" data-name="Layer 1" xmlns="http://www.w3.org/2000/svg" viewBox="0 0 108.96 69.75"><defs><style>.cls-1{fill:#fff;}</style></defs><title>sky2</title><path class="cls-1" d="M109,42.75c0-3.32-2.57-6.32-6.71-8.47A12.87,12.87,0,0,0,105.43,26C105.43,16.8,94.49,9.32,81,9.32a34,34,0,0,0-10.51,1.62C69,8,66.61,6.11,64,6.11c-3.18,0-5.94,2.74-7.36,6.76-1.31,0-2.61.07-3.89.13v-.14a12.86,12.86,0,1,0-25.71,0c0,.36,0,.71.05,1.06a16.38,16.38,0,1,0-15.89,28q.72.45,1.56.87c-3.53,1.76-5.65,4-5.65,6.43,0,5.68,11.51,10.28,25.72,10.28A57.1,57.1,0,0,0,46.21,58,5.25,5.25,0,0,0,46,59.46C46,65.14,55,69.75,66.21,69.75s20.25-4.61,20.25-10.29a4.76,4.76,0,0,0-.06-.65,6.42,6.42,0,0,0,11.12-5.7C104.35,51.06,109,47.19,109,42.75ZM84,54.57l.83,0v0a6.42,6.42,0,0,0,.07.89A11.41,11.41,0,0,0,84,54.57Z"/></svg>