<svg id="Layer_1" data-name="Layer 1" xmlns="http://www.w3.org/2000/svg" xmlns:xlink="http://www.w3.org/1999/xlink" viewBox="0 0 1920 1080"><defs><style>.cls-1{fill:none;}.cls-2{clip-path:url(#clip-path);}.cls-3{fill:#73bf9c;}</style><clipPath id="clip-path"><rect class="cls-1" x="-0.03" y="-0.02" width="1920.1" height="1080.12"/></clipPath></defs><title>svg-map</title><g class="cls-2"><path class="cls-3" d="M171.28,414.64c11.86-6.85,26.89-7.21,32.05-25.87,2.61-9.42,20.3-12.36,32.48-11.6s13.32-6,9.88-13.2c-9.55-19.9-8.58-34,17.91-37.69,2.32,8,4,16.69-2.84,24.94-1.14,2.91-4,5.81-.09,8.77,3.24,8.09,6.62,13.95,18,12.17,21.63-3.4,44.9,5,65.22-9.19,1.08-.76,5.05.93,6.43,2.54,10.45,12.22,15.62-4.17,23.95-4.95,6.38-.6,1.12-9.18-.55-14-2.77-8-1.11-14.54,5.43-20,7.05-5.87,10.85-.56,15.36,3.89,2.79,2.75,6.5,8.53,10.4,3.65,3.43-4.28,7-12,.39-16.19-5.36-3.39-9.91-6.77-7.56-12.53,2.29-5.59,9.6-4.66,14.8-5.6,13.74-2.5,29,3.75,41.26-7.37-15.18-11.64-30.64-3.44-45.53.18-13.36,3.26-25.59,2.91-32.89-9.13-9.55-15.76-5.62-28,9.75-39.35C391,239.75,397,235.43,403,231.29c4.23-2.89,4.56-5.59-.09-8-10.77-5.64-26.13-7.57-29.66,3-5.54,16.66-17.62,21.16-30,28.57-14.18,8.48-12.89,23.09,1,32.68,11.56,8,4.79,15.5-3,19.34-7.5,3.7-14.29,8-12.32,15.88,4,15.93-2.3,21.07-17,21.35-2.15,0-4.18,3.91-6.35,5.93-4.75,4.42-9.61,6.64-14.73.49l-2.94-6.78c-.68-15.11-14-24.67-17.18-39.36-1.4-6.33-12.66.09-17,4.3-11.86,11.61-25.86,13.72-36.2,2.48-13.61-14.77-7.44-41.42,7.25-50.89C242,249.19,263,244.47,276.92,227.9c8.8-10.48,13.24-24.77,27.06-31.05,1.88-.85,1.29-3.68.22-6.39-4.59-11.62,4.73-13.71,11.07-10.81,8.67,4,12,2.81,17.61-4.59,3.21-4.25,8.75-7.75,18.27-6.76,13.59,1.4,28.12-6.32,42.26-10.14l2.67,3.23c14.13.09,28.49-8.46,42-1.45,7.54,3.89,13.94,8,22.67,10.71,25.09,7.89,52.15,8,76.05,20,7.06,3.55,17.93,6,16.8,14.22-1.26,9.19-11.83,12.15-21,11.15-17.71-1.92-35.34-4.68-53.55-6.18,8.13,4.68,16.15,7.74,18.6,19,2.13,9.77,11.06,11.16,19.75,5.21-1,.66-2,1.29-2.88,2-.13.1.13.7.21,1.07l2.64-3.1c-4.8-4.93-3.09-7.87,3.07-6.81,6,1,11.48,4.6,17.44,5.94,4.93,1.11,8.54,3.63,7.91-7.18-.51-8.51,13.63-16.49,26.05-15.9,2.8.13,5,6.83,8.63,1.71,2-2.89,2.19-6.49-1-9.87-4.23-4.43-1.34-11.93-8.66-16.28,12.9-2.07,22,.39,29.39,8.13-3.84,3.26-11.07-1.22-13.56,5.77,8.85.77,8.85.77,16.19-3.14,7.92-9.94,20-6.4,29.33-6.4,12,0,23.67-20.59,37.18-.52,2.48,3.69,15.65-5.71,25.73-5.27,6.79.3,13.76-6.94,21.38.28,2.43,2.3,5.65-2,5.67-2.85.26-18.3,12.35-8.34,19.48-7.79,19.3,1.47,38,5.78,55.71,16.21,3.59-10.69-2.55-14.78-9.48-17.59-17.6-7.13-19.73-12.38-11.38-28.55,3.09-6,5.26-12.42,8.24-19.62,5.28,2.21,1,12.59,10.29,11.18,10.61-1.6,22.37-2.34,18.2,15.26-.34,1.41,4,5.61,6.18,5.6,5,0,1.22-4.63,2.28-6.79,3.93-8,11.63-9.69,17.75-4.11.94.84.88,4.62,3,1.94,15.91-20.3,34-5.29,51.4-3.51-.45-1.07-.6-2.62-1.36-3-6.9-3.74-21.38.22-19.87-11C874,118.52,887,126,894.82,124.65s16-1.13,24.07-1.6c-.63-7.09-10.75-1.78-9.83-8.18.6-4.21,5.59-5.45,10-6.73C940.44,102,960.84,92,984.47,99.7c9.58,3.14,20.38-3.24,25.13-10.83,5.36-8.57,14.71-10.09,18.39-7.39,11.06,8.14,25.43,2.49,35.73,10.94,4.52,3.7,9.6.89,14.23-.06,7.41-1.51,14.58-2.3,22.09-.29,10.57,2.83,26.78,1,28.75,12.37,1.48,8.47-14.49,13.59-24,23.25,11.77-2.66,25,5.91,27.79-13.11.61-4.19,6.69-4.66,8.92-1.19,7.48,11.61,19.24,9.94,29.2,8.32,17.68-2.87,31.92,7.82,48.25,9.4s31.16-5.6,47.62-6.11c17.5-.55,28.55,7.95,41.29,14.09,5.7,2.74,11.39,8.25,17.55,12,10.47,6.39,10,6.28,20-1.75,2.19-1.78,7.08-.11,10.71-.24,17.65-.65,35.35,3.69,54.08-.2-3.43-3.81-8.94-7.57-8.37-9.71,1.64-6.09,8.28-4.48,12.7-3.79,13.29,2.06,28.67-4.18,39.3,9.4.94,1.19,4.19,2.17,5.15,1.51,21.62-15,45.79-1.65,60.37,6.15,18.69,10,31,.67,46,.86,18.86.23,37.53.07,51.09,16.63,3.27,4,8.4,6.41,13.42,4.82,20.16-6.37,41.41-2.74,61.92-4.93,12.1-1.29,24.87-5.79,36.93-4.67,57.38,5.32,113.15,19.1,168.54,34.64,18.67,5.23,39.55.09,57,12.43,5.36,3.78,5.37,2.4,4.22,10.39-1.27,8.82,9.6,7.41,14.83,15.2-18.72,4-34-3.8-47.26-10.82-12.85-6.82-26.18,1-37.77-6-2.31,7.18-5.41,13.57-15.35,13.16,18.42,5.17,33.26,13.72,46.36,27.14-21.68-3.54-38.08-.27-42.29,24.3-.37,2.18-4.82,5.63-6.79,5.27-13.41-2.44-25.73-2.38-39.42,2.09a154.4,154.4,0,0,1-19.85,5c1.93,7.27,4.08,15,11,18.69,11.56,6.19,18.66,18.05,31,23.18,3.32,1.37,9,6.18-1.19,6.67-.57-1.78-1.55-3.58-3.49-2.08-.63.49.31,3,.54,4.63,4.28,6.75,23.46,9.45,6,22.12,7.22,9-3,18.69,1.15,27.75,4,8.8.87,15.39-7.48,22.51-12.56-29-39.07-43.72-61.11-63-14.07-12.34-10.09-26.61-8.59-42,1.61-16.37,20.12-33.53,2.3-51-2-2-2.33-5.76-6.36-4.89-6.37,1.37-2.07,5.15-2,8.28,0,13.62-6.36,17.29-18.17,10.75-2.17-1.2-4.14-2.76-6.36-3.85-9.47-4.68-20.95-11.84-28.73-1.68-6.48,8.46-6.56,21,7.21,29.89-13.85,3-23.38,10-35-1.77-3.8-3.85-16.34-6.81-27.43-1.1-8,4.15-20.67,4.43-31.94-1.29-14.52-7.37-31.06,1.79-33.51,18.34-1.5,10.18-6.19,18.58-10.11,27.25-8.93,19.77-9.6,19.47,11.85,21,1,1,2.59,2.92,2.8,2.79,2.81-1.93.67-3.37-.71-4.85-1-2.17-2.81-4.75-.25-6.53,3.61-2.52,5.2.14,6.35,3.36,3.56,9.91,4.92,20.89,20.89,10.47,6.1-4,17.47,2.93,25.49,8.15,4.44,2.89,6.1,10,13.17,8.87l-.3-.45c-.53,4.32,3.36,7.2,5.64,7,4.14-.31,1.16-4.21,1.22-6.6l7.42-1.54c4.55,2.71,6.82,7,8.38,11.84-.39,2.5-.79,5-1.18,7.52-4.12-.49-8-5.61-12.07-2.16-5.08,4.27,1.47,7.43,2.48,11.07a48.22,48.22,0,0,0,6.52,13.3c20.76,31.25,3.73,61.45-3.12,91.61-1.67,7.37-8.8,12.47-19.33,8.26-13.48-5.4-24.42,2.57-22.26,16.36,1.69,10.68-.4,17.89-8.94,24-10.2,7.34-3.43,10.72,3.66,13.52,18.33,7.23,29.28,21.54,37.66,38.52,3.88,7.88,1.34,16.24-3.91,20.08-6.45,4.72-15.79,5.63-24,7.61-.81.19-4.17-4.27-3.67-5.5,5.06-12.59-9.17-19.27-8.74-31.71.47-13.43-14.64-9.64-23.81-12.88-10.47-3.7,3.46-23.06-10.35-25-7.35-1-16.78-5.28-25.76,2.21-5.67,4.73-19.32,9.19-13.91-8.94,1.78-6-1.27-8.15-5.67-9.51-3.2-1-6.39-2.75-9.79,1.28-7.11,8.43-8.57,22.57-24.36,22.92-3.39.07-1.69,9.15,1.89,10.34,8.93,3,18.71,3.53,23.63,13.53.45.9,4.55,1.36,5,.74,12.24-19,23.82,5.17,38.09-2.53-5.22,10.73-14.72,8.1-19.72,15.59-8,12-20.49,17.78,2.58,29.06,13.55,6.63,18.86,27.18,33.8,36.36,1.51.93,2.63,5.18,1.81,6.81-5.6,11.06-3.63,18.09,9.08,21.64,3.24.91,2.26,5.27.82,8.22-12,24.63-12.58,53.58-33,75.43-13.41,14.36-30.66,15.29-45.25,23-13.48,7.13-35,7.45-38.74,30.81-8.94-12-11.41-28.69-29.24-18-17,10.2-24.27,30.6-15.58,45.29,5.72,9.68,11.8,18.9,22,24.68,27.77,15.73,24.88,43.2,25.92,69,.19,4.65-3.19,7.86-7.31,10-13,6.7-26.22,13-33.27,27.27a8.83,8.83,0,0,1-11.25,3.94c-4.51-1.92-3.49-6.26-2-9.61,4.07-8.9-.67-12-8.14-11.12-9.22,1-9.95-9.28-16.77-10.9,3.56-13.26-9.52-15.36-15.57-17.84-9.29-3.82-14.09-9.48-17.44-21.27-9,13.88-4.1,26.71-7.21,37.85-3.35,12-1.44,20.56,4.49,32.72,7.57,15.49,17,25.58,29.94,35.67,13.26,10.35,22.75,24.53,20.28,43.58-1.48,11.37,11.4,17.34,12.62,30.76-10-6.79-20.08-6-30-6.84l.51.61c.53-3.39,1.28-7-4.27-4.17l.48.48c.22-1.46,2.37-2.45.38-4.49s-3,.09-4.49.27l.51.37c-11.32-19.58-15.14-42-22.76-63-3.09-8.49-5.53-12.43-13.54-15.7-9.82-4-12.49-11.51-11-23.59,2.56-21.48,6.31-44.2-6.09-64.42-7-11.33-4.23-25.57-12.33-36.32-4-5.29-8.13-10.79-13.74-2.2-5.87,9-15.34,7.85-22.46,6-7.42-1.88-2.68-10.63-2.44-16,.75-17.22-15.49-25.28-20.61-39.53-1.92-5.32-6.66-11.15-10.26-16.58-12.94-19.51-14.93-15.64-39.81-11.78-30.4,4.71-37.17,32-55.81,47.54-13,10.78-19.67,28.21-35.43,36.93-8.71,4.82-13.27,10.09-11.12,22.61,3.84,22.3.14,45.15-2.84,67.64l-3.74,9.38c-3.79,1.69-8,2.84-11.31,5.16-14.51,10-23.89,8.87-26.63-7.92-3.85-23.54-19.53-41.3-25.49-63.57-5.25-19.65-19.88-35.35-24.71-55.92-4.47-19-9.81-37.79-11.85-58.2-4.44,6.3-6.6,14.22-15.94,11.56s-17.29-7.65-22.56-15.47c-5-7.36,6.87-6.92,7.75-14-16.89,2.73-27.3-9-36.19-18.8-16.62-18.26-35.45-15-55.75-12.33-22.61,3-50.23,4.45-64.57-9.94-13.11-13.16-20.83-7.63-33.27-8.84-20.95-2-42.56-9.62-52.66-32.44-4.82-10.88-11-20.7-24.89-18.9-7.22.93-15.18,3.44-8.64,14.07,5.13,8.33,7.61,18.37,17.11,23.7,13,7.34,7.27,22.91,14,33.15,7.46.06,2.57-14,11-10.75,6.12,2.36,3.59,9.54,2.54,14.89-1,4.94,1.81,11.24,4.79,10.81,10.43-1.51,22.37,1.75,30.86-7.82,6.4-7.2,13-14.21,20.8-22.69,4.91,17.79,11.64,30.37,30,35.45,16.45,4.55,19.68,16.92,11.83,34.62-10.59,23.9-26,49.91-47.89,58.28-38,14.54-65.11,49.23-107.17,54.43-3.18.39-5.84,4.35-8.89,6.43-11.44,7.78-24.83,3.65-28.08-9.39-3.37-13.54-10.61-26.41-7.38-41.36.64-3-1.52-7.57-3.88-9.93-15.23-15.23-19.38-38.91-39.43-50.64-6-3.53-7.46-10.78-6.26-18.31.76-4.73,1.61-11.8-1-14.33-21.4-20.8-32.38-49.08-52-71-5.57-6.23-14-.29-23.9-6.38,13.5,21.76,26.05,41.81,30.58,61.37,5.77,25,31.43,39.61,28.95,66.86-.4,4.45,1.8,10.41,4.9,13.69,9.27,9.84,13.43,21.55,17.24,34.15,2.31,7.66,6.23,23.07,18,2.68,7.32,19.77,15.42,36.38,32.6,46.3,9.52,5.49,3.16,18.44,12.41,25.35,6.89,5.16,10.88,12.6,18.87,2.49,6.65-8.43,16.21-1.82,24.49-4.24,11.46-3.36,24.1-1.62,34.94-9.49,7-5,11.71,1.11,10,7.08-11.85,41.22-15.11,88.64-55.25,113.89-33.31,21-55.8,50.4-72.93,82.42-15.13,28.29-28.54,61-15,95.8,1.34,3.45,1,8.8,3.38,10.4,27.76,18.62,4.8,45.78,11.5,68,1.92,6.39-4.87,12.63-11,15.93-24,12.82-39.75,34.81-59.67,52.15-5.88,5.12-4.48,10.93-2.82,17.06,1.44,5.36,3.85,10.74,3.92,16.13.26,19.22-.54,37.67-23.8,45.63-8.22,2.81-11.79,8.57-11.15,21.58.62,12.55.11,34.41-20.83,41.22-8.69,2.83-12.17,12-17,19-13,18.74-28.64,34.29-49.89,43.5-2.84,1.24-5.62,3.69-8.46,3.73-20.11.27-39,4.12-58.38,10.66-18.21,6.13-32.56-12.71-26.32-31.11,2-5.83-.4-9.24-2.2-13.75-11.84-29.62-27.93-57.54-35.67-88.81-.3-1.2-1.26-2.37-1.18-3.51,2.39-33.57-16.81-59.69-29.94-88-15.23-32.87-6.57-64.88,8-94.9,6-12.3,9.25-22.24,3.67-34.81-1.65-3.72-2.69-8.86-1.48-12.51,4-12.09-.59-21.92-6.54-31.58-15.62-25.34-28.05-52.58-45.79-76.65-2.34-3.16-5.3-7.71-2.79-10,13.45-12.31,5.69-29.59,11.14-43.62,5.86-15.07-1-23.92-14.91-28.35a54.4,54.4,0,0,0-18.38-2.75c-11.87.5-20.18-2.17-23.4-15.34-2.36-9.59-10.49-13.2-20.12-13.35-21.44-.32-42.44,1.32-59.87,15.71-6.77,5.58-12.33,5.56-20.13,1.4-12.21-6.53-26-7.61-36.72,2.37-15.64,14.61-28.45,7-42.2-2.23-34.67-23.15-62.1-52.29-77.37-91.75-3.25-8.39-12.77-11.3-15.19-22-3.61-16-5.62-30.12,2.46-45.25A25.79,25.79,0,0,0-67.84,884c-7.21-15.61-1.86-33.32-.06-46.77,2.68-20,10-42.8,24.89-60.43,12.69-15,18.93-35.22,42.58-40.5,10.89-2.43,15.78-16.71,18.15-28.63,3.42-17.2,7.9-32.26,25.23-42.67,14.06-8.45,15.47-29.11,28.58-40.54,1.1-1-3.58-17.41-14.42-15.62-7,1.16-13.15-.63-20.06-.58.13-7.93,7.85-16.7-3.45-23.3-3.09-1.81-.36-7.48,2-9.83,11.77-11.76,9.45-29.05,6.56-39.82C35.93,512.2,54.62,515,62.25,514.62c17.54-.93,35.63,2,52.93,5.85,9.84,2.2,13.6,1.26,15.3-8.72,5.91-34.73,4-38.75-28.61-55.38-2-1-3.3-3.39-6.39-6.69,9.65-1.78,15.06-8,26-1.55,9.16,5.44,12.39-4.69,8.78-15.87,18.48,8.31,31.28,4.38,37.52-14.23Zm242,181.9.52.52c.21-4.61-3.68-4.22-6.31-4.78-26.41-5.63-32.75-12.13-38-40.9a20.39,20.39,0,0,0-12.4-15.16c-20.82-9-34.1-28.43-54.32-38.36-4.55-2.23-5.1-15.34-13.54-6.05-6.23,6.86-3.2,15.36,4.27,20.59,12.76,8.93,16.44,27.13,34.92,31.63,4,1,16.92,5.69,20.26,17.45-9.05-1.47-16.39,5.09-12.24,10.31,8.46,10.65.94,15.92-3.36,23l-4.85-3.74c4.17-15.9-5.64-31-26.37-38.6-17.58-6.49-29.33-18.37-37.89-34.71-5.05-9.63-12.71-14.1-23.85-6.81-11.91,7.8-22.84,17-39.84,8.51-7.16-3.57-20.86-2.28-18.42,14.84,1.27,8.84-5.12,13.37-14.73,15.18-14.72,2.77-24.61,14.91-24.06,28.08.62,14.68-6.86,19.73-15.81,27.5C116.41,614.42,103.8,613,91.77,615,83.84,616.3,77.7,620.14,78,627.36s7.42,11.1,14.9,10.23c17.8-2.08,36.42-1.55,52.15-11.92,14.32-9.44,28.15-18,46.22-9.11,3.23,1.59,9.87.79,12.46-1.6,16.38-15.06,37.49-1.59,55.15-9.93,7.68-3.62,11.89,9.12,11.06,10.75-5.72,11.23,9.84,26.05-6.25,35.11-2.77,1.56-2.95,5.53-.17,8.11,3.53,3.26,6.08.33,7-2.44,4-12,8.9-5.17,11.69,0,6.33,11.7,16.26,14.12,28.48,17.13,17.1,4.2,27.73,23.58,47.65,24,.39,0,.79.9,1.13,1.42,3.83,5.85,7.67,11.87,16.2,9.27,8.68-2.64,7.34-9.84,7.93-16.75,1.71-20.16,17.47-26.47,35.62-18.64,15.62,6.75,28.85,18.06,48.19,19.21,14.34.85,28,3.92,41.8-1.58,5.44-2.17,9.51-.54,15,1.55,9,3.41,21.72,7.74,27.69-5.06,10.93-23.45,18-48,13.72-75.29-6.88,2-13.86,2.2-18.52,5.62-11.16,8.16-20.46,10.64-30.57-1.56-2.37-2.86-7.57-4.61-13.17-.77-13.47,9.24-32.09,1.87-40.71-11.37-6.05-9.27.44-21.94-10-28.54-2.31-1.46-6.42-.35-5.18-5.1.83-3.19,2.69-5.48,6.24-5.85C466,563,480.1,567,486.88,551c1.19-2.82,6.91-2.16,10.45-.53,5.3,2.44,9.61.47,13.88-2.42,16.71-11.32,33.1-10.65,50.57-.65,14.67,8.4,31.82,7,47.94,6.35,4.2-.15,14.26-4,13.36-12.86-.7-6.85-.52-15.67-11.81-15.26-5.34.19-8.21-5.19-12.11-7.1-18.81-9.17-34.18-31.47-60.3-15.32-11.55,7.14-17.2-3.71-20.38-12.82-2.54-7.3-18.58-17.49-23.71-12.84-15.51,14-23.89,33.13-31.74,51.75-4.21,10,11.72,12.93,12.92,17.15-12.82,28.22-43.14-4.78-56.39,21.46a9.72,9.72,0,0,1-3.32-1.19c-11.68-7.18-8.68.39-7.36,7,1.25,6.27,6.32,8.84,10.53,12.4,2.57,2.17,6.93,4,4.06,8.55C420.92,598.78,416.63,595.55,413.28,596.54Zm408.32-384c7.34,0,14.17.45,20.91-.1,10.18-.83,14.61-8,16.66-17,1.09-4.78-6.72-10.78,1.43-14.48,7.09-3.23,11.16,3.16,16.14,6.33,3.18,2,5,6.85,10.34,5.65-5.12-17.23-9.24-20.3-26.55-16.36C849,179.17,841.1,178.61,838.75,165c-1.55-8.91-9.24-7.62-17.84-11.18,3.59,11.73,4.84,20.71,11.93,27.33,4.49,4.18,15.33,2.45,13.39,12.32-1.73,8.81-10.86,8.93-17.66,11.38C825.85,205.83,822.23,205.44,821.6,212.51ZM540.82,729.23c.49-4.06-.71-6.52-3.82-8.07-2.48-1.24-3.71.83-3.75,2.19-.11,3.71.68,7.48,5,8.62C538.88,732.15,540.18,729.94,540.82,729.23Z"/><path class="cls-3" d="M-303.87,174.48c-8.23,0-20.09,7.48-22.31-5.29-.67-3.82,11-16.33,23.36-12.28.8.65,1.58,1.31,2.37,2,0-.83,0-1.67,0-2.5l-2.69,1.13c3.24-4.82,2.19-8.29-3.81-7.17-5.73,1.07-10.91,2.27-16.57-2.74,13.64-10.23,13.47-25.06,8.11-38-6.16-14.86-21.8-14.17-35.5-13.31-10.29.65-20.47-.35-31,2.62-6.28,1.77-22.6,5.62-17-14.76,2.77-10.07-.78-10.91,15.71-13.73,16.83-2.88,33.34-7.71,54-7-8.86-8.23-15.09-13.38-25-10.32-14.7,4.57-30.6,6.36-44.59,11.11-23.22,7.86-50.81,7.12-68.67,28.57-1.53,1.84-5.88,1.82-8.93,1.83-28.81.13-57.63.08-86.71-1.66,12.72-4,25.86-6,35.51-16.83-8.08-3.19-15.51-.11-23,1.39-7.93,1.59-14.59,0-19.29-7.33-6.15-9.59-10.25-18.71,7.27-17.49,7.37.51,10.73-5.82,18-6.62,10-1.1,17.62-4.24,25.64,5,4.22,4.87,11.73,4.68,17.76,0-1.18-6.48-7.95-4.52-12.83-7.77,1.7-1,2.43-1.72,3.23-1.8C-478.26,38-445.68,33.85-413,31.24c38.8-3.11,79-7.84,116.24,1.16,41.5,10,82,6.25,122.31,3.36,31.65-2.27,63.59-6.63,95.27-10.86,28.75-3.84,56.84-.8,85,3.08,3.43.48,13.85-2.31,9.55,9.79-2.39,6.71,5.25,4.14,9,4.12,14.29-.1,28.58-.49,42.87-.3,6.54.09,13.79-1.35,19.34,5.32-28.93,2.45-54.84,11.7-78.2,28.45,5.23,6.63,20,7.27,16.22,16.08-5.34,12.27-14.62-9.36-23.25.33C12,96.74,10,108,7.5,115.48c-2.12,6.35-11.27,11.45-18.4,14.8-11.55,5.42-15.19,11.21-12.52,22.13,3.85,15.74-14.43,14.76-19.28,17-26,11.73-53.16,22.66-82.81,21.76-6.19-.19-10.53,3.53-14.63,6.64-17.24,13.06-36.07,19.82-57.93,21.37-12.63.89-27,5.13-30.57,20.93-1.34,5.85-5.81,5.84-9.18,7.77-15.36,8.8-24.48,23.22-33.33,37.55-4.14,6.7-10.64,13-15.75,8.62-16-13.61-45.54-11.21-47.37-42.34-.94-16.06-7.23-32.54-3.6-48.28,2.39-10.4,9.39-22.44,24.79-20,6,1,11.18.86,13.9-5.72,3.28-2.81,7.24-6.28.95-9.17C-302.81,166.4-304.24,170.3-303.87,174.48Z"/><path class="cls-3" d="M1633.38,1127c-13.72-3.16-18.73.16-18.58,16.84.1,10.78-17.68,20.38-15,34.33,2.6,13.56-3.69,15.76-13.87,16.84-1.13.12-2.18,1.13-3.26,1.73-8.51-20.41-28.86-10.09-42.61-13.8-28.06-7.58-22.9-32.51-31.91-48.84-8-14.58.85-21.44,18.45-17.47,3.37.76,7.35,1.39,7.75-1.9,2.74-22.16,27.46-22.62,38.36-38.61,7.21-10.58,20.67-19.68,28-32.8,3.83-6.79,11.24-1.07,11,1.18-1.22,13.06,25.69,10.09,15.62,23.3-13.07,17.15-15.07,32.48.84,49C1630.64,1119.22,1634.92,1120.74,1633.38,1127Z"/><path class="cls-3" d="M1421.48,1115.69c4.07,5.54,4.17,15.5,15.74,12.48,4.19-1.09,6.92,2.1,3.42,6.71-6.07,8-11.21,14.5,5.35,16.33,4.38.48,8.68,9.76,8.82,16.81.11,6.24,4.7,5.19,7.73,4.65,7.84-1.4,2.18-4.68.39-6.91-1.52-1.9-4-3.2-1.12-5.83,2.35-2.19,5.15-1.6,6.26.58,3.48,6.79,15.34,17.09,11.77,18-22.55,6-7.86,24.39-14,34.92-3.82,6.48-10.64,12-17.88,4.81-18.8-18.63-36.3-37.66-48.75-62.19-14.31-28.19-26.56-59.39-57-76.34-4.64-2.58-7.89-7.84-11.44-12.14-2.43-2.94-4-7-1.38-10.15,3.34-4,6.5-.34,9.48,1.65,2.06,1.38,4.51,3.92,6.35,3.58,27.94-5.1,32.18,22.14,46.48,35,7.3,6.54,13.1,11.81,23,11.13l-.51-.37c-1.54,4.24,1.73,3.8,4.11,4.22l-.48-.48c.22,2.63.87,4.81,4.27,4.17Z"/><path class="cls-3" d="M171.28,414.64,167.75,418c-23.34-.61-46.57,1.16-70,4.31,1.49-8.63,9.81-8,13.46-12.93-4-5.71-11.06-1.62-16.26-4.65,2.61-7.31,21-5.47,9.88-18.56,0,0,2.07-2.64,3.46-3,5.5-1.5,15.29-.18,12.51-8.82-2.29-7.09-6.37-18.7-19.28-10.42-.54-7.49,7.29-9.11,5.25-15.49-5.2-2.22-4.6,6.56-9.28,5-5.79-25.09,2.35-42.11,30.94-47.65.67,6.33-14.12,20.77,7.17,18.65,2.23-.22,3.1,4.57.9,5.89-20.68,12.4.73,20.34,3.94,29.13,3,8.21,16.2,11.39,13,24.22-.91,3.67,3.55,4.36,6.68,3,4.63-2,8.94-1.92,10.9,3.09,1.78,4.56-.9,8.26-4.67,11.13C153.46,410.67,166.7,411.11,171.28,414.64ZM116.7,323.18a24.5,24.5,0,0,0,5,1.21c.42,0,.92-1.76,1.38-2.71-1.38-.38-2.77-1.06-4.14-1C118.29,320.67,117.66,322,116.7,323.18Z"/><path class="cls-3" d="M1699.86,651.33c13.94-12.1,22.28-28.71,46.14-19.66,13.09,5,2.81-11.64,7.75-17.16,2.46-2.75,0-4.13,5-3.41a11.07,11.07,0,0,0,11.63-6.37c4.83-10.18,8.13-20.7.68-31.28a43,43,0,0,1-6.77-14.65c-1.69-6.7,6.16-6.42,6.83-11-.39.89-1.29,2.44-1.09,2.6,3.78,3,7.48,6.15,11.61,8.58,13.64,8,22.35,16.91,16.14,35.25-2,5.91,2.9,17.06,6.53,23,8.88,14.59,4.26,21.62-9.57,24-6.75,1.16-14,7.54-19.22,4.38-11.69-7-5,4.91-7.86,6.4-3.72,1.92-1,9.8-7.66,8.6-4-.72-5.83-4.17-6.68-8.05-2.83-13-11.11-10.39-19.63-6.71C1717,653.05,1714.24,653.59,1699.86,651.33Z"/><path class="cls-3" d="M750.29,91.86c-11.53,11.46-26.23,9.6-39,11-20.94,2.28-33.71,15.52-47,28.92-6.94,7-2.18,11.18,3.57,16.33s12.19,8,19.23,11.63c-12.43,1.45-24.82,3.8-36.76-2.93-.89-.5-1.48-3.18-1.61-3.13-8.92,3.16-20.85-3-20.64-6.51.49-8.5,5.5-17.89,11.31-24.69,14.6-17.11,31.86-29.65,56.7-26.8a37.59,37.59,0,0,0,24.52-5.33C730.27,84.27,739.89,85.3,750.29,91.86Z"/><path class="cls-3" d="M-17.55,249.64c-15.55,0-22.63-9.13-36.11-24.13-6.33-7-6.6-7.36-1-12.09,7.42-6.24,12.32-3,15.52,4.68,1.3,3.14,3.85,6.69,6.41,4.34,12.79-11.75,30.2-2.19,44.38-10.84,9.3-5.68,16.07,6.87,21,13.13s-5.3,8.63-8.76,10.12C10.1,240.79-4.41,245.11-17.55,249.64Z"/><path class="cls-3" d="M1682.31,965.15c2.46-12-6.4-16.64-13.53-19.32-4-1.53-13.09-11.52-17.37,2.23-1.24,4-3.19,3.67-5.77-.39-5.15-8.1-13.77-16.32-14-24.7a333,333,0,0,1,1.53-46.59c.78-7,13.79,2.74,21.54,2.26-.4,10,12.23,18.85,0,30.43-9.74,9.24-2.85,21.88,11.26,23.71S1688.59,950.71,1682.31,965.15Z"/><path class="cls-3" d="M85.36,354.64c1.88-.36,5.45,0,7.88,4.94,2.21,4.48,3,7.6-2.28,10.15-1.5.72-3.65,2.94-3.41,4,6.4,27.18-20.24,22.58-31.64,32.35-3,2.54-10.71,2.76-13.64-1.69-3.4-5.15,1-9.14,5.61-11.73,6.13-3.45,7.83-5.71-.63-8.72-4.73-1.68.36-6.49-.68-9.79C60.82,371.86,66.58,353.53,85.36,354.64Z"/><path class="cls-3" d="M1757.2,517.25c-.62-10.26-7.22-17.92-12.41-26.9,10.53-4.9,15,4.15,20.57,8.37,8.67,6.52,16.4,14.15,28.62,10.77,9-2.49,6,6.83,9.28,10.07,5.49,5.51-2.79,5.22-4.3,7.8-14.11,24.08-30.83-2.47-45.83,2.48-1,.33-8.88-5.35-.7-9.35l4.39,1.47C1757,520.39,1757.07,518.82,1757.2,517.25Z"/><path class="cls-3" d="M1727.4,1035.34c-6.45,7-13.68,13.58-17.73,22.49-8.58-5.06-17.54-7.38-17.23-22.18.27-12.57-11.67,3.87-17.49-2.08-1.06-1.08-3.62,6.12-6.52,1.87-1.13-1.65,1-5.51,1.62-8.36,9.25,3.54,10.46-22.72,24.47-6.38,2.09,2.44,12-10.84,12.66-13.19,4.28-15.9,9.72-1.71,10.63-.21C1722.83,1015.61,1720.46,1026.52,1727.4,1035.34Z"/><path class="cls-3" d="M972.61,67.6c-24,4.94-46.39-7.4-70-6.38-2,.08-5.89-3.06-5.74-3.44,1.31-3.29,2.6-7.59,5.31-9.16,10.4-6,22.1-5.32,31.83.16,8.76,4.93,16.47,9.56,27,7.71C969,55.08,971.5,61,972.61,67.6Z"/><path class="cls-3" d="M1130.57,1009.78l3.74-9.38c14,3.82,29.41,23.67,29.34,37.25-.06,10.48-8.31,14.39-15.46,15.83s-10-6.37-9.93-12.7c.12-7.75-5.56-14.89-1.19-23.26C1139.08,1013.68,1137.11,1008.74,1130.57,1009.78Z"/><path class="cls-3" d="M1400.64,110.2c-22.5.75-44.15,6.34-65.77-2.18-3.52-1.39-6.91-3-6.11-7.77a4.43,4.43,0,0,1,5.61-3.44c18.81,5.07,38.28,3,57.28,5.67C1394.83,102.93,1399.06,103.37,1400.64,110.2Z"/><path class="cls-3" d="M1689.37,406.4c.39-2.51.79-5,1.18-7.52,4.4,3.22,9.17,6.05,13.13,9.74,12,11.22,30,19.49,21.78,41.43q-.82,1-1.71,2C1709.13,439.2,1702.76,420.15,1689.37,406.4Z"/><path class="cls-3" d="M1509.83,857.64c-4.95,6.88,2.59,21.66-13.56,21.48-8-.09-14.41-4.68-13-11.93,1.7-8.85,8.26-15.21,19-15.54C1507.43,851.49,1511,850.85,1509.83,857.64Z"/><path class="cls-3" d="M1720.94,678.63c-.57,7.68,1.85,13.31-4.73,13.79-5.15.37-9.65-2.08-10.82-7.93-1.46-7.28.7-16.25-10.14-18.83-1.94-.46-1.69-4.29,0-6.45,2.53-3.2,5.41-4.54,9.51-2.4C1715.19,662.24,1723.21,669,1720.94,678.63Z"/><path class="cls-3" d="M1624.55,823.6c-4.53-11.66-10.81-23-6.13-36.5,1.49-4.28,4.12-8.08,9.33-7s3.34,5.77,3.39,9.11c.16,11.37.06,22.75.06,34.13Z"/><path class="cls-3" d="M1027.53,73.09c-13.34,1.89-24.52,3.56-35.72,5-4.51.58-9.07.57-8.26-6.15.52-4.35,1.38-9.66,7.19-8C1002.19,67.09,1015.48,63.09,1027.53,73.09Z"/><path class="cls-3" d="M1725.46,450.05l28.15,25c-1.61,8.7-10.76-7.77-12,5.28-.7,7.32-5.15.08-5.94-1.51-4.3-8.77-8-17.84-11.9-26.8Q1724.63,451.06,1725.46,450.05Z"/><path class="cls-3" d="M1453.33,110.37c-15,7.35-28.61-.74-47-3.53C1425.2,102.39,1439.08,107.61,1453.33,110.37Z"/><path class="cls-3" d="M260.67,360c-3.87-3-1.05-5.86.09-8.77,3.09-6,12,20.19,12.94-2.43.17-3.88,8.92-4.44,14.21-5.05l2.94,6.78C283.78,363.21,273,364.22,260.67,360Z"/><path class="cls-3" d="M1421.1,129.71h-33.31C1395.38,117.76,1398.15,117.57,1421.1,129.71Z"/><path class="cls-3" d="M1798.84,154.23a11.12,11.12,0,0,1-12.48,2.05c-5.91-2.49-17.49,8.39-17.09-3.89.27-7.92,12.27-3.34,19.12-2.94C1791.82,149.64,1796,148.76,1798.84,154.23Z"/><path class="cls-3" d="M1730.63,672.81c-4.27-3.43-8.26-4.67-7.3-9.55,1.83-9.21,10.36-10.67,16.89-13.91,2.43-1.21,6.48,3,5.36,5.72C1742.49,662.61,1731.88,663.23,1730.63,672.81Z"/><path class="cls-3" d="M1682.17,387l-7.42,1.54c-2.28-.29-4.34-4.11-6.86-.43l.3.45c4.34-1.23-2.1-7.39,3.66-8C1677,380.06,1679.76,383.24,1682.17,387Z"/><path class="cls-3" d="M393.41,158.16c2-1.11,4-2.12,5.56.36.16.26-1.87,1.88-2.89,2.87Z"/><path class="cls-3" d="M333,594.79c-2.58,1.38-6.11,2.1-7.58,4.24-12.57,18.25-16.22,18.23-37.18-2.58,14.53.4,27.73.32,39.91-5.4Z"/><path class="cls-3" d="M243.48,583.78c-5.16-5.84-.29-12.49-3.12-18-5-9.68,4.64-10.09,9-13.63a3.72,3.72,0,0,1,6.31,2.72c-.58,8,5.37,16.71-1.58,23.8C251.49,581.32,247,582.15,243.48,583.78Z"/><path class="cls-3" d="M413.28,596.54c-.35,7.14,8.93,19-10,16.33-8.46-1.2-11.31-6.37-11.21-11.09.18-8.58,8.31-3.53,12.9-4.59,2.83-.65,5.93-.11,8.89-.12Z"/><path class="cls-3" d="M346.61,563.67c1.66-2.1,2.72-4.47,3.61-4.41,3.94.29,5.78,3.57,7,6.8.36.94-1.36,2.66-2.12,4Z"/></g></svg>