<?xml version="1.0" encoding="utf-8"?>
<!-- Generator: Adobe Illustrator 24.0.1, SVG Export Plug-In . SVG Version: 6.00 Build 0)  -->
<svg version="1.1" id="Layer_1" xmlns="http://www.w3.org/2000/svg" xmlns:xlink="http://www.w3.org/1999/xlink" x="0px" y="0px"
	 viewBox="0 0 425.2 425.2" style="enable-background:new 0 0 425.2 425.2;" xml:space="preserve">
<style type="text/css">
	.st0{fill:#EEEDE7;}
</style>
<g id="vinger6">
	<path class="st0" d="M212.6,213L212.6,213c2-2.3,5.3-2.7,7.8-1c23.4,17.3,45.8,35.9,67.1,55.6c0.2,0.2,0.5,0.5,0.7,0.7
		c17.3,23.3,33.4,47.6,48,72.7c1.5,2.6,0.7,6-1.8,7.7l0,0c-2.5,1.9-6.1,1.4-8-1.1c0,0,0,0,0,0c-33.1-46.3-71.2-88.7-113.6-126.7
		C210.5,218.9,210.4,215.3,212.6,213z"/>
	<path class="st0" d="M212,212.6L212,212.6c2,2.3,1.9,5.7-0.2,7.9c-20.5,20.6-42.1,40.1-64.8,58.3c-0.3,0.2-0.5,0.4-0.8,0.6
		c-25.6,13.8-52,26.1-78.9,37c-2.8,1.1-6-0.2-7.3-2.9l0,0c-1.5-2.8-0.6-6.2,2.2-7.8c0,0,0,0,0,0c50.6-26,98.1-57.6,141.8-94
		C206.4,209.7,210,210.1,212,212.6C212,212.6,212,212.6,212,212.6z"/>
	<path class="st0" d="M212.2,212.6L212.2,212.6c-3-0.1-5.4-2.5-5.6-5.5c-1-29.1-0.3-58.1,1.9-87.1c0-0.3,0.1-0.7,0.2-1
		c7.5-28.1,16.6-55.7,27.2-82.8c1.2-2.8,4.3-4.2,7.1-3.4l0,0c3.1,0.8,4.9,3.9,4.2,6.9c0,0,0,0.1,0,0.1
		c-15.7,54.7-25.3,110.9-28.7,167.7C218.1,210.6,215.3,212.9,212.2,212.6z"/>
</g>
</svg>
