<?xml version="1.0" encoding="utf-8"?>
<!-- Generator: Adobe Illustrator 24.0.1, SVG Export Plug-In . SVG Version: 6.00 Build 0)  -->
<svg version="1.1" id="Layer_1" xmlns="http://www.w3.org/2000/svg" xmlns:xlink="http://www.w3.org/1999/xlink" x="0px" y="0px"
	 viewBox="0 0 1029.1 1029.1" style="enable-background:new 0 0 1029.1 1029.1;" xml:space="preserve">
<style type="text/css">
	.st0{fill:#B0EDD9;}
	.st1{clip-path:url(#SVGID_2_);}
	.st2{fill:#F5F5F6;}
	.st3{fill:#0E7474;}
	.st4{fill:#73C09D;}
	.st5{fill:#065A5A;}
	.st6{fill:#CECECE;}
	.st7{fill:#0D0A0D;}
	.st8{fill:#FADDD0;}
	.st9{fill:#272638;}
	.st10{fill:#000503;}
	.st11{fill:#FFFFFF;}
</style>
<g>
	<circle class="st0" cx="514.6" cy="514.5" r="514.5"/>
</g>
<title>visions</title>
<g>
	<defs>
		<circle id="SVGID_1_" cx="514.6" cy="514.5" r="514.5"/>
	</defs>
	<clipPath id="SVGID_2_">
		<use xlink:href="#SVGID_1_"  style="overflow:visible;"/>
	</clipPath>
	<g id="Layer_1_1_" class="st1">
		<g>
			<path class="st0" d="M1207.5,552.1c-102.3,329.9-454.3,361.2-728.8,435.8c-288,78.3-479.2-119-479.2-417.4s195-540,493.5-540
				S1304.7,238.6,1207.5,552.1z"/>
		</g>
		<g>
			<polygon class="st2" points="404.7,777.8 35.4,777.8 3.2,499.5 546.8,499.5 			"/>
		</g>
		<g>
			<path class="st3" d="M405.8,777.8c-58.5,109.8-296.1,103.6-370.4,0c-9.6-13.3-19.2-62.8-19.2-62.8l-1-6.4h425.7L405.8,777.8z"/>
		</g>
		<g>
			<polygon class="st4" points="540.4,512.4 2.3,512.4 3.2,498.6 546.8,499.5 			"/>
		</g>
		<g>
			<path class="st3" d="M112.6,671.8c-24.2,0-43.9-19.7-43.9-43.9s19.7-43.9,43.9-43.9s43.9,19.7,43.9,43.9S136.8,671.8,112.6,671.8
				z M112.6,603.9c-13.2,0-23.9,10.7-23.9,23.9s10.7,23.9,23.9,23.9s23.9-10.7,23.9-23.9S125.7,603.9,112.6,603.9z"/>
		</g>
		<g>
			<rect x="110.1" y="572.3" class="st2" width="5.5" height="111.5"/>
		</g>
		<g>
			<rect x="57.1" y="625.3" class="st2" width="111.5" height="5.5"/>
		</g>
		<g>
			<path class="st3" d="M278.4,671.8c-24.2,0-43.9-19.7-43.9-43.9s19.7-43.9,43.9-43.9s43.9,19.7,43.9,43.9S302.6,671.8,278.4,671.8
				z M278.4,603.9c-13.2,0-23.9,10.7-23.9,23.9s10.7,23.9,23.9,23.9s23.9-10.7,23.9-23.9S291.6,603.9,278.4,603.9z"/>
		</g>
		<g>
			<rect x="275.9" y="572.3" class="st2" width="5.5" height="111.5"/>
		</g>
		<g>
			<rect x="222.9" y="625.3" class="st2" width="111.5" height="5.5"/>
		</g>
		<g>
			<polygon class="st2" points="443.9,498.6 437.9,498.6 437.9,434.3 15.2,434.3 15.2,428.3 443.9,428.3 			"/>
		</g>
		<g>
			<rect x="368" y="431.3" class="st2" width="6" height="67.3"/>
		</g>
		<g>
			<rect x="294.3" y="431.3" class="st2" width="6" height="67.3"/>
		</g>
		<g>
			<rect x="219.6" y="431.3" class="st2" width="6" height="67.3"/>
		</g>
		<g>
			<rect x="145.9" y="431.3" class="st2" width="6" height="67.3"/>
		</g>
		<g>
			<rect x="72.2" y="431.3" class="st2" width="6" height="67.3"/>
		</g>
		<g>
			<polyline class="st2" points="15.2,428.6 14.9,428.6 13.7,434.1 15.2,434.1 			"/>
		</g>
		<g>
			<path class="st3" d="M15.2,708.7h-0.6c0,0,12.1,49.8,18.3,60.8h2.5l-16.6-59"/>
		</g>
		<g>
			<path class="st2" d="M4.9,547.4h-5.1c0,0-5.9,86.6,14.4,161.3h14.4L9.2,547.4"/>
		</g>
		<g>
			<polygon class="st2" points="4.7,512.4 2,512.4 0.9,527.2 7.8,527.2 			"/>
		</g>
		<g>
			<polygon class="st4" points="522.9,547.4 0.4,547.4 1.3,526.3 533,526.3 			"/>
		</g>
		<g>
			<path class="st4" d="M0.9,526.3h1.5l-0.2,21.2H0.1C0.1,547.4-0.4,542.8,0.9,526.3z"/>
		</g>
		<g>
			<path class="st5" d="M398.1,348.1h35.4c0.7,0,1.3,0.6,1.3,1.3v0.2c0,0.7-0.6,1.3-1.3,1.3h-35.4c-0.7,0-1.3-0.6-1.3-1.3v-0.2
				C396.8,348.7,397.4,348.1,398.1,348.1z"/>
		</g>
		<g>
			<rect x="423.9" y="346.8" class="st4" width="37.9" height="5.4"/>
		</g>
		<g>
			<rect x="461.7" y="346.8" class="st6" width="2.7" height="5.4"/>
		</g>
		<g>
			<path class="st7" d="M395.1,500.5h-16.6c0,0,4.8-63.9,1.2-75.8h22.6C402.3,424.7,398.6,495,395.1,500.5z"/>
		</g>
		<g>
			<path class="st8" d="M423.1,347.9h1c1.4,0,2.5,1.1,2.5,2.5v5.8c0,1.4-1.1,2.5-2.5,2.5h-1c-1.4,0-2.5-1.1-2.5-2.5v-5.8
				C420.6,349,421.7,347.9,423.1,347.9z"/>
		</g>
		<g>
			<path class="st8" d="M408.5,347.9h0.4c1.4,0,2.5,1.1,2.5,2.5v3.7c0,1.4-1.1,2.5-2.5,2.5h-0.4c-1.4,0-2.5-1.1-2.5-2.5v-3.7
				C406,349,407.1,347.9,408.5,347.9z"/>
		</g>
		<g>
			<path class="st9" d="M403.3,424.7c0,0,2.2-40-1.1-44.4H413c0,0,13-5.4,14.1-22.7h-7.6c0.2-0.9-1.1,9.6-4.3,10.8
				s-17.3,1.1-17.3,1.1s-8.7-4.3-9.7-6.5h-9.7c0,0-2.2,59.5-1.1,61.7L403.3,424.7z"/>
		</g>
		<g>
			<path class="st9" d="M391.6,366.3l13.9,0.3v-11.1h6.5v11.1c-0.1,1.3-0.9,2.5-2.2,3c-2.2,1-15.2,1-15.2,1L391.6,366.3z"/>
		</g>
		<g>
			<path class="st8" d="M387.1,363c0,0,0-2.2,5.3-2.2s4.3-4.3,4.3-4.3v-13h-7.5c0,0-1.1,6.5-5.4,6.5s-5.4,13-5.4,13"/>
		</g>
		<g>
			<path class="st10" d="M378.5,363v-18.8c0-2.8,2.2-5,5-5h12.2c0.7,0,1.3,0.6,1.3,1.3v3.1C396.9,343.5,381.7,347.9,378.5,363"/>
		</g>
		<g>
			<path class="st8" d="M388.2,348.3c0,0-8.3-2.4-6.1,6.2"/>
		</g>
	</g>
	<g id="cloud1" class="st1">
		<g>
			<path class="st11" d="M427.7,180.6c3.2-7.8-0.4-16.7-8.2-19.9c-6.7-2.8-14.4-0.5-18.5,5.5c-4.2-7.3-13.4-9.8-20.7-5.7
				c-1.8,1-3.3,2.3-4.5,3.9c-11-9.9-27.9-9-37.7,2c-1.1,1.2-2.1,2.6-3,4c-10.7-4.7-23.1,0.2-27.9,10.8c-6-5.8-15.6-5.7-21.5,0.3
				c-2.7,2.8-4.2,6.5-4.3,10.3c-5-2.6-11.1-0.6-13.6,4.4c-2,3.9-1.3,8.7,1.8,11.8c0.5,1.8,2.1,3,4,3h141.9h0.2h0.3
				c9.7,0,17.5-7.8,17.5-17.4C433.6,188.7,431.4,184,427.7,180.6L427.7,180.6z M309.8,202.8h-2.3c0.4-0.5,0.9-0.9,1.2-1.4
				C309.1,201.9,309.5,202.4,309.8,202.8L309.8,202.8z"/>
		</g>
	</g>
	<g id="cloud2" class="st1">
		<g>
			<path class="st11" d="M602.2,287.5c0-2.6,2.1-4.7,4.7-4.7c0.5,0,1.1,0.1,1.6,0.3c1.1-1.5,2.8-2.4,4.6-2.4c0.2,0,0.5,0,0.7,0
				c0.6-2.5,2.8-4.2,5.3-4.2c0.2,0,0.4,0,0.6,0c0.6-0.4,1.3-0.6,2-0.6c0.9,0,1.7,0.3,2.4,0.9c1.4-1.1,3.3-1.1,4.7-0.2
				c0.7-3.2,3.9-5.3,7.1-4.6c2.1,0.4,3.7,1.9,4.4,3.9l0,0c2,0,3.7,1.5,3.9,3.5c0.7-0.3,1.4-0.4,2.1-0.4c0.4,0,0.7,0,1.1,0.1
				c2.5-3.1,7.1-3.6,10.2-1.1c0.4,0.3,0.8,0.7,1.1,1.1c3.2-1.6,7.1-0.3,8.7,2.9c0.4,0.9,0.7,1.9,0.7,2.9c0,0,0,0.1,0,0.1
				c1.8,0.9,2.6,3,1.7,4.8c-0.6,1.3-1.9,2.1-3.3,2.1c-0.2,0-0.3,0-0.5,0c-0.1,0-0.2,0-0.3,0h-59.8c-0.6,0-1.2-0.2-1.6-0.6
				C603.1,290.7,602.2,289.2,602.2,287.5z"/>
		</g>
	</g>
	<g id="cloud3" class="st1">
		<g>
			<path class="st11" d="M922.8,238.8c0-4.6-3.7-8.2-8.3-8.2c-1,0-1.9,0.2-2.8,0.5c-1.9-2.6-5-4.2-8.2-4.2c-0.4,0-0.8,0-1.2,0.1
				c-1-4.4-4.9-7.4-9.4-7.4c-0.4,0-0.7,0-1.1,0.1c-1.1-0.7-2.3-1-3.5-1c-1.6,0-3.1,0.5-4.3,1.5c-2.4-1.9-5.8-2-8.3-0.4
				c-1.2-5.7-6.8-9.4-12.5-8.3c-3.8,0.8-6.8,3.5-8,7.1l0,0c-3.6,0-6.5,2.7-6.9,6.2c-1.2-0.5-2.4-0.7-3.7-0.7c-0.7,0-1.3,0.1-1.9,0.2
				c-4.5-5.5-12.6-6.4-18.1-1.9c-0.7,0.6-1.4,1.3-2,2c-5.7-2.8-12.6-0.5-15.4,5.2c-0.8,1.6-1.2,3.4-1.2,5.1c0,0.1,0,0.1,0,0.2
				c-3.2,1.5-4.6,5.4-3.1,8.6c1.1,2.3,3.3,3.7,5.8,3.7c0.3,0,0.5,0,0.8-0.1c0.2,0,0.4,0.1,0.6,0.1h106c1.1,0,2.1-0.4,2.9-1.2
				C921.3,244.4,922.8,241.7,922.8,238.8z"/>
		</g>
	</g>
	<g id="cloud4" class="st1">
		<g>
			<path class="st11" d="M1065.6,398.6c0-3.2-2.5-5.9-5.7-6c-0.1-0.5-0.3-1-0.5-1.4c0.4-0.8,0.7-1.8,0.7-2.7c0-3.3-2.7-6-6-6
				c-0.2,0-0.4,0-0.7,0c-1.2-8.3-9-14-17.3-12.8c-5.6,0.8-10.3,4.8-12.2,10.2c-0.7-0.1-1.5-0.2-2.2-0.2c-4.8,0-9.1,3-10.8,7.5
				c-10.8-3.9-22.5-3.9-33.3-0.1c-3.4-3.6-9.1-3.8-12.7-0.3c-0.1,0.1-0.1,0.1-0.2,0.2c-4.9-2.1-10.6,0.3-12.7,5.2
				c-2.1,4.9,0.3,10.6,5.2,12.7c0.4,0.2,0.7,0.3,1.1,0.4c0.5,0.2,1.1,0.4,1.7,0.4h101.4c2.3,0,4.1-1.8,4.1-4c0-0.5-0.1-0.9-0.2-1.4
				C1065.5,399.6,1065.6,399.1,1065.6,398.6z"/>
		</g>
	</g>
</g>
</svg>
