<?xml version="1.0" encoding="utf-8"?>
<!-- Generator: Adobe Illustrator 24.0.1, SVG Export Plug-In . SVG Version: 6.00 Build 0)  -->
<svg version="1.1" id="Layer_1" xmlns="http://www.w3.org/2000/svg" xmlns:xlink="http://www.w3.org/1999/xlink" x="0px" y="0px"
	 viewBox="0 0 165 35" style="enable-background:new 0 0 165 35;" xml:space="preserve">
<style type="text/css">
	.st0{fill:#005F56;}
</style>
<title>wave_overskrift</title>
<g>
	<path class="st0" d="M119.7,34.2c-16.2,0-26.8-6.6-37.1-12.9c-1.1-0.7-2.1-1.3-3.2-2c-9.6-6.1-20.6-13-37.7-13
		c-24.4,0-36,14.2-36.2,14.4c-1,1.3-2.9,1.5-4.2,0.5c-1.3-1-1.5-2.9-0.5-4.2C1.4,16.2,14.5,0.2,41.7,0.2c18.9,0,31.1,7.7,40.9,14
		c1.1,0.7,2.1,1.3,3.1,2c10,6.2,19.5,12.1,33.9,12.1c19.7,0,40-15.2,40.2-15.4c1.3-1,3.2-0.7,4.2,0.6c1,1.3,0.7,3.2-0.6,4.2
		C162.6,18.3,141.4,34.2,119.7,34.2z"/>
</g>
</svg>
